<svg width="140" height="40" fill="none" xmlns="http://www.w3.org/2000/svg"><path d="M21.328 16.19c.128.064.192.192.128.32-2.88 5.568-9.727 7.808-15.294 4.928-3.968-2.048-6.4-6.207-6.144-10.687C.274 4.928 5.01.256 10.833 0h.512c4.288 0 8.192 2.368 10.111 6.143.064.128 0 .256-.128.384l-3.007 1.344c-.128.064-.256 0-.32-.128-1.984-3.647-6.592-5.055-10.24-3.007a7.397 7.397 0 00-3.967 7.23 7.699 7.699 0 006.72 6.976c.255 0 .511.064.767.064 2.752 0 5.312-1.536 6.656-3.967.064-.128.192-.192.32-.128l3.071 1.28zM70.476 0c-6.272 0-11.391 5.12-11.391 11.39 0 6.272 5.12 11.392 11.39 11.392 6.272 0 11.392-5.12 11.392-11.391S76.747 0 70.476 0zm30.525 0c-6.271 0-11.39 5.056-11.39 11.327s5.055 11.39 11.326 11.39c6.272 0 11.391-5.055 11.391-11.326C112.328 5.12 107.273 0 101.001 0zM39.95 0c-6.27 0-11.39 5.056-11.39 11.39 0 6.272 5.055 11.392 11.39 11.392A11.335 11.335 0 0051.343 11.39C51.278 5.12 46.222 0 39.95 0zm99.831 22.334h-4.479a.489.489 0 01-.32-.128l-7.999-9.023h-2.88v8.895a.275.275 0 01-.256.256h-3.392a.275.275 0 01-.256-.256V.704c0-.128.128-.256.256-.256h3.392c.128 0 .256.128.256.256v8.767h3.008L134.47.576a.489.489 0 01.32-.128h4.351c.064 0 .192.064.192.128s0 .064-.064.128l-8.959 10.623 9.663 10.751c.064.064 0 .192-.064.256h-.128zM99.21 36.444l.96.384c.064.064.128.128.064.256a4.327 4.327 0 01-5.888 1.728 4.573 4.573 0 01-2.304-4.16c.128-2.24 1.984-4.031 4.224-4.095h.128c1.6 0 3.072.896 3.84 2.24.064.063 0 .191-.064.191l-.96.448c-.064.064-.192 0-.192-.064-.832-1.471-2.688-1.92-4.096-1.087l-.768.575c-.576.64-.832 1.472-.768 2.368.192 1.664 1.664 2.816 3.328 2.624.96-.128 1.792-.64 2.24-1.472.128.064.192 0 .256.064zm-65.979-2.112l-.511-.064c-1.088-.192-1.92-.384-1.984-1.152 0-.256.128-.512.32-.704.448-.384.96-.512 1.536-.512.831 0 1.6.192 2.303.576.064.064.192 0 .192-.064l.512-.895c.064-.064 0-.192-.064-.256a5.373 5.373 0 00-3.007-.704c-.96-.064-1.92.32-2.624.96-.448.447-.64 1.087-.64 1.663 0 1.344.832 2.112 2.56 2.368l.576.064c1.087.192 1.983.384 1.983 1.216 0 .256-.128.512-.32.704a2.107 2.107 0 01-1.6.512c-.96 0-1.855-.256-2.623-.768-.064-.064-.192 0-.192.064l-.512.832c-.064.064 0 .192.064.256 1.024.64 2.176.96 3.392.896 1.023.064 1.983-.32 2.751-.96.448-.448.704-1.088.64-1.728-.064-1.216-.96-1.984-2.752-2.304zm15.871 3.584H44.43v-2.304h4.48c.064 0 .192-.064.192-.192v-.96c0-.064-.064-.192-.192-.192h-4.48v-2.24h4.672c.064 0 .192-.063.192-.191v-.96c0-.064-.064-.192-.192-.192h-5.888c-.064 0-.191.064-.191.192v8.127c0 .064.063.192.191.192h5.888c.064 0 .192-.064.192-.192v-.96c0-.064-.064-.128-.192-.128zm28.733-7.167h-1.216c-.064 0-.192.064-.192.128l-2.56 7.167-2.56-7.167c0-.064-.128-.128-.192-.128H69.9a.138.138 0 00-.129.128v.064l3.072 8.127c0 .064.128.128.192.128H74.7c.064 0 .128-.064.192-.128l3.072-8.127c0-.064 0-.128-.128-.192.064 0 .064 0 0 0zm7.679 0h-1.088c-.064 0-.192.064-.192.192v8.127c0 .064.064.192.128.192h1.088c.064 0 .192-.064.192-.192v-8.191a.138.138 0 00-.128-.128zM63.628 38.94L61.9 35.932l.192-.064a2.638 2.638 0 001.408-3.392 4.773 4.773 0 00-.448-.767 3.098 3.098 0 00-2.304-1.024h-3.391c-.32 0-.384.064-.384.192v8.127c0 .064.064.192.128.192h1.087c.064 0 .192-.064.192-.192v-2.88h2.176l1.664 2.88c.064.064.128.128.256.128h1.152c-.064.064 0 0 0-.192 0 .064 0 .064 0 0zm-2.752-3.968h-2.56v-2.944h2.56c.832.064 1.408.768 1.344 1.536 0 .768-.64 1.344-1.344 1.408zm50.876 2.944h-4.672v-2.304h4.48c.064 0 .192-.064.192-.192v-.96c0-.064-.064-.192-.192-.192h-4.48v-2.24h4.608c.064 0 .192-.063.192-.191v-.96c0-.064-.064-.192-.192-.192H105.8c-.064 0-.192.064-.192.192v8.127c0 .064.064.192.192.192h5.888c.064 0 .192-.064.192-.192v-.96a.138.138 0 00-.128-.128z" fill="#212629"/></svg>