<svg width="740" height="393" fill="none" xmlns="http://www.w3.org/2000/svg"><path d="M660.161 135.173l1.187-20.016 33.247-11.025v27.309l-34.434 3.732z" fill="#E9E9E9" stroke="#212629" stroke-width=".5" stroke-miterlimit="10"/><path d="M694.598 430.999l-6.276-301.933-32.399 6.955-9.838 294.978h48.513z" fill="#E9E9E9" stroke="#212629" stroke-width=".5" stroke-miterlimit="10"/><path d="M680.858 213.54l-24.595 4.071s-23.239 17.98-29.854 52.753l-13.401 160.635h32.908l34.942-217.459z" fill="#E9E9E9" stroke="#212629" stroke-width=".5" stroke-miterlimit="10"/><path d="M659.486 217.611l21.203-3.562.169-.509-24.595 4.071s-23.239 17.98-29.854 52.753l-13.401 160.635h3.223l13.401-160.635c6.615-34.773 29.854-52.753 29.854-52.753z" fill="#E9E9E9" stroke="#212629" stroke-width=".5" stroke-miterlimit="10"/><path d="M678.314 213.54h2.544l6.785 217.459h-44.102l3.053-155.376c-.17 0 3.732-44.612 31.72-62.083z" fill="#E9E9E9" stroke="#212629" stroke-width=".5" stroke-miterlimit="10"/><path d="M680.858 213.54l9.329 217.459h-44.102l3.053-155.376s3.732-44.612 31.72-62.083zm7.467-84.474l31.211 4.411 19.337 295.996-44.272 1.526-6.276-301.933zm6.272-24.934l13.909 3.053 1.697 24.935-15.606-2.205v-25.783z" fill="#E9E9E9" stroke="#212629" stroke-width=".5" stroke-miterlimit="10"/><path d="M720.717 214.218c0 .679-.678 1.357-1.357 1.357-.678 0-1.357-.678-1.357-1.357 0-.678.679-1.357 1.357-1.357.849 0 1.357.679 1.357 1.357zm3.732 110.257c0 .679-.678 1.357-1.357 1.357-.678 0-1.357-.678-1.357-1.357 0-.678.679-1.357 1.357-1.357.848 0 1.357.679 1.357 1.357zm-45.967 0c0 .679-.678 1.357-1.357 1.357-.678 0-1.357-.678-1.357-1.357 0-.678.679-1.357 1.357-1.357.848 0 1.527.679 1.357 1.357zm21.378 15.775c0 .678-.679 1.357-1.358 1.357-.678 0-1.356-.679-1.356-1.357 0-.679.678-1.357 1.356-1.357.849 0 1.358.678 1.358 1.357zm29.171 36.469c0 .679-.679 1.357-1.357 1.357-.679 0-1.357-.678-1.357-1.357 0-.678.678-1.357 1.357-1.357.848 0 1.357.679 1.357 1.357zm-4.408-125.522c0 .678-.678 1.357-1.357 1.357-.678 0-1.357-.679-1.357-1.357 0-.679.679-1.357 1.357-1.357.848 0 1.357.678 1.357 1.357zm-28.669-98.383c0 .679-.679 1.357-1.357 1.357-.679 0-1.357-.678-1.357-1.357 0-.678.678-1.357 1.357-1.357.678 0 1.357.679 1.357 1.357zm-19.844 1.357c0 .679-.679 1.357-1.358 1.357-.678 0-1.356-.678-1.356-1.357 0-.678.678-1.357 1.356-1.357.849 0 1.358.679 1.358 1.357z" fill="#E9E9E9" stroke="#212629" stroke-width=".5" stroke-miterlimit="10"/><path d="M697.143 152.814c0 .679-.678 1.357-1.357 1.357-.678 0-1.357-.678-1.357-1.357 0-.678.679-1.357 1.357-1.357.848 0 1.527.679 1.357 1.357zm-22.391 1.357c0 .679-.678 1.357-1.357 1.357-.678 0-1.357-.678-1.357-1.357 0-.678.679-1.357 1.357-1.357.848 0 1.527.679 1.357 1.357zm41.724 60.047c0 .679-.679 1.357-1.357 1.357-.679 0-1.357-.678-1.357-1.357 0-.678.678-1.357 1.357-1.357.678 0 1.357.679 1.357 1.357zm6.79 36.979c0 .678-.678 1.357-1.357 1.357-.678 0-1.357-.679-1.357-1.357 0-.679.679-1.357 1.357-1.357.848 0 1.357.678 1.357 1.357zm1.183 39.183c0 .679-.678 1.357-1.357 1.357-.678 0-1.357-.678-1.357-1.357 0-.678.679-1.357 1.357-1.357.848 0 1.357.679 1.357 1.357zm-27.306-1.357c0 .679-.678 1.357-1.357 1.357-.678 0-1.357-.678-1.357-1.357 0-.678.679-1.357 1.357-1.357.848 0 1.527.679 1.357 1.357z" fill="#E9E9E9" stroke="#212629" stroke-width=".5" stroke-miterlimit="10"/><path d="M699.86 289.023c0 .679-.679 1.357-1.358 1.357-.678 0-1.356-.678-1.356-1.357 0-.678.678-1.357 1.356-1.357.849 0 1.358.679 1.358 1.357zm30.528 72.261c0 .678-.679 1.357-1.357 1.357-.679 0-1.357-.679-1.357-1.357 0-.679.678-1.357 1.357-1.357.678 0 1.357.678 1.357 1.357zm-50.549-72.261c0 .679-.679 1.357-1.357 1.357-.679 0-1.357-.678-1.357-1.357 0-.678.678-1.357 1.357-1.357.848 0 1.357.679 1.357 1.357zm31.724 0c0 .679-.678 1.357-1.357 1.357-.678 0-1.357-.678-1.357-1.357 0-.678.679-1.357 1.357-1.357.679 0 1.357.679 1.357 1.357zm-44.614 0c0 .679-.679 1.357-1.357 1.357-.679 0-1.357-.678-1.357-1.357 0-.678.678-1.357 1.357-1.357.678 0 1.357.679 1.357 1.357zm44.948-36.809c0 .679-.679 1.357-1.357 1.357-.679 0-1.357-.678-1.357-1.357 0-.678.678-1.357 1.357-1.357.848 0 1.357.679 1.357 1.357zm-44.948 0c0 .679-.679 1.357-1.357 1.357-.679 0-1.357-.678-1.357-1.357 0-.678.678-1.357 1.357-1.357.678 0 1.357.679 1.357 1.357zm21.376-123.148l3.053.34 8.99 301.424-5.767.169-6.276-301.933z" fill="#E9E9E9" stroke="#212629" stroke-width=".5" stroke-miterlimit="10"/><path d="M688.325 129.066l-2.375.34 6.107 301.593h2.544l-6.276-301.933zm28.155 3.902l18.999 296.165 3.392.339-19.337-295.995-3.054-.509zM200.654 81.742l-5.259-22.39-5.767-1.697-.848 21.712 11.874 2.375zm-11.029-24.087l-41.389 5.598-6.785 22.22 47.326-6.106.848-21.712z" fill="#E9E9E9" stroke="#212629" stroke-width=".5" stroke-miterlimit="10"/><path d="M188.777 399.62l-2.714-320.762 18.828 3.732 10.178 316.521-26.292.509z" fill="#E9E9E9" stroke="#212629" stroke-width=".5" stroke-miterlimit="10"/><path d="M186.063 78.858l-48.174 7.125v312.449l50.888 1.188-2.714-320.762z" fill="#E9E9E9" stroke="#212629" stroke-width=".5" stroke-miterlimit="10"/><path d="M137.889 219.647l48.852-61.404 22.221 52.754 3.562 106.355-23.747 82.268-50.888-86.17v-93.803z" fill="#E9E9E9" stroke="#212629" stroke-width=".5" stroke-miterlimit="10"/><path d="M186.741 158.243l2.036 241.377-50.888-86.17v-93.803l48.852-61.404zm-38.506-94.99l10.008-10.177 24.935-4.75 6.445 9.33-41.388 5.597z" fill="#E9E9E9" stroke="#212629" stroke-width=".5" stroke-miterlimit="10"/><path d="M195.39 59.352l-12.213-11.026 6.446 9.33 5.767 1.696zm-8.989 55.128l21.203 51.906.509 18.659-21.542-47.496-.17-23.069z" fill="#E9E9E9" stroke="#212629" stroke-width=".5" stroke-miterlimit="10"/><path d="M186.402 114.48l-48.513 65.645v14.079l48.683-56.655-.17-23.069zm-48.513 105.167v6.616l49.022-59.878 22.221 48.004-.17-3.392-22.221-52.754-48.852 61.404zm0 93.803v-3.222l51.566 79.893 22.9-74.974.169 5.258-23.747 79.215-50.888-86.17z" fill="#E9E9E9" stroke="#212629" stroke-width=".5" stroke-miterlimit="10"/><path d="M207.605 166.386v2.544l-21.203-49.87-48.513 63.61v-2.545l48.513-65.645 21.203 51.906zm-57.841-73.618c.169.679-.34 1.357-1.188 1.527-.678.17-1.357-.34-1.526-1.187-.17-.679.339-1.357 1.187-1.527.848 0 1.357.509 1.527 1.187z" fill="#E9E9E9" stroke="#212629" stroke-width=".5" stroke-miterlimit="10"/><path d="M151.121 92.599c.169.678-.34 1.356-1.188 1.526-.678.17-1.357-.34-1.526-1.187-.17-.679.339-1.357 1.187-1.527.678 0 1.357.509 1.527 1.188zm43.592 24.256c.17.678-.339 1.357-1.187 1.526-.679.17-1.357-.339-1.527-1.187-.169-.679.34-1.357 1.188-1.527.678-.169 1.357.34 1.526 1.188zm-25.612-27.31c.169.678-.34 1.357-1.188 1.526-.678.17-1.357-.339-1.526-1.187-.17-.678.339-1.357 1.187-1.527.678 0 1.357.51 1.527 1.188zm34.091 4.75c.17.678-.339 1.357-1.187 1.526-.679.17-1.357-.339-1.527-1.187-.169-.678.34-1.357 1.188-1.527.848 0 1.526.51 1.526 1.188zm1.358 23.747c.169.678-.34 1.357-1.188 1.526-.678.17-1.357-.339-1.526-1.187-.17-.678.339-1.357 1.187-1.527.679 0 1.357.509 1.527 1.188zm1.359 106.525c.17.678-.339 1.357-1.187 1.526-.679.17-1.357-.339-1.527-1.187-.17-.679.339-1.357 1.187-1.527.679-.169 1.357.339 1.527 1.188zm-39.183-11.874c0 .679-.509 1.357-1.187 1.357-.679 0-1.357-.509-1.357-1.187 0-.679.509-1.357 1.187-1.357.679 0 1.357.509 1.357 1.187zm30.53 45.968c0 .679-.509 1.357-1.187 1.357-.679 0-1.357-.509-1.357-1.187 0-.679.509-1.357 1.187-1.357.679 0 1.357.509 1.357 1.187zm-29.682 44.781c0 .679-.509 1.357-1.188 1.357-.678 0-1.357-.509-1.357-1.187 0-.679.509-1.357 1.188-1.357.678-.17 1.357.509 1.357 1.187zm-4.579-57.164c0 .679-.509 1.357-1.188 1.357-.678 0-1.357-.508-1.357-1.187 0-.678.509-1.357 1.188-1.357.678-.17 1.357.339 1.357 1.187zm-19.847 96.856c0 .679-.509 1.357-1.357 1.357-.679 0-1.357-.509-1.357-1.357 0-.678.508-1.357 1.357-1.357.678.17 1.357.679 1.357 1.357zm5.426 0c0 .679-.509 1.357-1.357 1.357-.678 0-1.357-.509-1.357-1.357 0-.678.509-1.357 1.357-1.357.848.17 1.357.679 1.357 1.357z" fill="#E9E9E9" stroke="#212629" stroke-width=".5" stroke-miterlimit="10"/><path d="M148.577 344.491a1.357 1.357 0 100-2.714 1.357 1.357 0 000 2.714zm-.171-225.262c.17.679-.508 1.357-1.187 1.527-.678 0-1.357-.509-1.527-1.187-.169-.679.509-1.357 1.188-1.527.848 0 1.526.509 1.526 1.187z" fill="#E9E9E9" stroke="#212629" stroke-width=".5" stroke-miterlimit="10"/><path d="M149.762 119.06c0 .678-.509 1.357-1.188 1.526-.678.17-1.357-.509-1.526-1.187 0-.679.509-1.357 1.187-1.527.679-.169 1.357.34 1.527 1.188zm2.546 25.274c.17.679-.509 1.357-1.187 1.527-.679 0-1.357-.509-1.527-1.188 0-.678.509-1.357 1.188-1.526.848-.17 1.526.339 1.526 1.187zm-7.126.679c0 .678-.509 1.357-1.187 1.526-.679.17-1.357-.509-1.527-1.187 0-.679.509-1.357 1.188-1.527.678 0 1.357.509 1.526 1.188zm344.676-51.567l-5.089-22.56-5.936-1.697-.849 21.882 11.874 2.375z" fill="#E9E9E9" stroke="#212629" stroke-width=".5" stroke-miterlimit="10"/><path d="M478.833 69.19l-41.388 5.767-6.785 22.22 47.325-6.106.848-21.882z" fill="#E9E9E9" stroke="#212629" stroke-width=".5" stroke-miterlimit="10"/><path d="M477.984 412.172l-2.545-321.61 18.659 3.732 10.347 317.369-26.461.509z" fill="#E9E9E9" stroke="#212629" stroke-width=".5" stroke-miterlimit="10"/><path d="M475.441 90.563l-48.513 7.124v313.467l51.057 1.018-2.544-321.61zm8.479-19.847l-5.088-36.639 1.526 35.621 3.562 1.018z" fill="#E9E9E9" stroke="#212629" stroke-width=".5" stroke-miterlimit="10"/><path d="M478.832 34.077l-1.696 2.205-3.223 30.194-32.059 5.597 1.018-30.702-1.357-.509-4.071 34.095 42.915-5.259-1.527-35.62z" fill="#E9E9E9" stroke="#212629" stroke-width=".5" stroke-miterlimit="10"/><path d="M442.873 41.371l1.696 30.193-2.714.51 1.018-30.703zm26.462 130.611c0 .679-.679 1.357-1.357 1.187-.679 0-1.357-.678-1.187-1.357 0-.678.678-1.357 1.357-1.187.678 0 1.187.679 1.187 1.357zm12.211 8.99c0 .679-.679 1.357-1.357 1.188-.679 0-1.357-.679-1.188-1.357 0-.679.679-1.357 1.357-1.188.509 0 1.188.679 1.188 1.357zm9.67-39.862c0 .678-.678 1.357-1.357 1.187-.678 0-1.357-.678-1.187-1.357 0-.678.678-1.357 1.357-1.187.678.17 1.187.678 1.187 1.357zm-21.543-39.861c0 .678-.679 1.357-1.357 1.187-.679 0-1.357-.679-1.188-1.357 0-.679.679-1.357 1.357-1.187.679 0 1.188.508 1.188 1.357zm-4.58 70.733c0 .679-.678 1.357-1.357 1.187-.678 0-1.357-.678-1.187-1.357 0-.678.678-1.357 1.357-1.187.678 0 1.187.679 1.187 1.357zm-25.781 81.42c0 .678-.678 1.357-1.357 1.187-.678 0-1.357-.678-1.187-1.357 0-.678.679-1.357 1.357-1.187.679 0 1.187.678 1.187 1.357zm14.418 0c0 .678-.679 1.357-1.357 1.187-.679 0-1.357-.678-1.187-1.357 0-.678.678-1.357 1.357-1.187.678 0 1.357.678 1.187 1.357zm1.525 68.868c0 .679-.679 1.357-1.357 1.187-.679 0-1.357-.678-1.188-1.357 0-.678.679-1.357 1.357-1.187.679.17 1.357.679 1.188 1.357zm14.418-92.106c0 .678-.679 1.357-1.357 1.187-.679 0-1.357-.678-1.188-1.357 0-.678.679-1.357 1.357-1.187.679 0 1.188.678 1.188 1.357zm11.873-116.533c0 .679-.679 1.357-1.357 1.188-.679 0-1.357-.679-1.188-1.357 0-.679.679-1.357 1.357-1.188.509 0 1.188.679 1.188 1.357zm3.734 0c0 .679-.679 1.357-1.357 1.188-.679 0-1.357-.679-1.188-1.357 0-.679.679-1.357 1.357-1.188.509 0 1.188.679 1.188 1.357z" fill="#E9E9E9" stroke="#212629" stroke-width=".5" stroke-miterlimit="10"/><path d="M468.315 101.249c0 .678-.678 1.357-1.357 1.187-.678 0-1.357-.679-1.187-1.357 0-.679.678-1.357 1.357-1.187.678 0 1.357.508 1.187 1.357zm-8.479.508c0 .679-.678 1.357-1.357 1.188-.678 0-1.357-.679-1.187-1.357 0-.679.678-1.357 1.357-1.188.678 0 1.187.509 1.187 1.357zm-22.901 2.036c0 .678-.678 1.357-1.357 1.187-.678 0-1.357-.679-1.187-1.357 0-.679.679-1.357 1.357-1.187.679 0 1.187.678 1.187 1.357zM83.607 169.607l-3.053-41.728-14.757 8.481-26.122-12.213-3.223 48.683 47.155-3.223z" fill="#E9E9E9" stroke="#212629" stroke-width=".5" stroke-miterlimit="10"/><path d="M1 400.806l25.274-120.942-4.75-92.616 44.273-42.745v257.491L1 400.806z" fill="#E9E9E9" stroke="#212629" stroke-width=".5" stroke-miterlimit="10"/><path d="M109.558 400.976l-43.764 1.018V144.503l29.006 40.88-2.035 96.856 16.793 118.737zM80.553 127.879l-40.88-3.732 26.123 20.355 14.757-16.623z" fill="#E9E9E9" stroke="#212629" stroke-width=".5" stroke-miterlimit="10"/><path d="M65.797 144.502l-26.122-20.355-3.223 48.683 29.345-28.328zM46.63 124.826l16.792-27.31 12.213 29.855-29.006-2.545z" fill="#E9E9E9" stroke="#212629" stroke-width=".5" stroke-miterlimit="10"/><path d="M63.422 97.517l2.375 29.005-19.168-1.696 16.793-27.31zM1 400.807l65.815-127.558 27.988-87.866-29.006 97.874-62.931 117.55H1z" fill="#E9E9E9" stroke="#212629" stroke-width=".5" stroke-miterlimit="10"/><path d="M109.559 400.976L66.814 273.248l-45.29-86 44.102 88.884 41.559 124.844h2.374z" fill="#E9E9E9" stroke="#212629" stroke-width=".5" stroke-miterlimit="10"/><path d="M65.795 144.503L63.76 401.994h3.732l-1.697-257.491z" fill="#E9E9E9" stroke="#212629" stroke-width=".5" stroke-miterlimit="10"/><path d="M26.271 279.863l39.353-3.732 27.14 7.125v-1.018l-26.122-7.464-40.37 4.241v.848z" fill="#E9E9E9" stroke="#212629" stroke-width=".5" stroke-miterlimit="10"/><path d="M68.003 276.641l41.559 124.335-16.793-117.72-24.766-6.615zm-2.376-.509l-39.353 2.883L1 400.806l64.627-124.674zm-36.471-88.035c0 .678-.339 1.187-1.017 1.187-.679 0-1.188-.339-1.188-1.018 0-.678.34-1.187 1.018-1.187.509 0 1.018.509 1.187 1.018zm63.614 1.356c0 .679-.34 1.188-1.018 1.188-.679 0-1.188-.34-1.188-1.018 0-.679.34-1.187 1.018-1.187.679 0 1.188.508 1.188 1.017zm-13.403 20.186c0 .678-.339 1.187-1.017 1.187-.679 0-1.188-.339-1.188-1.018 0-.678.34-1.187 1.018-1.187.509-.17 1.018.339 1.187 1.018z" fill="#E9E9E9" stroke="#212629" stroke-width=".5" stroke-miterlimit="10"/><path d="M41.709 309.039c0 .679-.34 1.188-1.018 1.188-.678 0-1.187-.34-1.187-1.018 0-.679.34-1.188 1.018-1.188.678 0 1.187.34 1.187 1.018zm5.431 45.799c0 .678-.34 1.187-1.018 1.187-.679 0-1.187-.339-1.187-1.018 0-.678.339-1.187 1.017-1.187.51-.17 1.188.339 1.188 1.018zm-8.821-45.459c0 .678-.34 1.187-1.018 1.187-.678 0-1.187-.339-1.187-1.018 0-.678.339-1.187 1.018-1.187.508-.17 1.017.339 1.187 1.018zm49.359-61.405c0 .678-.339 1.187-1.017 1.187-.679 0-1.188-.339-1.188-1.018 0-.678.34-1.187 1.018-1.187.678 0 1.187.509 1.187 1.018zm1.018-59.538c0 .678-.34 1.187-1.018 1.187-.678 0-1.187-.339-1.187-1.018 0-.678.339-1.187 1.017-1.187.679 0 1.188.509 1.188 1.018zM78.18 141.788c0 .679-.34 1.188-1.018 1.188-.678 0-1.187-.34-1.187-1.018 0-.679.339-1.187 1.017-1.187.679 0 1.188.508 1.188 1.017zm-18.83-12.382c0 .679-.339 1.188-1.017 1.188-.679 0-1.188-.339-1.188-1.018 0-.678.34-1.187 1.018-1.187.679 0 1.188.509 1.188 1.017zm-15.096 16.115c0 .678-.34 1.187-1.018 1.187-.679 0-1.188-.339-1.188-1.018 0-.678.34-1.187 1.018-1.187.679 0 1.188.339 1.188 1.018z" fill="#E9E9E9" stroke="#212629" stroke-width=".5" stroke-miterlimit="10"/><path d="M87.678 188.097c0 .678-.339 1.187-1.017 1.187-.679 0-1.188-.339-1.188-1.018 0-.678.34-1.187 1.018-1.187.678 0 1.187.509 1.187 1.018zm566.378 2.544l-2.205-6.107-45.968-3.901-2.036 6.446 50.209 3.562z" fill="#E9E9E9" stroke="#212629" stroke-width=".5" stroke-miterlimit="10"/><path d="M605.884 180.633l-16.793 8.311-3.053 5.428 17.81-7.293 2.036-6.446zm0 0l-6.276-9.838 60.556 6.785-8.312 6.955-45.968-3.902z" fill="#E9E9E9" stroke="#212629" stroke-width=".5" stroke-miterlimit="10"/><path d="M660.164 177.58l-5.089-33.586-55.467-9.669v36.47l60.556 6.785zm-60.558-43.255l-11.195 5.937-4.58 39.692 15.775-9.159v-36.47z" fill="#E9E9E9" stroke="#212629" stroke-width=".5" stroke-miterlimit="10"/><path d="M589.088 188.945l-6.954-8.312 17.471-9.838 6.276 9.838-16.793 8.312zm10.518-1.866l58.86 3.901 12.213 215.085H593.33l6.276-218.986z" fill="#E9E9E9" stroke="#212629" stroke-width=".5" stroke-miterlimit="10"/><path d="M599.607 187.079l-18.489 9.838-16.454 209.148h28.667l6.276-218.986zm26.292 218.986h16.623l-42.915-218.986-.679 24.765 26.971 194.221zm24.256 0l8.99-201.175 1.357 21.881-8.142 179.294h-2.205z" fill="#E9E9E9" stroke="#212629" stroke-width=".5" stroke-miterlimit="10"/><path d="M642.523 406.065h7.633l8.99-201.175-.678-13.91-58.86-3.901 42.915 218.986z" fill="#E9E9E9" stroke="#212629" stroke-width=".5" stroke-miterlimit="10"/><path d="M620.64 193.185a1.16 1.16 0 01-1.187 1.188 1.16 1.16 0 01-1.188-1.188 1.16 1.16 0 011.188-1.187c.678-.17 1.187.509 1.187 1.187zm35.791 41.898a1.16 1.16 0 01-1.188 1.187 1.16 1.16 0 01-1.187-1.187c0-.679.509-1.187 1.187-1.187.679 0 1.358.508 1.188 1.187zm-1.188-38.166a1.188 1.188 0 100-2.376 1.188 1.188 0 000 2.376zm-1.526-49.361a1.16 1.16 0 01-1.188 1.187 1.16 1.16 0 01-1.187-1.187 1.16 1.16 0 011.187-1.188 1.16 1.16 0 011.188 1.188zm-7.292 0a1.187 1.187 0 100-2.374 1.187 1.187 0 000 2.374zm-1.359-1.697a1.16 1.16 0 01-1.188 1.188 1.16 1.16 0 01-1.187-1.188 1.16 1.16 0 011.187-1.187c.679 0 1.188.678 1.188 1.187zm-40.201 148.253a1.16 1.16 0 01-1.187 1.188 1.16 1.16 0 01-1.188-1.188 1.16 1.16 0 011.188-1.187c.508 0 1.187.509 1.187 1.187z" fill="#E9E9E9" stroke="#212629" stroke-width=".5" stroke-miterlimit="10"/><path d="M606.056 294.112a1.16 1.16 0 01-1.187 1.188 1.16 1.16 0 01-1.187-1.188 1.16 1.16 0 011.187-1.187c.509 0 1.187.509 1.187 1.187zm46.474-59.199a1.16 1.16 0 01-1.188 1.187 1.16 1.16 0 01-1.187-1.187c0-.679.509-1.187 1.187-1.187a1.16 1.16 0 011.188 1.187zm-2.883 0a1.16 1.16 0 01-1.187 1.187 1.16 1.16 0 01-1.188-1.187 1.16 1.16 0 011.188-1.187c.678-.17 1.187.508 1.187 1.187zm-10.008-.34a1.16 1.16 0 01-1.187 1.188 1.16 1.16 0 01-1.188-1.188 1.16 1.16 0 011.188-1.187c.678-.17 1.187.509 1.187 1.187zM620.64 263.07a1.16 1.16 0 01-1.187 1.188 1.16 1.16 0 01-1.188-1.188 1.16 1.16 0 011.188-1.187 1.16 1.16 0 011.187 1.187zm30.194 79.725a1.16 1.16 0 01-1.187 1.187 1.16 1.16 0 01-1.188-1.187 1.16 1.16 0 011.188-1.188 1.16 1.16 0 011.187 1.188zm-5.43 0a1.16 1.16 0 01-1.188 1.187 1.16 1.16 0 01-1.187-1.187 1.16 1.16 0 011.187-1.188 1.16 1.16 0 011.188 1.188zm-2.883 0a1.16 1.16 0 01-1.187 1.187 1.16 1.16 0 01-1.188-1.187 1.16 1.16 0 011.188-1.188 1.16 1.16 0 011.187 1.188zm-33.247 46.646a1.16 1.16 0 01-1.187 1.188 1.16 1.16 0 01-1.188-1.188 1.16 1.16 0 011.188-1.187 1.16 1.16 0 011.187 1.187zm4.752-196.256a1.16 1.16 0 01-1.188 1.188 1.16 1.16 0 01-1.187-1.188 1.16 1.16 0 011.187-1.187c.509-.17 1.188.509 1.188 1.187zm44.104-29.006l-58.521-7.124-13.57 6.445-.679 2.036 14.249-7.124 58.69 6.445-.169-.678zm-33.924 148.253l30.193-.339-.17 1.866-29.515.848-.508-2.375zm13.398 68.698h13.57v2.375h-13.061l-.509-2.375zM302.255 72.92l-59.03 33.078-8.142 12.552 59.369-22.9 7.803-22.73z" fill="#E9E9E9" stroke="#212629" stroke-width=".5" stroke-miterlimit="10"/><path d="M258.155 407.761H183.52l37.996-281.238 56.315-33.417-19.676 314.655zm66.155-.17L304.803 96.329l-26.97-3.223-19.677 314.655 66.154-.17z" fill="#E9E9E9" stroke="#212629" stroke-width=".5" stroke-miterlimit="10"/><path d="M299.885 409.287c13.49 0 24.426-74.956 24.426-167.42 0-92.463-10.936-167.42-24.426-167.42-13.491 0-24.427 74.957-24.427 167.42 0 92.464 10.936 167.42 24.427 167.42z" fill="#E9E9E9" stroke="#212629" stroke-width=".5" stroke-miterlimit="10"/><path d="M302.257 407.761c13.49 0 24.426-74.957 24.426-167.42 0-92.464-10.936-167.42-24.426-167.42-13.49 0-24.426 74.956-24.426 167.42 0 92.463 10.936 167.42 24.426 167.42z" fill="#E9E9E9" stroke="#212629" stroke-width=".5" stroke-miterlimit="10"/><path d="M324.31 240.342c0 84.473-9.329 153.341-20.864 157.412-.339.169-.678.169-1.017.169-12.213 0-22.052-70.564-22.052-157.581 0-78.707 7.973-143.843 18.659-155.716 1.188-1.188 2.205-1.866 3.393-1.866 12.043 0 21.881 70.564 21.881 157.582z" fill="#E9E9E9" stroke="#212629" stroke-width=".5" stroke-miterlimit="10"/><path d="M321.936 242.038c0 78.706-7.973 143.842-18.49 155.716-.339.169-.678.169-1.017.169-12.213 0-22.052-70.564-22.052-157.581 0-78.707 7.973-143.843 18.659-155.716.339-.17.679-.17 1.018-.17 12.043 0 21.882 70.564 21.882 157.582z" fill="#E9E9E9" stroke="#212629" stroke-width=".5" stroke-miterlimit="10"/><path d="M283.597 157.055l37.996 8.82.34 1.527-38.505-8.99.169-1.357zm-3.22 62.083l43.933 9.499v1.357l-43.933-9.16v-1.696zm.506 57.503l42.576 5.597v1.357l-42.576-5.088v-1.866zm4.749 67.68l32.738 3.054-.17 1.017-32.228-2.374-.34-1.697z" fill="#E9E9E9" stroke="#212629" stroke-width=".5" stroke-miterlimit="10"/><mask id="a" style="mask-type:alpha" maskUnits="userSpaceOnUse" x="235" y="136" width="33" height="14"><path d="M266.297 140.432l-28.158 9.16c-1.017.339-2.035-.17-2.205-1.188-.339-1.018.17-2.035 1.188-2.205l28.157-9.16c1.018-.339 2.036.17 2.206 1.188.339.848-.34 1.865-1.188 2.205z" fill="url(#paint0_linear_203_14263)"/></mask><g mask="url(#a)" fill="#E9E9E9" stroke="#212629" stroke-width=".5" stroke-miterlimit="10"><path opacity=".85" d="M266.299 140.432l-28.158 9.16c-1.018.339-2.036-.17-2.205-1.188-.34-1.018.169-2.035 1.187-2.205l28.158-9.16c1.018-.339 2.035.17 2.205 1.188.339.848-.339 1.865-1.187 2.205z"/><path d="M253.405 407.591l-50.718.17h-9.16s19.507-262.75 46.477-279.203c2.375-1.527 4.58-.509 6.276 2.714 18.32 31.55 7.125 276.319 7.125 276.319z"/><path d="M253.404 407.591l-55.637.169c.169-2.714 12.382-228.145 48.512-276.489 18.32 31.551 7.125 276.32 7.125 276.32z"/></g><path d="M553.297 63.931V60.54l-29.345-22.39v8.48l29.345 17.303z" fill="#E9E9E9" stroke="#212629" stroke-width=".5" stroke-miterlimit="10"/><path d="M497.831 59.182v-8.65l26.122-12.384v8.482l-26.122 12.552z" fill="#E9E9E9" stroke="#212629" stroke-width=".5" stroke-miterlimit="10"/><path d="M489.008 408.441l4.41-168.438-4.41-2.884 1.696-86.509 2.714-.848V57.316l33.925-13.909 13.4 365.203-51.735-.169z" fill="#E9E9E9" stroke="#212629" stroke-width=".5" stroke-miterlimit="10"/><path d="M527.346 43.407l31.889 25.274 8.99 80.063-2.374.17 8.651 87.187 3.901.34 16.114 172.169h-53.771l-6.955-176.919-4.41-2.714-2.035-91.597 3.223.339-3.223-94.312z" fill="#E9E9E9" stroke="#212629" stroke-width=".5" stroke-miterlimit="10"/><path d="M529.379 228.977l-40.371 8.142 4.41 2.883 40.371-8.311-4.41-2.714zm-2.037-91.598l-36.639 11.874v1.357l36.639-12.044v-1.187z" fill="#E9E9E9" stroke="#212629" stroke-width=".5" stroke-miterlimit="10"/><path d="M533.788 231.69l44.611 4.75v1.187l-44.611-4.071v-1.866zm34.437-82.946l-2.374.169-38.505-11.534 3.223-1.696 37.656 13.061z" fill="#E9E9E9" stroke="#212629" stroke-width=".5" stroke-miterlimit="10"/><mask id="b" style="mask-type:alpha" maskUnits="userSpaceOnUse" x="532" y="174" width="34" height="9"><path d="M563.475 182.16l-29.175-4.41c-1.018-.169-1.697-1.018-1.527-2.035.17-1.018 1.018-1.697 2.036-1.527l29.175 4.41c1.018.17 1.696 1.018 1.527 2.036-.17 1.018-1.188 1.696-2.036 1.526z" fill="url(#paint1_linear_203_14263)"/></mask><g mask="url(#b)"><path opacity=".85" d="M563.472 182.16l-29.176-4.41c-1.018-.169-1.696-1.018-1.526-2.035.169-1.018 1.017-1.697 2.035-1.527l29.176 4.41c1.017.17 1.696 1.018 1.526 2.036-.169 1.018-1.187 1.696-2.035 1.526z" fill="#E9E9E9" stroke="#212629" stroke-width=".5" stroke-miterlimit="10"/></g><mask id="c" style="mask-type:alpha" maskUnits="userSpaceOnUse" x="495" y="313" width="34" height="7"><path d="M527.004 316.672l-29.515 2.545c-1.018 0-1.866-.679-1.866-1.696 0-1.018.679-1.866 1.696-1.866l29.515-2.545c1.018 0 1.866.679 1.866 1.697.17 1.017-.679 1.865-1.696 1.865z" fill="url(#paint2_linear_203_14263)"/></mask><g mask="url(#c)"><path opacity=".85" d="M527.003 316.672l-29.515 2.545c-1.018 0-1.866-.679-1.866-1.696 0-1.018.679-1.866 1.696-1.866l29.515-2.545c1.018 0 1.866.679 1.866 1.697.17 1.017-.679 1.865-1.696 1.865z" fill="#E9E9E9" stroke="#212629" stroke-width=".5" stroke-miterlimit="10"/></g><mask id="d" style="mask-type:alpha" maskUnits="userSpaceOnUse" x="539" y="241" width="34" height="6"><path d="M570.767 246.957l-29.515-1.866c-1.018 0-1.696-.848-1.696-1.865 0-1.018.848-1.697 1.866-1.697l29.514 1.866c1.018 0 1.697.848 1.697 1.866 0 1.018-.849 1.866-1.866 1.696z" fill="url(#paint3_linear_203_14263)"/></mask><g mask="url(#d)" fill="#E9E9E9" stroke="#212629" stroke-width=".5" stroke-miterlimit="10"><path opacity=".85" d="M570.766 246.957l-29.515-1.866c-1.018 0-1.696-.848-1.696-1.865 0-1.018.848-1.697 1.866-1.697l29.514 1.866c1.018 0 1.697.848 1.697 1.866 0 1.018-.849 1.866-1.866 1.696z"/><path d="M570.427 245.26c-.17.848-1.018 1.527-1.866 1.357-.848-.169-1.527-1.018-1.357-1.866.17-.848 1.018-1.526 1.866-1.357 1.018.17 1.526 1.018 1.357 1.866z"/></g><path d="M354.667 63.253l4.92-16.284S377.736 6.768 380.45 6.768c2.714 0 59.878 21.712 59.878 21.712l-85.661 34.773z" fill="#E9E9E9" stroke="#212629" stroke-width=".5" stroke-miterlimit="10"/><path d="M484.431 407.591H328.375s-6.615-93.972 16.115-179.972c26.801-101.606 30.024-136.718 31.55-211.692l69.207 13.57s32.907 131.459.17 235.439c42.236 78.537 39.014 142.655 39.014 142.655z" fill="#E9E9E9" stroke="#212629" stroke-width=".5" stroke-miterlimit="10"/><path d="M485.788 407.591h-16.115s-13.909-70.394-81.589-147.234c-34.264-38.845-45.629-80.233-47.834-113.48-2.714-38.505 6.954-66.153 6.954-66.153 9.499-22.221 14.927-31.89 29.006-64.797-.17 37.148 3.393 63.61 13.57 94.481 10.008 30.363 26.292 65.136 51.397 118.568 37.147 79.554 44.611 178.615 44.611 178.615z" fill="#E9E9E9" stroke="#212629" stroke-width=".5" stroke-miterlimit="10"/><path d="M376.379 1l-11.025 39.183 2.883-6.276 7.124-23.408L376.379 1zm5.599 0l1.017 16.284 1.188.34V1.847L381.978 1zm18.828 7.294l-.679 12.383 1.018.17 1.696-11.705-2.035-.848zm27.308 12.383l-.509 5.428.849.17 1.187-4.58-1.527-1.018zm-10.684-4.919l-2.035 7.972 1.017.17 3.054-7.803-2.036-.34zm-89.563 392.003c-.848-16.623-.848-33.077-.509-49.531.34-16.453 1.188-33.077 2.714-49.53 1.527-16.454 3.563-32.908 6.616-49.022 3.223-16.284 7.124-32.229 12.722-47.834-5.428 15.605-9.16 31.72-12.044 47.834-2.883 16.284-4.58 32.568-5.937 49.022a800.788 800.788 0 00-2.035 49.361c-.17 16.453.17 32.907 1.187 49.361l-2.714.339zM412.85 40.523c-.17.848-1.018 1.526-1.866 1.357-.848-.17-1.526-1.018-1.357-1.866.17-.848 1.018-1.527 1.866-1.357.848 0 1.527.848 1.357 1.866zm26.968 61.234c-.169.848-1.017 1.527-1.865 1.357-.849-.169-1.527-1.017-1.357-1.866.169-.848 1.017-1.526 1.865-1.357.849.17 1.357 1.018 1.357 1.866zm-27.48-3.731c-.169.848-1.017 1.526-1.865 1.357-.849-.17-1.527-1.018-1.357-1.866.169-.848 1.017-1.527 1.865-1.357 1.018.17 1.527 1.018 1.357 1.866zm-11.873 12.552c-.169.848-1.017 1.526-1.866 1.357-.848-.17-1.526-1.018-1.357-1.866.17-.848 1.018-1.527 1.866-1.357.848.169 1.357 1.017 1.357 1.866zm-25.609-40.54c-.169.848-1.017 1.526-1.865 1.357-.849-.17-1.527-1.018-1.357-1.866.169-.849 1.017-1.527 1.865-1.357.849.17 1.527.848 1.357 1.866zm71.071 43.762c-.169.848-1.018 1.527-1.866 1.357-.848-.169-1.526-1.017-1.357-1.866.17-.848 1.018-1.526 1.866-1.357.848.17 1.357 1.018 1.357 1.866zm2.375-42.236c-.17.848-1.018 1.527-1.866 1.357-.848-.17-1.527-1.018-1.357-1.866.17-.848 1.018-1.527 1.866-1.357 1.018.17 1.526 1.018 1.357 1.866zm-4.747-25.784c-.17.849-1.018 1.527-1.866 1.358-.848-.17-1.527-1.018-1.357-1.866.169-.848 1.018-1.527 1.866-1.357.848.17 1.526 1.018 1.357 1.866zm-2.207 25.106c-.17.848-1.018 1.527-1.866 1.357-.848-.17-1.527-1.018-1.357-1.866.169-.848 1.018-1.526 1.866-1.357 1.017.17 1.526 1.018 1.357 1.866z" fill="#E9E9E9" stroke="#212629" stroke-width=".5" stroke-miterlimit="10"/><path d="M411.831 40.353c-.17.848-1.018 1.527-1.866 1.357-.848-.17-1.527-1.018-1.357-1.866.169-.848 1.017-1.526 1.866-1.357 1.017.17 1.526 1.018 1.357 1.866zm-26.152 4.879a1.696 1.696 0 10-3.167-1.215 1.696 1.696 0 003.167 1.215zm4.61 17.512c-.17.848-1.018 1.526-1.866 1.357-.848-.17-1.526-1.018-1.357-1.866.17-.848 1.018-1.527 1.866-1.357.848.17 1.527 1.017 1.357 1.866zm-12.553 162.5c.169.849-.509 1.697-1.527 1.866-.848.17-1.696-.509-1.866-1.526-.169-.848.509-1.697 1.527-1.866 1.018 0 1.866.678 1.866 1.526zm-5.089-31.719c.17.848-.509 1.696-1.527 1.866-.848.169-1.696-.509-1.866-1.527-.169-.848.509-1.696 1.527-1.866 1.018 0 1.866.679 1.866 1.527zm59.538 55.976c0 .848-.679 1.696-1.696 1.696-.848 0-1.697-.678-1.697-1.696 0-.848.679-1.696 1.697-1.696.848 0 1.696.678 1.696 1.696zm7.636 63.439c0 .849-.679 1.697-1.697 1.697-.848 0-1.696-.679-1.696-1.697 0-.848.679-1.696 1.696-1.696 1.018 0 1.697.679 1.697 1.696zm-44.103 24.936c0 .848-.678 1.696-1.696 1.696-.848 0-1.696-.678-1.696-1.696 0-1.018.678-1.696 1.696-1.696.848.169 1.696.848 1.696 1.696zm60.727-24.936c0 .849-.678 1.697-1.696 1.697-.848 0-1.696-.679-1.696-1.697 0-.848.678-1.696 1.696-1.696 1.018 0 1.696.679 1.696 1.696z" fill="#E9E9E9" stroke="#212629" stroke-width=".5" stroke-miterlimit="10"/><path d="M458.138 312.94c0 .849-.678 1.697-1.696 1.697-.848 0-1.696-.679-1.696-1.697 0-.848.678-1.696 1.696-1.696 1.018 0 1.696.679 1.696 1.696zm-107.2 59.2c0 .848-.678 1.696-1.696 1.696-1.018 0-1.696-.679-1.696-1.696 0-.849.678-1.697 1.696-1.697 1.018 0 1.696.679 1.696 1.697zm8.651-57.672c0 .848-.678 1.696-1.696 1.696-.848 0-1.696-.679-1.696-1.696 0-.848.678-1.697 1.696-1.697 1.018.17 1.696.849 1.696 1.697zm19.845-37.319c0 .849-.679 1.697-1.697 1.697-.848 0-1.696-.679-1.696-1.697 0-.848.679-1.696 1.696-1.696 1.018 0 1.697.848 1.697 1.696zm38.166 60.557c0 .848-.679 1.696-1.697 1.696-.848 0-1.696-.678-1.696-1.696 0-.848.679-1.696 1.696-1.696 1.018.169 1.697.848 1.697 1.696zm29.345-60.895c0 .848-.679 1.696-1.697 1.696-.848 0-1.696-.679-1.696-1.696 0-.849.679-1.697 1.696-1.697 1.018 0 1.697.848 1.697 1.697zm-41.048-152.663c-.17.848-1.018 1.527-1.866 1.357-.848-.17-1.527-1.018-1.357-1.866.169-.848 1.017-1.527 1.866-1.357.848.17 1.357 1.018 1.357 1.866zm-4.412 31.55c-.17.848-1.018 1.526-1.866 1.357-.848-.17-1.527-1.018-1.357-1.866.17-.848 1.018-1.527 1.866-1.357.848 0 1.526.848 1.357 1.866z" fill="#E9E9E9" stroke="#212629" stroke-width=".5" stroke-miterlimit="10"/><path d="M398.768 156.546c-.17.848-1.018 1.527-1.866 1.357-.848-.169-1.526-1.017-1.357-1.866.17-.848 1.018-1.526 1.866-1.357.848.17 1.527 1.018 1.357 1.866zm-12.718 4.919c-.17.848-1.018 1.527-1.866 1.357-.848-.169-1.527-1.017-1.357-1.866.17-.848 1.018-1.526 1.866-1.357 1.018.17 1.526 1.018 1.357 1.866z" fill="#E9E9E9" stroke="#212629" stroke-width=".5" stroke-miterlimit="10"/><path d="M384.013 162.144c-.17.848-1.018 1.527-1.866 1.357-.848-.17-1.527-1.018-1.357-1.866.169-.848 1.018-1.527 1.866-1.357 1.017.17 1.526 1.018 1.357 1.866zm33.415-36.809c-.17.849-1.018 1.527-1.866 1.357-.848-.169-1.527-1.017-1.357-1.865.17-.849 1.018-1.527 1.866-1.357.848.169 1.357 1.017 1.357 1.865zm24.597 16.623c-.169.849-1.017 1.527-1.865 1.357-.849-.169-1.527-1.017-1.357-1.865.169-.849 1.017-1.527 1.865-1.357.848 0 1.527.848 1.357 1.865zm1.697 64.797c-.169.848-1.018 1.527-1.866 1.357-.848-.169-1.526-1.017-1.357-1.866.17-.848 1.018-1.526 1.866-1.357.848.17 1.527 1.018 1.357 1.866zM353.48 97.008c-.169.848-1.017 1.527-1.865 1.357-.849-.17-1.527-1.017-1.357-1.866.169-.848 1.017-1.526 1.865-1.357.849.17 1.357 1.018 1.357 1.866z" fill="#E9E9E9" stroke="#212629" stroke-width=".5" stroke-miterlimit="10"/><mask id="e" style="mask-type:alpha" maskUnits="userSpaceOnUse" x="379" y="230" width="50" height="7"><path d="M427.268 233.895L381.3 236.44c-1.018 0-1.866-.679-1.866-1.697 0-1.017.679-1.866 1.696-1.866l45.969-2.544c1.018 0 1.866.679 1.866 1.696 0 1.018-.679 1.866-1.697 1.866z" fill="url(#paint4_linear_203_14263)"/></mask><g mask="url(#e)"><path opacity=".85" d="M427.269 233.895l-45.968 2.545c-1.018 0-1.866-.679-1.866-1.697 0-1.017.679-1.866 1.696-1.866l45.969-2.544c1.017 0 1.866.679 1.866 1.696 0 1.018-.679 1.866-1.697 1.866z" fill="#E9E9E9" stroke="#212629" stroke-width=".5" stroke-miterlimit="10"/></g><mask id="f" style="mask-type:alpha" maskUnits="userSpaceOnUse" x="400" y="146" width="51" height="10"><path d="M448.135 155.02l-45.799-4.58c-1.017-.17-1.696-1.018-1.526-2.036.169-1.018 1.017-1.696 2.035-1.526l45.799 4.579c1.018.17 1.696 1.018 1.527 2.036-.17.848-1.018 1.527-2.036 1.527z" fill="url(#paint5_linear_203_14263)"/></mask><g mask="url(#f)" fill="#E9E9E9" stroke="#212629" stroke-width=".5" stroke-miterlimit="10"><path opacity=".85" d="M448.134 155.02l-45.799-4.58c-1.018-.17-1.696-1.018-1.527-2.036.17-1.018 1.018-1.696 2.036-1.526l45.798 4.579c1.018.17 1.697 1.018 1.527 2.036-.17.848-1.018 1.527-2.035 1.527z"/><path d="M340.932 162.144l55.637-32.229 63.948 7.464-63.439-4.92-56.146 29.685z"/><path d="M485.788 407.591c-1.696-20.864-4.919-41.558-8.821-62.082-2.035-10.348-4.24-20.525-6.785-30.703-2.544-10.177-5.258-20.185-8.311-30.193-6.107-20.016-13.57-39.523-22.9-58.181-2.374-4.58-4.749-9.16-7.293-13.91-2.545-4.579-4.92-9.329-7.294-13.909-4.75-9.329-9.499-18.659-13.91-28.158-8.82-18.998-16.792-38.505-23.238-58.351a320.873 320.873 0 01-8.142-30.363c-2.205-10.347-3.902-20.694-4.919-31.21-1.018-10.517-1.188-21.034-.679-31.55.17-2.545.339-5.26.509-7.804l.339-3.901.509-3.901.17-2.036V.83c0-.339.169-.678.339-.848.339-.678 1.018-1.018 1.357-1.187 1.018-.34 1.696-.34 2.375-.17.678 0 1.357.17 2.035.34 2.714.508 5.259 1.356 7.633 2.374 9.839 3.732 19.338 8.312 28.667 12.892s18.659 9.499 27.819 14.587l.339.17.169.509a664.828 664.828 0 018.142 45.29 681.378 681.378 0 015.089 45.629c.509 7.633 1.018 15.266 1.188 22.899.169 7.633.339 15.267.169 22.9-.169 7.633-.509 15.266-1.187 22.899-.679 7.633-1.696 15.266-2.884 22.73 1.188-7.633 2.036-15.097 2.545-22.73.508-7.633.848-15.266.848-22.899a516.09 516.09 0 00-2.036-45.799c-1.357-15.266-3.223-30.363-5.428-45.46-2.375-15.096-5.089-30.193-8.481-44.95l.509.678c-9.16-4.919-18.489-9.668-27.819-14.248-9.329-4.58-18.828-9.16-28.497-12.722-2.374-.848-4.919-1.696-7.294-2.205-.678-.17-1.187-.17-1.865-.17-.509 0-1.188 0-1.357.17-.17 0-.17.17-.17 0v.509l-.17 1.865-.509 3.902v3.562c-.339 2.544-.339 5.258-.508 7.803-.509 10.347-.17 20.864.848 31.21 2.035 20.695 6.615 41.22 12.891 61.066 6.276 19.846 14.249 39.183 22.9 58.181 4.41 9.499 8.99 18.829 13.739 28.158 4.75 9.329 9.838 18.489 14.418 27.819 9.33 18.828 16.454 38.674 22.56 58.69a470.15 470.15 0 018.142 30.363c2.375 10.177 4.411 20.524 6.277 30.702 3.731 20.694 6.445 41.388 7.972 62.252zM347.037 80.894c-1.188 3.562-2.036 7.293-2.714 11.025-.849 3.732-1.357 7.464-1.866 11.195-1.018 7.464-1.697 14.927-1.866 22.561-.17 7.463 0 15.096.509 22.56.339 3.731.678 7.463 1.187 11.195.679 3.732 1.187 7.463 1.866 11.026.678 3.731 1.696 7.293 2.544 11.025 1.018 3.562 2.036 7.294 3.223 10.856 2.205 7.125 5.089 14.079 8.312 20.864 6.446 13.57 14.418 26.292 23.747 38.166l7.125 8.651 7.293 8.651c4.92 5.767 9.499 11.873 14.079 17.81 8.821 12.213 17.472 24.765 24.935 37.827 7.464 13.061 14.418 26.631 20.186 40.54 2.883 6.955 5.597 14.079 7.972 21.203 2.375 7.124 4.58 14.418 6.107 21.882-1.866-7.294-4.071-14.418-6.616-21.543-2.544-7.124-5.428-14.078-8.481-20.863-6.107-13.74-13.061-27.141-20.864-40.032-7.633-12.892-16.114-25.444-25.105-37.487-4.579-5.937-9.159-12.044-14.078-17.641l-7.294-8.651c-2.375-2.884-4.919-5.767-7.294-8.821-9.33-11.873-17.302-24.934-23.748-38.674-3.053-6.955-5.937-13.909-8.311-21.203-1.188-3.562-2.205-7.294-3.223-10.856-.848-3.732-1.696-7.464-2.375-11.196-.678-3.731-1.187-7.463-1.696-11.195-.339-3.732-.848-7.463-1.018-11.365-.509-7.633-.509-15.096-.17-22.729a167.07 167.07 0 012.545-22.561c.848-7.802 2.544-15.096 5.089-22.22z"/></g><mask id="g" style="mask-type:alpha" maskUnits="userSpaceOnUse" x="532" y="158" width="63" height="251"><path d="M540.746 408.609l-8.142-250.367 45.799 9.16 16.114 241.207h-53.771z" fill="url(#paint6_linear_203_14263)"/></mask><g mask="url(#g)" fill="#E9E9E9" stroke="#212629" stroke-width=".5" stroke-miterlimit="10"><path d="M540.747 408.609l-8.142-250.367 45.799 9.16 16.114 241.207h-53.771z"/><path d="M537.696 370.275v-5.598l14.418-1.018 4.411 7.464-18.829-.848z"/><path d="M583.153 369.595l-5.597-6.954-25.444 1.017 4.41 7.464 26.631-1.527z"/><path d="M553.979 370.274l30.533-1.696 36.13 58.012-42.407-.339-24.256-55.977z"/><path d="M553.98 370.273h-20.355l.169 56.316 44.442-.339-24.256-55.977z"/><path d="M562.799 426.589l-49.53-128.067h-32.908l46.647 128.067h35.791zm9.198-46.307a1.695 1.695 0 10-3.2-1.124 1.696 1.696 0 103.2 1.124z"/><path d="M573.826 379.943c-.17.848-1.018 1.526-1.866 1.357-.848-.17-1.527-1.018-1.357-1.866.169-.848 1.018-1.527 1.866-1.357.848.17 1.357 1.018 1.357 1.866zm-20.15.237a1.697 1.697 0 10-3.225-1.057 1.697 1.697 0 003.225 1.057zm33.552-.237c-.17.848-1.018 1.526-1.866 1.357-.848-.17-1.526-1.018-1.357-1.866.17-.848 1.018-1.527 1.866-1.357 1.018.17 1.527 1.018 1.357 1.866z"/></g><defs><linearGradient id="paint0_linear_203_14263" x1="235.629" y1="147.462" x2="267.698" y2="139.084" gradientUnits="userSpaceOnUse"><stop/><stop offset="1" stop-color="#fff"/></linearGradient><linearGradient id="paint1_linear_203_14263" x1="532.84" y1="174.767" x2="565.262" y2="181.648" gradientUnits="userSpaceOnUse"><stop/><stop offset="1" stop-color="#fff"/></linearGradient><linearGradient id="paint2_linear_203_14263" x1="495.61" y1="316.629" x2="528.743" y2="315.734" gradientUnits="userSpaceOnUse"><stop/><stop offset="1" stop-color="#fff"/></linearGradient><linearGradient id="paint3_linear_203_14263" x1="539.636" y1="242.26" x2="572.534" y2="246.291" gradientUnits="userSpaceOnUse"><stop/><stop offset="1" stop-color="#fff"/></linearGradient><linearGradient id="paint4_linear_203_14263" x1="379.428" y1="233.84" x2="428.868" y2="235.282" gradientUnits="userSpaceOnUse"><stop/><stop offset="1" stop-color="#fff"/></linearGradient><linearGradient id="paint5_linear_203_14263" x1="400.843" y1="147.527" x2="449.464" y2="156.609" gradientUnits="userSpaceOnUse"><stop/><stop offset="1" stop-color="#fff"/></linearGradient><linearGradient id="paint6_linear_203_14263" x1="563.535" y1="408.673" x2="563.535" y2="158.21" gradientUnits="userSpaceOnUse"><stop stop-color="#fff"/><stop offset="1"/></linearGradient></defs></svg>