<svg width="740" height="393" viewBox="0 0 740 393" fill="none" xmlns="http://www.w3.org/2000/svg">
<path d="M660.161 135.173L661.348 115.157L694.595 104.132V131.441L660.161 135.173Z" fill="#E9E9E9" stroke="#212629" stroke-width="0.5" stroke-miterlimit="10"/>
<path d="M694.598 430.999L688.322 129.066L655.923 136.021L646.085 430.999H694.598Z" fill="#E9E9E9" stroke="#212629" stroke-width="0.5" stroke-miterlimit="10"/>
<path d="M680.858 213.54L656.263 217.611C656.263 217.611 633.024 235.591 626.409 270.364L613.008 430.999H645.916L680.858 213.54Z" fill="#E9E9E9" stroke="#212629" stroke-width="0.5" stroke-miterlimit="10"/>
<path d="M659.486 217.611L680.689 214.049L680.858 213.54L656.263 217.611C656.263 217.611 633.024 235.591 626.409 270.364L613.008 430.999H616.231L629.632 270.364C636.247 235.591 659.486 217.611 659.486 217.611Z" fill="#E9E9E9" stroke="#212629" stroke-width="0.5" stroke-miterlimit="10"/>
<path d="M678.314 213.54H680.858L687.643 430.999H643.541L646.594 275.623C646.424 275.623 650.326 231.011 678.314 213.54Z" fill="#E9E9E9" stroke="#212629" stroke-width="0.5" stroke-miterlimit="10"/>
<path d="M680.858 213.54L690.187 430.999H646.085L649.138 275.623C649.138 275.623 652.87 231.011 680.858 213.54Z" fill="#E9E9E9" stroke="#212629" stroke-width="0.5" stroke-miterlimit="10"/>
<path d="M688.325 129.066L719.536 133.477L738.873 429.473L694.601 430.999L688.325 129.066Z" fill="#E9E9E9" stroke="#212629" stroke-width="0.5" stroke-miterlimit="10"/>
<path d="M694.597 104.132L708.506 107.185L710.203 132.12L694.597 129.915V104.132Z" fill="#E9E9E9" stroke="#212629" stroke-width="0.5" stroke-miterlimit="10"/>
<path d="M720.717 214.218C720.717 214.897 720.039 215.575 719.36 215.575C718.682 215.575 718.003 214.897 718.003 214.218C718.003 213.54 718.682 212.861 719.36 212.861C720.209 212.861 720.717 213.54 720.717 214.218Z" fill="#E9E9E9" stroke="#212629" stroke-width="0.5" stroke-miterlimit="10"/>
<path d="M724.449 324.475C724.449 325.154 723.771 325.832 723.092 325.832C722.414 325.832 721.735 325.154 721.735 324.475C721.735 323.797 722.414 323.118 723.092 323.118C723.94 323.118 724.449 323.797 724.449 324.475Z" fill="#E9E9E9" stroke="#212629" stroke-width="0.5" stroke-miterlimit="10"/>
<path d="M678.482 324.475C678.482 325.154 677.804 325.832 677.125 325.832C676.447 325.832 675.768 325.154 675.768 324.475C675.768 323.797 676.447 323.118 677.125 323.118C677.973 323.118 678.652 323.797 678.482 324.475Z" fill="#E9E9E9" stroke="#212629" stroke-width="0.5" stroke-miterlimit="10"/>
<path d="M699.86 340.25C699.86 340.928 699.181 341.607 698.502 341.607C697.824 341.607 697.146 340.928 697.146 340.25C697.146 339.571 697.824 338.893 698.502 338.893C699.351 338.893 699.86 339.571 699.86 340.25Z" fill="#E9E9E9" stroke="#212629" stroke-width="0.5" stroke-miterlimit="10"/>
<path d="M729.031 376.719C729.031 377.398 728.352 378.076 727.674 378.076C726.995 378.076 726.317 377.398 726.317 376.719C726.317 376.041 726.995 375.362 727.674 375.362C728.522 375.362 729.031 376.041 729.031 376.719Z" fill="#E9E9E9" stroke="#212629" stroke-width="0.5" stroke-miterlimit="10"/>
<path d="M724.623 251.197C724.623 251.875 723.945 252.554 723.266 252.554C722.588 252.554 721.909 251.875 721.909 251.197C721.909 250.518 722.588 249.84 723.266 249.84C724.114 249.84 724.623 250.518 724.623 251.197Z" fill="#E9E9E9" stroke="#212629" stroke-width="0.5" stroke-miterlimit="10"/>
<path d="M695.954 152.814C695.954 153.493 695.275 154.171 694.597 154.171C693.918 154.171 693.24 153.493 693.24 152.814C693.24 152.136 693.918 151.457 694.597 151.457C695.275 151.457 695.954 152.136 695.954 152.814Z" fill="#E9E9E9" stroke="#212629" stroke-width="0.5" stroke-miterlimit="10"/>
<path d="M676.11 154.171C676.11 154.85 675.431 155.528 674.752 155.528C674.074 155.528 673.396 154.85 673.396 154.171C673.396 153.493 674.074 152.814 674.752 152.814C675.601 152.814 676.11 153.493 676.11 154.171Z" fill="#E9E9E9" stroke="#212629" stroke-width="0.5" stroke-miterlimit="10"/>
<path d="M697.143 152.814C697.143 153.493 696.465 154.171 695.786 154.171C695.108 154.171 694.429 153.493 694.429 152.814C694.429 152.136 695.108 151.457 695.786 151.457C696.634 151.457 697.313 152.136 697.143 152.814Z" fill="#E9E9E9" stroke="#212629" stroke-width="0.5" stroke-miterlimit="10"/>
<path d="M674.752 154.171C674.752 154.85 674.074 155.528 673.395 155.528C672.717 155.528 672.038 154.85 672.038 154.171C672.038 153.493 672.717 152.814 673.395 152.814C674.243 152.814 674.922 153.493 674.752 154.171Z" fill="#E9E9E9" stroke="#212629" stroke-width="0.5" stroke-miterlimit="10"/>
<path d="M716.476 214.218C716.476 214.897 715.797 215.575 715.119 215.575C714.44 215.575 713.762 214.897 713.762 214.218C713.762 213.54 714.44 212.861 715.119 212.861C715.797 212.861 716.476 213.54 716.476 214.218Z" fill="#E9E9E9" stroke="#212629" stroke-width="0.5" stroke-miterlimit="10"/>
<path d="M723.266 251.197C723.266 251.875 722.588 252.554 721.909 252.554C721.231 252.554 720.552 251.875 720.552 251.197C720.552 250.518 721.231 249.84 721.909 249.84C722.757 249.84 723.266 250.518 723.266 251.197Z" fill="#E9E9E9" stroke="#212629" stroke-width="0.5" stroke-miterlimit="10"/>
<path d="M724.449 290.38C724.449 291.059 723.771 291.737 723.092 291.737C722.414 291.737 721.735 291.059 721.735 290.38C721.735 289.702 722.414 289.023 723.092 289.023C723.94 289.023 724.449 289.702 724.449 290.38Z" fill="#E9E9E9" stroke="#212629" stroke-width="0.5" stroke-miterlimit="10"/>
<path d="M697.143 289.023C697.143 289.702 696.465 290.38 695.786 290.38C695.108 290.38 694.429 289.702 694.429 289.023C694.429 288.345 695.108 287.666 695.786 287.666C696.634 287.666 697.313 288.345 697.143 289.023Z" fill="#E9E9E9" stroke="#212629" stroke-width="0.5" stroke-miterlimit="10"/>
<path d="M699.86 289.023C699.86 289.702 699.181 290.38 698.502 290.38C697.824 290.38 697.146 289.702 697.146 289.023C697.146 288.345 697.824 287.666 698.502 287.666C699.351 287.666 699.86 288.345 699.86 289.023Z" fill="#E9E9E9" stroke="#212629" stroke-width="0.5" stroke-miterlimit="10"/>
<path d="M730.388 361.284C730.388 361.962 729.709 362.641 729.031 362.641C728.352 362.641 727.674 361.962 727.674 361.284C727.674 360.605 728.352 359.927 729.031 359.927C729.709 359.927 730.388 360.605 730.388 361.284Z" fill="#E9E9E9" stroke="#212629" stroke-width="0.5" stroke-miterlimit="10"/>
<path d="M679.839 289.023C679.839 289.702 679.16 290.38 678.482 290.38C677.803 290.38 677.125 289.702 677.125 289.023C677.125 288.345 677.803 287.666 678.482 287.666C679.33 287.666 679.839 288.345 679.839 289.023Z" fill="#E9E9E9" stroke="#212629" stroke-width="0.5" stroke-miterlimit="10"/>
<path d="M711.563 289.023C711.563 289.702 710.885 290.38 710.206 290.38C709.528 290.38 708.849 289.702 708.849 289.023C708.849 288.345 709.528 287.666 710.206 287.666C710.885 287.666 711.563 288.345 711.563 289.023Z" fill="#E9E9E9" stroke="#212629" stroke-width="0.5" stroke-miterlimit="10"/>
<path d="M666.949 289.023C666.949 289.702 666.27 290.38 665.592 290.38C664.913 290.38 664.235 289.702 664.235 289.023C664.235 288.345 664.913 287.666 665.592 287.666C666.27 287.666 666.949 288.345 666.949 289.023Z" fill="#E9E9E9" stroke="#212629" stroke-width="0.5" stroke-miterlimit="10"/>
<path d="M711.897 252.214C711.897 252.893 711.218 253.571 710.54 253.571C709.861 253.571 709.183 252.893 709.183 252.214C709.183 251.536 709.861 250.857 710.54 250.857C711.388 250.857 711.897 251.536 711.897 252.214Z" fill="#E9E9E9" stroke="#212629" stroke-width="0.5" stroke-miterlimit="10"/>
<path d="M666.949 252.214C666.949 252.893 666.27 253.571 665.592 253.571C664.913 253.571 664.235 252.893 664.235 252.214C664.235 251.536 664.913 250.857 665.592 250.857C666.27 250.857 666.949 251.536 666.949 252.214Z" fill="#E9E9E9" stroke="#212629" stroke-width="0.5" stroke-miterlimit="10"/>
<path d="M688.325 129.066L691.378 129.406L700.368 430.83L694.601 430.999L688.325 129.066Z" fill="#E9E9E9" stroke="#212629" stroke-width="0.5" stroke-miterlimit="10"/>
<path d="M688.325 129.066L685.95 129.406L692.057 430.999H694.601L688.325 129.066Z" fill="#E9E9E9" stroke="#212629" stroke-width="0.5" stroke-miterlimit="10"/>
<path d="M716.48 132.968L735.479 429.133L738.871 429.472L719.534 133.477L716.48 132.968Z" fill="#E9E9E9" stroke="#212629" stroke-width="0.5" stroke-miterlimit="10"/>
<path d="M200.654 81.742L195.395 59.3515L189.628 57.6553L188.78 79.3673L200.654 81.742Z" fill="#E9E9E9" stroke="#212629" stroke-width="0.5" stroke-miterlimit="10"/>
<path d="M189.625 57.6553L148.236 63.2529L141.451 85.4738L188.777 79.3673L189.625 57.6553Z" fill="#E9E9E9" stroke="#212629" stroke-width="0.5" stroke-miterlimit="10"/>
<path d="M188.777 399.62L186.063 78.8584L204.891 82.5902L215.069 399.111L188.777 399.62Z" fill="#E9E9E9" stroke="#212629" stroke-width="0.5" stroke-miterlimit="10"/>
<path d="M186.063 78.8584L137.889 85.9827V398.432L188.777 399.62L186.063 78.8584Z" fill="#E9E9E9" stroke="#212629" stroke-width="0.5" stroke-miterlimit="10"/>
<path d="M137.889 219.647L186.741 158.243L208.962 210.997L212.524 317.352L188.777 399.62L137.889 313.45V219.647Z" fill="#E9E9E9" stroke="#212629" stroke-width="0.5" stroke-miterlimit="10"/>
<path d="M186.741 158.243L188.777 399.62L137.889 313.45V219.647L186.741 158.243Z" fill="#E9E9E9" stroke="#212629" stroke-width="0.5" stroke-miterlimit="10"/>
<path d="M148.235 63.2532L158.243 53.0757L183.178 48.3262L189.623 57.6556L148.235 63.2532Z" fill="#E9E9E9" stroke="#212629" stroke-width="0.5" stroke-miterlimit="10"/>
<path d="M195.39 59.3518L183.177 48.3262L189.623 57.6556L195.39 59.3518Z" fill="#E9E9E9" stroke="#212629" stroke-width="0.5" stroke-miterlimit="10"/>
<path d="M186.401 114.48L207.604 166.386L208.113 185.045L186.571 137.549L186.401 114.48Z" fill="#E9E9E9" stroke="#212629" stroke-width="0.5" stroke-miterlimit="10"/>
<path d="M186.402 114.48L137.889 180.125V194.204L186.572 137.549L186.402 114.48Z" fill="#E9E9E9" stroke="#212629" stroke-width="0.5" stroke-miterlimit="10"/>
<path d="M137.889 219.647V226.263L186.911 166.385L209.132 214.389L208.962 210.997L186.741 158.243L137.889 219.647Z" fill="#E9E9E9" stroke="#212629" stroke-width="0.5" stroke-miterlimit="10"/>
<path d="M137.889 313.45V310.228L189.455 390.121L212.355 315.147L212.524 320.405L188.777 399.62L137.889 313.45Z" fill="#E9E9E9" stroke="#212629" stroke-width="0.5" stroke-miterlimit="10"/>
<path d="M207.605 166.386V168.93L186.402 119.06L137.889 182.67V180.125L186.402 114.48L207.605 166.386Z" fill="#E9E9E9" stroke="#212629" stroke-width="0.5" stroke-miterlimit="10"/>
<path d="M149.764 92.7684C149.933 93.4469 149.424 94.1254 148.576 94.2951C147.898 94.4647 147.219 93.9558 147.05 93.1077C146.88 92.4292 147.389 91.7507 148.237 91.5811C149.085 91.5811 149.594 92.0899 149.764 92.7684Z" fill="#E9E9E9" stroke="#212629" stroke-width="0.5" stroke-miterlimit="10"/>
<path d="M151.121 92.5985C151.29 93.277 150.781 93.9555 149.933 94.1251C149.255 94.2948 148.576 93.7859 148.407 92.9378C148.237 92.2593 148.746 91.5808 149.594 91.4111C150.272 91.4111 150.951 91.92 151.121 92.5985Z" fill="#E9E9E9" stroke="#212629" stroke-width="0.5" stroke-miterlimit="10"/>
<path d="M194.713 116.855C194.883 117.533 194.374 118.212 193.526 118.381C192.847 118.551 192.169 118.042 191.999 117.194C191.83 116.515 192.339 115.837 193.187 115.667C193.865 115.498 194.544 116.007 194.713 116.855Z" fill="#E9E9E9" stroke="#212629" stroke-width="0.5" stroke-miterlimit="10"/>
<path d="M169.101 89.5448C169.27 90.2233 168.761 90.9018 167.913 91.0714C167.235 91.241 166.556 90.7322 166.387 89.884C166.217 89.2055 166.726 88.527 167.574 88.3574C168.252 88.3574 168.931 88.8663 169.101 89.5448Z" fill="#E9E9E9" stroke="#212629" stroke-width="0.5" stroke-miterlimit="10"/>
<path d="M203.192 94.2948C203.362 94.9733 202.853 95.6518 202.005 95.8214C201.326 95.991 200.648 95.4822 200.478 94.6341C200.309 93.9556 200.818 93.277 201.666 93.1074C202.514 93.1074 203.192 93.6163 203.192 94.2948Z" fill="#E9E9E9" stroke="#212629" stroke-width="0.5" stroke-miterlimit="10"/>
<path d="M204.55 118.042C204.719 118.72 204.21 119.399 203.362 119.568C202.684 119.738 202.005 119.229 201.836 118.381C201.666 117.703 202.175 117.024 203.023 116.854C203.702 116.854 204.38 117.363 204.55 118.042Z" fill="#E9E9E9" stroke="#212629" stroke-width="0.5" stroke-miterlimit="10"/>
<path d="M205.909 224.567C206.079 225.245 205.57 225.924 204.722 226.093C204.043 226.263 203.365 225.754 203.195 224.906C203.025 224.227 203.534 223.549 204.382 223.379C205.061 223.21 205.739 223.718 205.909 224.567Z" fill="#E9E9E9" stroke="#212629" stroke-width="0.5" stroke-miterlimit="10"/>
<path d="M166.726 212.693C166.726 213.372 166.217 214.05 165.539 214.05C164.86 214.05 164.182 213.541 164.182 212.863C164.182 212.184 164.691 211.506 165.369 211.506C166.048 211.506 166.726 212.015 166.726 212.693Z" fill="#E9E9E9" stroke="#212629" stroke-width="0.5" stroke-miterlimit="10"/>
<path d="M197.256 258.661C197.256 259.34 196.747 260.018 196.069 260.018C195.39 260.018 194.712 259.509 194.712 258.831C194.712 258.152 195.221 257.474 195.899 257.474C196.578 257.474 197.256 257.983 197.256 258.661Z" fill="#E9E9E9" stroke="#212629" stroke-width="0.5" stroke-miterlimit="10"/>
<path d="M167.574 303.442C167.574 304.121 167.065 304.799 166.386 304.799C165.708 304.799 165.029 304.29 165.029 303.612C165.029 302.933 165.538 302.255 166.217 302.255C166.895 302.085 167.574 302.764 167.574 303.442Z" fill="#E9E9E9" stroke="#212629" stroke-width="0.5" stroke-miterlimit="10"/>
<path d="M162.995 246.278C162.995 246.957 162.486 247.635 161.807 247.635C161.129 247.635 160.45 247.127 160.45 246.448C160.45 245.77 160.959 245.091 161.638 245.091C162.316 244.921 162.995 245.43 162.995 246.278Z" fill="#E9E9E9" stroke="#212629" stroke-width="0.5" stroke-miterlimit="10"/>
<path d="M143.148 343.134C143.148 343.813 142.639 344.491 141.791 344.491C141.112 344.491 140.434 343.982 140.434 343.134C140.434 342.456 140.942 341.777 141.791 341.777C142.469 341.947 143.148 342.456 143.148 343.134Z" fill="#E9E9E9" stroke="#212629" stroke-width="0.5" stroke-miterlimit="10"/>
<path d="M148.574 343.134C148.574 343.813 148.065 344.491 147.217 344.491C146.539 344.491 145.86 343.982 145.86 343.134C145.86 342.456 146.369 341.777 147.217 341.777C148.065 341.947 148.574 342.456 148.574 343.134Z" fill="#E9E9E9" stroke="#212629" stroke-width="0.5" stroke-miterlimit="10"/>
<path d="M148.577 344.491C149.326 344.491 149.934 343.884 149.934 343.134C149.934 342.385 149.326 341.777 148.577 341.777C147.827 341.777 147.22 342.385 147.22 343.134C147.22 343.884 147.827 344.491 148.577 344.491Z" fill="#E9E9E9" stroke="#212629" stroke-width="0.5" stroke-miterlimit="10"/>
<path d="M148.406 119.229C148.576 119.908 147.898 120.586 147.219 120.756C146.541 120.756 145.862 120.247 145.692 119.569C145.523 118.89 146.201 118.212 146.88 118.042C147.728 118.042 148.406 118.551 148.406 119.229Z" fill="#E9E9E9" stroke="#212629" stroke-width="0.5" stroke-miterlimit="10"/>
<path d="M149.762 119.06C149.762 119.738 149.253 120.417 148.574 120.586C147.896 120.756 147.217 120.077 147.048 119.399C147.048 118.72 147.557 118.042 148.235 117.872C148.914 117.703 149.592 118.212 149.762 119.06Z" fill="#E9E9E9" stroke="#212629" stroke-width="0.5" stroke-miterlimit="10"/>
<path d="M152.308 144.334C152.478 145.013 151.799 145.691 151.121 145.861C150.442 145.861 149.764 145.352 149.594 144.673C149.594 143.995 150.103 143.316 150.782 143.147C151.63 142.977 152.308 143.486 152.308 144.334Z" fill="#E9E9E9" stroke="#212629" stroke-width="0.5" stroke-miterlimit="10"/>
<path d="M145.182 145.013C145.182 145.691 144.673 146.37 143.995 146.539C143.316 146.709 142.638 146.03 142.468 145.352C142.468 144.673 142.977 143.995 143.656 143.825C144.334 143.825 145.013 144.334 145.182 145.013Z" fill="#E9E9E9" stroke="#212629" stroke-width="0.5" stroke-miterlimit="10"/>
<path d="M489.858 93.4458L484.769 70.8857L478.833 69.1895L477.984 91.0711L489.858 93.4458Z" fill="#E9E9E9" stroke="#212629" stroke-width="0.5" stroke-miterlimit="10"/>
<path d="M478.833 69.1895L437.445 74.9567L430.66 97.1776L477.985 91.0711L478.833 69.1895Z" fill="#E9E9E9" stroke="#212629" stroke-width="0.5" stroke-miterlimit="10"/>
<path d="M477.984 412.172L475.439 90.5625L494.098 94.2943L504.445 411.663L477.984 412.172Z" fill="#E9E9E9" stroke="#212629" stroke-width="0.5" stroke-miterlimit="10"/>
<path d="M475.441 90.5625L426.928 97.6868V411.154L477.985 412.172L475.441 90.5625Z" fill="#E9E9E9" stroke="#212629" stroke-width="0.5" stroke-miterlimit="10"/>
<path d="M483.92 70.7162L478.832 34.0771L480.358 69.6984L483.92 70.7162Z" fill="#E9E9E9" stroke="#212629" stroke-width="0.5" stroke-miterlimit="10"/>
<path d="M478.832 34.0771L477.136 36.2823L473.913 66.4755L441.854 72.0732L442.872 41.371L441.515 40.8622L437.444 74.9568L480.359 69.6984L478.832 34.0771Z" fill="#E9E9E9" stroke="#212629" stroke-width="0.5" stroke-miterlimit="10"/>
<path d="M442.873 41.3711L444.569 71.5644L441.855 72.0732L442.873 41.3711Z" fill="#E9E9E9" stroke="#212629" stroke-width="0.5" stroke-miterlimit="10"/>
<path d="M469.335 171.982C469.335 172.661 468.656 173.339 467.978 173.169C467.299 173.169 466.621 172.491 466.791 171.812C466.791 171.134 467.469 170.455 468.148 170.625C468.826 170.625 469.335 171.304 469.335 171.982Z" fill="#E9E9E9" stroke="#212629" stroke-width="0.5" stroke-miterlimit="10"/>
<path d="M481.546 180.972C481.546 181.651 480.867 182.329 480.189 182.16C479.51 182.16 478.832 181.481 479.001 180.803C479.001 180.124 479.68 179.446 480.358 179.615C480.867 179.615 481.546 180.294 481.546 180.972Z" fill="#E9E9E9" stroke="#212629" stroke-width="0.5" stroke-miterlimit="10"/>
<path d="M491.216 141.11C491.216 141.788 490.538 142.467 489.859 142.297C489.181 142.297 488.502 141.619 488.672 140.94C488.672 140.262 489.35 139.583 490.029 139.753C490.707 139.923 491.216 140.431 491.216 141.11Z" fill="#E9E9E9" stroke="#212629" stroke-width="0.5" stroke-miterlimit="10"/>
<path d="M469.673 101.249C469.673 101.927 468.994 102.606 468.316 102.436C467.637 102.436 466.959 101.757 467.128 101.079C467.128 100.4 467.807 99.722 468.485 99.8916C469.164 99.8916 469.673 100.4 469.673 101.249Z" fill="#E9E9E9" stroke="#212629" stroke-width="0.5" stroke-miterlimit="10"/>
<path d="M465.093 171.982C465.093 172.661 464.415 173.339 463.736 173.169C463.058 173.169 462.379 172.491 462.549 171.812C462.549 171.134 463.227 170.455 463.906 170.625C464.584 170.625 465.093 171.304 465.093 171.982Z" fill="#E9E9E9" stroke="#212629" stroke-width="0.5" stroke-miterlimit="10"/>
<path d="M439.312 253.402C439.312 254.08 438.634 254.759 437.955 254.589C437.277 254.589 436.598 253.911 436.768 253.232C436.768 252.554 437.447 251.875 438.125 252.045C438.804 252.045 439.312 252.723 439.312 253.402Z" fill="#E9E9E9" stroke="#212629" stroke-width="0.5" stroke-miterlimit="10"/>
<path d="M453.73 253.402C453.73 254.08 453.051 254.759 452.373 254.589C451.694 254.589 451.016 253.911 451.186 253.232C451.186 252.554 451.864 251.875 452.543 252.045C453.221 252.045 453.9 252.723 453.73 253.402Z" fill="#E9E9E9" stroke="#212629" stroke-width="0.5" stroke-miterlimit="10"/>
<path d="M455.255 322.27C455.255 322.949 454.576 323.627 453.898 323.457C453.219 323.457 452.541 322.779 452.71 322.1C452.71 321.422 453.389 320.743 454.067 320.913C454.746 321.083 455.424 321.592 455.255 322.27Z" fill="#E9E9E9" stroke="#212629" stroke-width="0.5" stroke-miterlimit="10"/>
<path d="M469.673 230.164C469.673 230.842 468.994 231.521 468.316 231.351C467.637 231.351 466.959 230.673 467.128 229.994C467.128 229.316 467.807 228.637 468.485 228.807C469.164 228.807 469.673 229.485 469.673 230.164Z" fill="#E9E9E9" stroke="#212629" stroke-width="0.5" stroke-miterlimit="10"/>
<path d="M481.546 113.631C481.546 114.31 480.867 114.988 480.189 114.819C479.51 114.819 478.832 114.14 479.001 113.462C479.001 112.783 479.68 112.105 480.358 112.274C480.867 112.274 481.546 112.953 481.546 113.631Z" fill="#E9E9E9" stroke="#212629" stroke-width="0.5" stroke-miterlimit="10"/>
<path d="M485.28 113.631C485.28 114.31 484.601 114.988 483.923 114.819C483.244 114.819 482.566 114.14 482.735 113.462C482.735 112.783 483.414 112.105 484.092 112.274C484.601 112.274 485.28 112.953 485.28 113.631Z" fill="#E9E9E9" stroke="#212629" stroke-width="0.5" stroke-miterlimit="10"/>
<path d="M468.315 101.249C468.315 101.927 467.637 102.606 466.958 102.436C466.28 102.436 465.601 101.757 465.771 101.079C465.771 100.4 466.449 99.722 467.128 99.8916C467.806 99.8916 468.485 100.4 468.315 101.249Z" fill="#E9E9E9" stroke="#212629" stroke-width="0.5" stroke-miterlimit="10"/>
<path d="M459.836 101.757C459.836 102.436 459.158 103.114 458.479 102.945C457.801 102.945 457.122 102.266 457.292 101.588C457.292 100.909 457.97 100.231 458.649 100.4C459.327 100.4 459.836 100.909 459.836 101.757Z" fill="#E9E9E9" stroke="#212629" stroke-width="0.5" stroke-miterlimit="10"/>
<path d="M436.935 103.793C436.935 104.471 436.257 105.15 435.578 104.98C434.9 104.98 434.221 104.301 434.391 103.623C434.391 102.944 435.07 102.266 435.748 102.436C436.427 102.436 436.935 103.114 436.935 103.793Z" fill="#E9E9E9" stroke="#212629" stroke-width="0.5" stroke-miterlimit="10"/>
<path d="M83.6074 169.607L80.5542 127.879L65.7968 136.36L39.6745 124.147L36.4517 172.83L83.6074 169.607Z" fill="#E9E9E9" stroke="#212629" stroke-width="0.5" stroke-miterlimit="10"/>
<path d="M1 400.806L26.2741 279.864L21.5246 187.248L65.7968 144.503V401.994L1 400.806Z" fill="#E9E9E9" stroke="#212629" stroke-width="0.5" stroke-miterlimit="10"/>
<path d="M109.558 400.976L65.7944 401.994V144.503L94.8003 185.383L92.7648 282.239L109.558 400.976Z" fill="#E9E9E9" stroke="#212629" stroke-width="0.5" stroke-miterlimit="10"/>
<path d="M80.5535 127.879L39.6738 124.147L65.7961 144.502L80.5535 127.879Z" fill="#E9E9E9" stroke="#212629" stroke-width="0.5" stroke-miterlimit="10"/>
<path d="M65.7968 144.502L39.6745 124.147L36.4517 172.83L65.7968 144.502Z" fill="#E9E9E9" stroke="#212629" stroke-width="0.5" stroke-miterlimit="10"/>
<path d="M46.6294 124.826L63.4223 97.5166L75.6353 127.371L46.6294 124.826Z" fill="#E9E9E9" stroke="#212629" stroke-width="0.5" stroke-miterlimit="10"/>
<path d="M63.4223 97.5166L65.797 126.522L46.6294 124.826L63.4223 97.5166Z" fill="#E9E9E9" stroke="#212629" stroke-width="0.5" stroke-miterlimit="10"/>
<path d="M1 400.807L66.8146 273.249L94.8027 185.383L65.7968 283.257L2.86588 400.807H1Z" fill="#E9E9E9" stroke="#212629" stroke-width="0.5" stroke-miterlimit="10"/>
<path d="M109.559 400.976L66.8138 273.248L21.5239 187.248L65.6265 276.132L107.185 400.976H109.559Z" fill="#E9E9E9" stroke="#212629" stroke-width="0.5" stroke-miterlimit="10"/>
<path d="M65.7953 144.503L63.7598 401.994H67.4915L65.7953 144.503Z" fill="#E9E9E9" stroke="#212629" stroke-width="0.5" stroke-miterlimit="10"/>
<path d="M26.2715 279.863L65.6245 276.131L92.7645 283.256V282.238L66.6423 274.774L26.2715 279.015V279.863Z" fill="#E9E9E9" stroke="#212629" stroke-width="0.5" stroke-miterlimit="10"/>
<path d="M68.0034 276.641L109.562 400.976L92.7687 283.256L68.0034 276.641Z" fill="#E9E9E9" stroke="#212629" stroke-width="0.5" stroke-miterlimit="10"/>
<path d="M65.6272 276.132L26.2741 279.015L1 400.806L65.6272 276.132Z" fill="#E9E9E9" stroke="#212629" stroke-width="0.5" stroke-miterlimit="10"/>
<path d="M29.1563 188.097C29.1563 188.775 28.817 189.284 28.1385 189.284C27.46 189.284 26.9512 188.945 26.9512 188.266C26.9512 187.588 27.2904 187.079 27.9689 187.079C28.4778 187.079 28.9867 187.588 29.1563 188.097Z" fill="#E9E9E9" stroke="#212629" stroke-width="0.5" stroke-miterlimit="10"/>
<path d="M92.7696 189.453C92.7696 190.132 92.4303 190.641 91.7518 190.641C91.0733 190.641 90.5645 190.301 90.5645 189.623C90.5645 188.944 90.9037 188.436 91.5822 188.436C92.2607 188.436 92.7696 188.944 92.7696 189.453Z" fill="#E9E9E9" stroke="#212629" stroke-width="0.5" stroke-miterlimit="10"/>
<path d="M79.3672 209.639C79.3672 210.317 79.028 210.826 78.3495 210.826C77.671 210.826 77.1621 210.487 77.1621 209.808C77.1621 209.13 77.5014 208.621 78.1799 208.621C78.6887 208.451 79.1976 208.96 79.3672 209.639Z" fill="#E9E9E9" stroke="#212629" stroke-width="0.5" stroke-miterlimit="10"/>
<path d="M41.709 309.039C41.709 309.718 41.3698 310.227 40.6913 310.227C40.0128 310.227 39.5039 309.887 39.5039 309.209C39.5039 308.53 39.8432 308.021 40.5217 308.021C41.2002 308.021 41.709 308.361 41.709 309.039Z" fill="#E9E9E9" stroke="#212629" stroke-width="0.5" stroke-miterlimit="10"/>
<path d="M47.1397 354.838C47.1397 355.516 46.8004 356.025 46.1219 356.025C45.4434 356.025 44.9346 355.686 44.9346 355.007C44.9346 354.329 45.2738 353.82 45.9523 353.82C46.4612 353.65 47.1397 354.159 47.1397 354.838Z" fill="#E9E9E9" stroke="#212629" stroke-width="0.5" stroke-miterlimit="10"/>
<path d="M38.3189 309.379C38.3189 310.057 37.9796 310.566 37.3011 310.566C36.6226 310.566 36.1138 310.227 36.1138 309.548C36.1138 308.87 36.453 308.361 37.1315 308.361C37.6404 308.191 38.1493 308.7 38.3189 309.379Z" fill="#E9E9E9" stroke="#212629" stroke-width="0.5" stroke-miterlimit="10"/>
<path d="M87.6783 247.974C87.6783 248.652 87.339 249.161 86.6605 249.161C85.982 249.161 85.4731 248.822 85.4731 248.143C85.4731 247.465 85.8124 246.956 86.4909 246.956C87.1694 246.956 87.6783 247.465 87.6783 247.974Z" fill="#E9E9E9" stroke="#212629" stroke-width="0.5" stroke-miterlimit="10"/>
<path d="M88.6958 188.436C88.6958 189.114 88.3566 189.623 87.6781 189.623C86.9996 189.623 86.4907 189.284 86.4907 188.605C86.4907 187.927 86.83 187.418 87.5085 187.418C88.187 187.418 88.6958 187.927 88.6958 188.436Z" fill="#E9E9E9" stroke="#212629" stroke-width="0.5" stroke-miterlimit="10"/>
<path d="M78.1797 141.788C78.1797 142.467 77.8405 142.976 77.162 142.976C76.4835 142.976 75.9746 142.636 75.9746 141.958C75.9746 141.279 76.3139 140.771 76.9924 140.771C77.6709 140.771 78.1797 141.279 78.1797 141.788Z" fill="#E9E9E9" stroke="#212629" stroke-width="0.5" stroke-miterlimit="10"/>
<path d="M59.3506 129.406C59.3506 130.085 59.0114 130.594 58.3329 130.594C57.6544 130.594 57.1455 130.255 57.1455 129.576C57.1455 128.898 57.4848 128.389 58.1633 128.389C58.8418 128.389 59.3506 128.898 59.3506 129.406Z" fill="#E9E9E9" stroke="#212629" stroke-width="0.5" stroke-miterlimit="10"/>
<path d="M44.2535 145.521C44.2535 146.199 43.9142 146.708 43.2357 146.708C42.5572 146.708 42.0483 146.369 42.0483 145.69C42.0483 145.012 42.3876 144.503 43.0661 144.503C43.7446 144.503 44.2535 144.842 44.2535 145.521Z" fill="#E9E9E9" stroke="#212629" stroke-width="0.5" stroke-miterlimit="10"/>
<path d="M87.6783 188.097C87.6783 188.775 87.339 189.284 86.6605 189.284C85.982 189.284 85.4731 188.945 85.4731 188.266C85.4731 187.588 85.8124 187.079 86.4909 187.079C87.1694 187.079 87.6783 187.588 87.6783 188.097Z" fill="#E9E9E9" stroke="#212629" stroke-width="0.5" stroke-miterlimit="10"/>
<path d="M654.056 190.641L651.851 184.534L605.883 180.633L603.847 187.079L654.056 190.641Z" fill="#E9E9E9" stroke="#212629" stroke-width="0.5" stroke-miterlimit="10"/>
<path d="M605.884 180.633L589.091 188.944L586.038 194.372L603.848 187.079L605.884 180.633Z" fill="#E9E9E9" stroke="#212629" stroke-width="0.5" stroke-miterlimit="10"/>
<path d="M605.884 180.633L599.608 170.795L660.164 177.58L651.852 184.535L605.884 180.633Z" fill="#E9E9E9" stroke="#212629" stroke-width="0.5" stroke-miterlimit="10"/>
<path d="M660.164 177.58L655.075 143.994L599.608 134.325V170.795L660.164 177.58Z" fill="#E9E9E9" stroke="#212629" stroke-width="0.5" stroke-miterlimit="10"/>
<path d="M599.606 134.325L588.411 140.262L583.831 179.954L599.606 170.795V134.325Z" fill="#E9E9E9" stroke="#212629" stroke-width="0.5" stroke-miterlimit="10"/>
<path d="M589.088 188.945L582.134 180.633L599.605 170.795L605.881 180.633L589.088 188.945Z" fill="#E9E9E9" stroke="#212629" stroke-width="0.5" stroke-miterlimit="10"/>
<path d="M599.606 187.079L658.466 190.98L670.679 406.065H593.33L599.606 187.079Z" fill="#E9E9E9" stroke="#212629" stroke-width="0.5" stroke-miterlimit="10"/>
<path d="M599.607 187.079L581.118 196.917L564.664 406.065H593.331L599.607 187.079Z" fill="#E9E9E9" stroke="#212629" stroke-width="0.5" stroke-miterlimit="10"/>
<path d="M625.899 406.065H642.522L599.607 187.079L598.928 211.844L625.899 406.065Z" fill="#E9E9E9" stroke="#212629" stroke-width="0.5" stroke-miterlimit="10"/>
<path d="M650.155 406.065L659.145 204.89L660.502 226.771L652.36 406.065H650.155Z" fill="#E9E9E9" stroke="#212629" stroke-width="0.5" stroke-miterlimit="10"/>
<path d="M642.523 406.065H650.156L659.146 204.89L658.468 190.98L599.608 187.079L642.523 406.065Z" fill="#E9E9E9" stroke="#212629" stroke-width="0.5" stroke-miterlimit="10"/>
<path d="M620.64 193.185C620.64 193.864 620.131 194.373 619.453 194.373C618.774 194.373 618.265 193.864 618.265 193.185C618.265 192.507 618.774 191.998 619.453 191.998C620.131 191.828 620.64 192.507 620.64 193.185Z" fill="#E9E9E9" stroke="#212629" stroke-width="0.5" stroke-miterlimit="10"/>
<path d="M656.431 235.083C656.431 235.761 655.922 236.27 655.243 236.27C654.565 236.27 654.056 235.761 654.056 235.083C654.056 234.404 654.565 233.896 655.243 233.896C655.922 233.896 656.601 234.404 656.431 235.083Z" fill="#E9E9E9" stroke="#212629" stroke-width="0.5" stroke-miterlimit="10"/>
<path d="M655.243 196.917C655.899 196.917 656.431 196.385 656.431 195.729C656.431 195.074 655.899 194.542 655.243 194.542C654.588 194.542 654.056 195.074 654.056 195.729C654.056 196.385 654.588 196.917 655.243 196.917Z" fill="#E9E9E9" stroke="#212629" stroke-width="0.5" stroke-miterlimit="10"/>
<path d="M653.717 147.556C653.717 148.234 653.208 148.743 652.529 148.743C651.851 148.743 651.342 148.234 651.342 147.556C651.342 146.877 651.851 146.368 652.529 146.368C653.208 146.368 653.717 146.877 653.717 147.556Z" fill="#E9E9E9" stroke="#212629" stroke-width="0.5" stroke-miterlimit="10"/>
<path d="M646.425 147.556C647.08 147.556 647.612 147.025 647.612 146.369C647.612 145.713 647.08 145.182 646.425 145.182C645.769 145.182 645.237 145.713 645.237 146.369C645.237 147.025 645.769 147.556 646.425 147.556Z" fill="#E9E9E9" stroke="#212629" stroke-width="0.5" stroke-miterlimit="10"/>
<path d="M645.066 145.859C645.066 146.538 644.557 147.047 643.878 147.047C643.2 147.047 642.691 146.538 642.691 145.859C642.691 145.181 643.2 144.672 643.878 144.672C644.557 144.672 645.066 145.35 645.066 145.859Z" fill="#E9E9E9" stroke="#212629" stroke-width="0.5" stroke-miterlimit="10"/>
<path d="M604.865 294.112C604.865 294.791 604.356 295.3 603.678 295.3C602.999 295.3 602.49 294.791 602.49 294.112C602.49 293.434 602.999 292.925 603.678 292.925C604.186 292.925 604.865 293.434 604.865 294.112Z" fill="#E9E9E9" stroke="#212629" stroke-width="0.5" stroke-miterlimit="10"/>
<path d="M606.056 294.112C606.056 294.791 605.548 295.3 604.869 295.3C604.191 295.3 603.682 294.791 603.682 294.112C603.682 293.434 604.191 292.925 604.869 292.925C605.378 292.925 606.056 293.434 606.056 294.112Z" fill="#E9E9E9" stroke="#212629" stroke-width="0.5" stroke-miterlimit="10"/>
<path d="M652.53 234.913C652.53 235.591 652.021 236.1 651.342 236.1C650.664 236.1 650.155 235.591 650.155 234.913C650.155 234.234 650.664 233.726 651.342 233.726C652.021 233.726 652.53 234.234 652.53 234.913Z" fill="#E9E9E9" stroke="#212629" stroke-width="0.5" stroke-miterlimit="10"/>
<path d="M649.647 234.913C649.647 235.591 649.138 236.1 648.46 236.1C647.781 236.1 647.272 235.591 647.272 234.913C647.272 234.234 647.781 233.726 648.46 233.726C649.138 233.556 649.647 234.234 649.647 234.913Z" fill="#E9E9E9" stroke="#212629" stroke-width="0.5" stroke-miterlimit="10"/>
<path d="M639.639 234.573C639.639 235.252 639.13 235.761 638.452 235.761C637.773 235.761 637.264 235.252 637.264 234.573C637.264 233.895 637.773 233.386 638.452 233.386C639.13 233.216 639.639 233.895 639.639 234.573Z" fill="#E9E9E9" stroke="#212629" stroke-width="0.5" stroke-miterlimit="10"/>
<path d="M620.64 263.07C620.64 263.749 620.131 264.258 619.453 264.258C618.774 264.258 618.265 263.749 618.265 263.07C618.265 262.392 618.774 261.883 619.453 261.883C620.131 261.883 620.64 262.392 620.64 263.07Z" fill="#E9E9E9" stroke="#212629" stroke-width="0.5" stroke-miterlimit="10"/>
<path d="M650.834 342.795C650.834 343.473 650.325 343.982 649.647 343.982C648.968 343.982 648.459 343.473 648.459 342.795C648.459 342.116 648.968 341.607 649.647 341.607C650.325 341.607 650.834 342.116 650.834 342.795Z" fill="#E9E9E9" stroke="#212629" stroke-width="0.5" stroke-miterlimit="10"/>
<path d="M645.404 342.795C645.404 343.473 644.895 343.982 644.216 343.982C643.538 343.982 643.029 343.473 643.029 342.795C643.029 342.116 643.538 341.607 644.216 341.607C644.895 341.607 645.404 342.116 645.404 342.795Z" fill="#E9E9E9" stroke="#212629" stroke-width="0.5" stroke-miterlimit="10"/>
<path d="M642.521 342.795C642.521 343.473 642.012 343.982 641.334 343.982C640.655 343.982 640.146 343.473 640.146 342.795C640.146 342.116 640.655 341.607 641.334 341.607C642.012 341.607 642.521 342.116 642.521 342.795Z" fill="#E9E9E9" stroke="#212629" stroke-width="0.5" stroke-miterlimit="10"/>
<path d="M609.274 389.441C609.274 390.12 608.765 390.629 608.087 390.629C607.408 390.629 606.899 390.12 606.899 389.441C606.899 388.763 607.408 388.254 608.087 388.254C608.765 388.254 609.274 388.763 609.274 389.441Z" fill="#E9E9E9" stroke="#212629" stroke-width="0.5" stroke-miterlimit="10"/>
<path d="M614.026 193.185C614.026 193.864 613.517 194.373 612.838 194.373C612.16 194.373 611.651 193.864 611.651 193.185C611.651 192.507 612.16 191.998 612.838 191.998C613.347 191.828 614.026 192.507 614.026 193.185Z" fill="#E9E9E9" stroke="#212629" stroke-width="0.5" stroke-miterlimit="10"/>
<path d="M658.13 164.179L599.609 157.055L586.039 163.5L585.36 165.536L599.609 158.412L658.299 164.857L658.13 164.179Z" fill="#E9E9E9" stroke="#212629" stroke-width="0.5" stroke-miterlimit="10"/>
<path d="M624.206 312.432L654.399 312.093L654.229 313.959L624.714 314.807L624.206 312.432Z" fill="#E9E9E9" stroke="#212629" stroke-width="0.5" stroke-miterlimit="10"/>
<path d="M637.604 381.13H651.174V383.505H638.113L637.604 381.13Z" fill="#E9E9E9" stroke="#212629" stroke-width="0.5" stroke-miterlimit="10"/>
<path d="M302.255 72.9209L243.225 105.998L235.083 118.55L294.452 95.6507L302.255 72.9209Z" fill="#E9E9E9" stroke="#212629" stroke-width="0.5" stroke-miterlimit="10"/>
<path d="M258.155 407.761H183.52L221.516 126.523L277.831 93.1064L258.155 407.761Z" fill="#E9E9E9" stroke="#212629" stroke-width="0.5" stroke-miterlimit="10"/>
<path d="M324.31 407.591L304.803 96.3293L277.833 93.1064L258.156 407.761L324.31 407.591Z" fill="#E9E9E9" stroke="#212629" stroke-width="0.5" stroke-miterlimit="10"/>
<path d="M299.885 409.287C313.375 409.287 324.311 334.331 324.311 241.867C324.311 149.404 313.375 74.4473 299.885 74.4473C286.394 74.4473 275.458 149.404 275.458 241.867C275.458 334.331 286.394 409.287 299.885 409.287Z" fill="#E9E9E9" stroke="#212629" stroke-width="0.5" stroke-miterlimit="10"/>
<path d="M302.257 407.761C315.747 407.761 326.683 332.804 326.683 240.341C326.683 147.877 315.747 72.9209 302.257 72.9209C288.767 72.9209 277.831 147.877 277.831 240.341C277.831 332.804 288.767 407.761 302.257 407.761Z" fill="#E9E9E9" stroke="#212629" stroke-width="0.5" stroke-miterlimit="10"/>
<path d="M324.31 240.342C324.31 324.815 314.981 393.683 303.446 397.754C303.107 397.923 302.768 397.923 302.429 397.923C290.216 397.923 280.377 327.359 280.377 240.342C280.377 161.635 288.35 96.4994 299.036 84.6256C300.224 83.4383 301.241 82.7598 302.429 82.7598C314.472 82.7598 324.31 153.324 324.31 240.342Z" fill="#E9E9E9" stroke="#212629" stroke-width="0.5" stroke-miterlimit="10"/>
<path d="M321.936 242.038C321.936 320.744 313.963 385.88 303.446 397.754C303.107 397.923 302.768 397.923 302.429 397.923C290.216 397.923 280.377 327.359 280.377 240.342C280.377 161.635 288.35 96.4994 299.036 84.6257C299.375 84.4561 299.715 84.4561 300.054 84.4561C312.097 84.4561 321.936 155.02 321.936 242.038Z" fill="#E9E9E9" stroke="#212629" stroke-width="0.5" stroke-miterlimit="10"/>
<path d="M283.597 157.055L321.593 165.875L321.933 167.402L283.428 158.412L283.597 157.055Z" fill="#E9E9E9" stroke="#212629" stroke-width="0.5" stroke-miterlimit="10"/>
<path d="M280.377 219.138L324.31 228.637V229.994L280.377 220.834V219.138Z" fill="#E9E9E9" stroke="#212629" stroke-width="0.5" stroke-miterlimit="10"/>
<path d="M280.883 276.641L323.459 282.238V283.595L280.883 278.507V276.641Z" fill="#E9E9E9" stroke="#212629" stroke-width="0.5" stroke-miterlimit="10"/>
<path d="M285.632 344.321L318.37 347.375L318.2 348.392L285.972 346.018L285.632 344.321Z" fill="#E9E9E9" stroke="#212629" stroke-width="0.5" stroke-miterlimit="10"/>
<mask id="mask0_203_14263" style="mask-type:alpha" maskUnits="userSpaceOnUse" x="235" y="136" width="33" height="14">
<path d="M266.297 140.432L238.139 149.592C237.122 149.931 236.104 149.422 235.934 148.404C235.595 147.386 236.104 146.369 237.122 146.199L265.279 137.039C266.297 136.7 267.315 137.209 267.485 138.227C267.824 139.075 267.145 140.092 266.297 140.432Z" fill="url(#paint0_linear_203_14263)"/>
</mask>
<g mask="url(#mask0_203_14263)">
<path opacity="0.85" d="M266.299 140.432L238.141 149.592C237.123 149.931 236.105 149.422 235.936 148.404C235.596 147.386 236.105 146.369 237.123 146.199L265.281 137.039C266.299 136.7 267.316 137.209 267.486 138.227C267.825 139.075 267.147 140.092 266.299 140.432Z" fill="#E9E9E9" stroke="#212629" stroke-width="0.5" stroke-miterlimit="10"/>
<path d="M253.405 407.591L202.687 407.761H193.527C193.527 407.761 213.034 145.011 240.004 128.558C242.379 127.031 244.584 128.049 246.28 131.272C264.6 162.822 253.405 407.591 253.405 407.591Z" fill="#E9E9E9" stroke="#212629" stroke-width="0.5" stroke-miterlimit="10"/>
<path d="M253.404 407.591L197.767 407.76C197.936 405.046 210.149 179.615 246.279 131.271C264.599 162.822 253.404 407.591 253.404 407.591Z" fill="#E9E9E9" stroke="#212629" stroke-width="0.5" stroke-miterlimit="10"/>
</g>
<path d="M553.297 63.9315V60.539L523.952 38.1484V46.6297L553.297 63.9315Z" fill="#E9E9E9" stroke="#212629" stroke-width="0.5" stroke-miterlimit="10"/>
<path d="M497.831 59.182V50.5311L523.953 38.1484V46.6297L497.831 59.182Z" fill="#E9E9E9" stroke="#212629" stroke-width="0.5" stroke-miterlimit="10"/>
<path d="M489.008 408.441L493.418 240.003L489.008 237.119L490.704 150.61L493.418 149.762V57.3165L527.343 43.4072L540.743 408.61L489.008 408.441Z" fill="#E9E9E9" stroke="#212629" stroke-width="0.5" stroke-miterlimit="10"/>
<path d="M527.346 43.4072L559.235 68.6814L568.225 148.744L565.851 148.914L574.502 236.101L578.403 236.441L594.517 408.61H540.746L533.791 231.691L529.381 228.977L527.346 137.38L530.569 137.719L527.346 43.4072Z" fill="#E9E9E9" stroke="#212629" stroke-width="0.5" stroke-miterlimit="10"/>
<path d="M529.379 228.977L489.008 237.119L493.418 240.002L533.789 231.691L529.379 228.977Z" fill="#E9E9E9" stroke="#212629" stroke-width="0.5" stroke-miterlimit="10"/>
<path d="M527.342 137.379L490.703 149.253V150.61L527.342 138.566V137.379Z" fill="#E9E9E9" stroke="#212629" stroke-width="0.5" stroke-miterlimit="10"/>
<path d="M533.788 231.69L578.399 236.44V237.627L533.788 233.556V231.69Z" fill="#E9E9E9" stroke="#212629" stroke-width="0.5" stroke-miterlimit="10"/>
<path d="M568.225 148.744L565.851 148.913L527.346 137.379L530.569 135.683L568.225 148.744Z" fill="#E9E9E9" stroke="#212629" stroke-width="0.5" stroke-miterlimit="10"/>
<mask id="mask1_203_14263" style="mask-type:alpha" maskUnits="userSpaceOnUse" x="532" y="174" width="34" height="9">
<path d="M563.475 182.16L534.3 177.75C533.282 177.581 532.603 176.732 532.773 175.715C532.943 174.697 533.791 174.018 534.809 174.188L563.984 178.598C565.002 178.768 565.68 179.616 565.511 180.634C565.341 181.652 564.323 182.33 563.475 182.16Z" fill="url(#paint1_linear_203_14263)"/>
</mask>
<g mask="url(#mask1_203_14263)">
<path opacity="0.85" d="M563.472 182.16L534.296 177.75C533.278 177.581 532.6 176.732 532.77 175.715C532.939 174.697 533.787 174.018 534.805 174.188L563.981 178.598C564.998 178.768 565.677 179.616 565.507 180.634C565.338 181.652 564.32 182.33 563.472 182.16Z" fill="#E9E9E9" stroke="#212629" stroke-width="0.5" stroke-miterlimit="10"/>
</g>
<mask id="mask2_203_14263" style="mask-type:alpha" maskUnits="userSpaceOnUse" x="495" y="313" width="34" height="7">
<path d="M527.004 316.672L497.489 319.217C496.471 319.217 495.623 318.538 495.623 317.521C495.623 316.503 496.302 315.655 497.319 315.655L526.834 313.11C527.852 313.11 528.7 313.789 528.7 314.807C528.87 315.824 528.021 316.672 527.004 316.672Z" fill="url(#paint2_linear_203_14263)"/>
</mask>
<g mask="url(#mask2_203_14263)">
<path opacity="0.85" d="M527.003 316.672L497.488 319.217C496.47 319.217 495.622 318.538 495.622 317.521C495.622 316.503 496.301 315.655 497.318 315.655L526.833 313.11C527.851 313.11 528.699 313.789 528.699 314.807C528.869 315.824 528.02 316.672 527.003 316.672Z" fill="#E9E9E9" stroke="#212629" stroke-width="0.5" stroke-miterlimit="10"/>
</g>
<mask id="mask3_203_14263" style="mask-type:alpha" maskUnits="userSpaceOnUse" x="539" y="241" width="34" height="6">
<path d="M570.767 246.957L541.252 245.091C540.234 245.091 539.556 244.243 539.556 243.226C539.556 242.208 540.404 241.529 541.422 241.529L570.936 243.395C571.954 243.395 572.633 244.243 572.633 245.261C572.633 246.279 571.784 247.127 570.767 246.957Z" fill="url(#paint3_linear_203_14263)"/>
</mask>
<g mask="url(#mask3_203_14263)">
<path opacity="0.85" d="M570.766 246.957L541.251 245.091C540.233 245.091 539.555 244.243 539.555 243.226C539.555 242.208 540.403 241.529 541.421 241.529L570.935 243.395C571.953 243.395 572.632 244.243 572.632 245.261C572.632 246.279 571.783 247.127 570.766 246.957Z" fill="#E9E9E9" stroke="#212629" stroke-width="0.5" stroke-miterlimit="10"/>
<path d="M570.427 245.26C570.257 246.108 569.409 246.787 568.561 246.617C567.713 246.448 567.034 245.599 567.204 244.751C567.374 243.903 568.222 243.225 569.07 243.394C570.088 243.564 570.596 244.412 570.427 245.26Z" fill="#E9E9E9" stroke="#212629" stroke-width="0.5" stroke-miterlimit="10"/>
</g>
<path d="M354.667 63.2528L359.587 46.9687C359.587 46.9687 377.736 6.76758 380.45 6.76758C383.164 6.76758 440.328 28.4796 440.328 28.4796L354.667 63.2528Z" fill="#E9E9E9" stroke="#212629" stroke-width="0.5" stroke-miterlimit="10"/>
<path d="M484.431 407.591H328.375C328.375 407.591 321.76 313.619 344.49 227.619C371.291 126.013 374.514 90.9011 376.04 15.9268L445.247 29.4968C445.247 29.4968 478.154 160.956 445.417 264.936C487.653 343.473 484.431 407.591 484.431 407.591Z" fill="#E9E9E9" stroke="#212629" stroke-width="0.5" stroke-miterlimit="10"/>
<path d="M485.788 407.591H469.673C469.673 407.591 455.764 337.197 388.084 260.357C353.82 221.512 342.455 180.124 340.25 146.877C337.536 108.372 347.204 80.7236 347.204 80.7236C356.703 58.5027 362.131 48.834 376.21 15.9268C376.04 53.0747 379.603 79.5362 389.78 110.408C399.788 140.771 416.072 175.544 441.177 228.976C478.324 308.53 485.788 407.591 485.788 407.591Z" fill="#E9E9E9" stroke="#212629" stroke-width="0.5" stroke-miterlimit="10"/>
<path d="M376.379 1L365.354 40.1834L368.237 33.9073L375.361 10.499L376.379 1Z" fill="#E9E9E9" stroke="#212629" stroke-width="0.5" stroke-miterlimit="10"/>
<path d="M381.978 1L382.995 17.284L384.183 17.6233V1.84813L381.978 1Z" fill="#E9E9E9" stroke="#212629" stroke-width="0.5" stroke-miterlimit="10"/>
<path d="M400.806 8.29395L400.127 20.6766L401.145 20.8462L402.841 9.14207L400.806 8.29395Z" fill="#E9E9E9" stroke="#212629" stroke-width="0.5" stroke-miterlimit="10"/>
<path d="M428.114 20.6768L427.605 26.1048L428.454 26.2744L429.641 21.6945L428.114 20.6768Z" fill="#E9E9E9" stroke="#212629" stroke-width="0.5" stroke-miterlimit="10"/>
<path d="M417.43 15.7578L415.395 23.7302L416.412 23.8998L419.466 16.0971L417.43 15.7578Z" fill="#E9E9E9" stroke="#212629" stroke-width="0.5" stroke-miterlimit="10"/>
<path d="M327.867 407.761C327.019 391.138 327.019 374.684 327.358 358.23C327.698 341.777 328.546 325.153 330.072 308.7C331.599 292.246 333.635 275.792 336.688 259.678C339.911 243.394 343.812 227.449 349.41 211.844C343.982 227.449 340.25 243.564 337.366 259.678C334.483 275.962 332.786 292.246 331.429 308.7C330.242 325.153 329.564 341.607 329.394 358.061C329.224 374.514 329.564 390.968 330.581 407.422L327.867 407.761Z" fill="#E9E9E9" stroke="#212629" stroke-width="0.5" stroke-miterlimit="10"/>
<path d="M412.85 40.5229C412.68 41.371 411.832 42.0495 410.984 41.8799C410.136 41.7103 409.458 40.8622 409.627 40.014C409.797 39.1659 410.645 38.4874 411.493 38.657C412.341 38.657 413.02 39.5052 412.85 40.5229Z" fill="#E9E9E9" stroke="#212629" stroke-width="0.5" stroke-miterlimit="10"/>
<path d="M439.818 101.757C439.649 102.605 438.801 103.284 437.953 103.114C437.104 102.945 436.426 102.097 436.596 101.248C436.765 100.4 437.613 99.7218 438.461 99.8914C439.31 100.061 439.818 100.909 439.818 101.757Z" fill="#E9E9E9" stroke="#212629" stroke-width="0.5" stroke-miterlimit="10"/>
<path d="M412.338 98.0258C412.169 98.874 411.321 99.5525 410.473 99.3828C409.624 99.2132 408.946 98.3651 409.116 97.517C409.285 96.6688 410.133 95.9903 410.981 96.16C411.999 96.3296 412.508 97.1777 412.338 98.0258Z" fill="#E9E9E9" stroke="#212629" stroke-width="0.5" stroke-miterlimit="10"/>
<path d="M400.465 110.578C400.296 111.426 399.448 112.104 398.599 111.935C397.751 111.765 397.073 110.917 397.242 110.069C397.412 109.221 398.26 108.542 399.108 108.712C399.956 108.881 400.465 109.729 400.465 110.578Z" fill="#E9E9E9" stroke="#212629" stroke-width="0.5" stroke-miterlimit="10"/>
<path d="M374.856 70.0376C374.687 70.8857 373.839 71.5642 372.991 71.3946C372.142 71.2249 371.464 70.3768 371.634 69.5287C371.803 68.6805 372.651 68.002 373.499 68.1717C374.348 68.3413 375.026 69.0198 374.856 70.0376Z" fill="#E9E9E9" stroke="#212629" stroke-width="0.5" stroke-miterlimit="10"/>
<path d="M445.927 113.8C445.758 114.648 444.909 115.327 444.061 115.157C443.213 114.988 442.535 114.14 442.704 113.291C442.874 112.443 443.722 111.765 444.57 111.934C445.418 112.104 445.927 112.952 445.927 113.8Z" fill="#E9E9E9" stroke="#212629" stroke-width="0.5" stroke-miterlimit="10"/>
<path d="M448.302 71.5639C448.132 72.412 447.284 73.0905 446.436 72.9209C445.588 72.7513 444.909 71.9032 445.079 71.055C445.249 70.2069 446.097 69.5284 446.945 69.698C447.963 69.8677 448.471 70.7158 448.302 71.5639Z" fill="#E9E9E9" stroke="#212629" stroke-width="0.5" stroke-miterlimit="10"/>
<path d="M443.555 45.7807C443.385 46.6288 442.537 47.3073 441.689 47.1377C440.841 46.9681 440.162 46.12 440.332 45.2718C440.501 44.4237 441.35 43.7452 442.198 43.9148C443.046 44.0845 443.724 44.9326 443.555 45.7807Z" fill="#E9E9E9" stroke="#212629" stroke-width="0.5" stroke-miterlimit="10"/>
<path d="M441.348 70.8862C441.178 71.7343 440.33 72.4128 439.482 72.2432C438.634 72.0736 437.955 71.2254 438.125 70.3773C438.294 69.5292 439.143 68.8507 439.991 69.0203C441.008 69.1899 441.517 70.0381 441.348 70.8862Z" fill="#E9E9E9" stroke="#212629" stroke-width="0.5" stroke-miterlimit="10"/>
<path d="M411.831 40.353C411.661 41.2011 410.813 41.8796 409.965 41.71C409.117 41.5404 408.438 40.6922 408.608 39.8441C408.777 38.996 409.625 38.3175 410.474 38.4871C411.491 38.6567 412 39.5049 411.831 40.353Z" fill="#E9E9E9" stroke="#212629" stroke-width="0.5" stroke-miterlimit="10"/>
<path d="M385.679 45.2323C386.015 44.3576 385.577 43.3766 384.703 43.0412C383.828 42.7059 382.847 43.1431 382.512 44.0178C382.176 44.8925 382.613 45.8734 383.488 46.2088C384.363 46.5442 385.344 46.107 385.679 45.2323Z" fill="#E9E9E9" stroke="#212629" stroke-width="0.5" stroke-miterlimit="10"/>
<path d="M390.289 62.7436C390.119 63.5917 389.271 64.2702 388.423 64.1006C387.575 63.931 386.897 63.0829 387.066 62.2347C387.236 61.3866 388.084 60.7081 388.932 60.8777C389.78 61.0474 390.459 61.8955 390.289 62.7436Z" fill="#E9E9E9" stroke="#212629" stroke-width="0.5" stroke-miterlimit="10"/>
<path d="M377.736 225.244C377.905 226.093 377.227 226.941 376.209 227.11C375.361 227.28 374.513 226.601 374.343 225.584C374.174 224.736 374.852 223.887 375.87 223.718C376.888 223.718 377.736 224.396 377.736 225.244Z" fill="#E9E9E9" stroke="#212629" stroke-width="0.5" stroke-miterlimit="10"/>
<path d="M372.647 193.525C372.817 194.373 372.138 195.221 371.12 195.391C370.272 195.56 369.424 194.882 369.254 193.864C369.085 193.016 369.763 192.168 370.781 191.998C371.799 191.998 372.647 192.677 372.647 193.525Z" fill="#E9E9E9" stroke="#212629" stroke-width="0.5" stroke-miterlimit="10"/>
<path d="M432.185 249.501C432.185 250.349 431.506 251.197 430.489 251.197C429.641 251.197 428.792 250.519 428.792 249.501C428.792 248.653 429.471 247.805 430.489 247.805C431.337 247.805 432.185 248.483 432.185 249.501Z" fill="#E9E9E9" stroke="#212629" stroke-width="0.5" stroke-miterlimit="10"/>
<path d="M439.821 312.94C439.821 313.789 439.142 314.637 438.124 314.637C437.276 314.637 436.428 313.958 436.428 312.94C436.428 312.092 437.107 311.244 438.124 311.244C439.142 311.244 439.821 311.923 439.821 312.94Z" fill="#E9E9E9" stroke="#212629" stroke-width="0.5" stroke-miterlimit="10"/>
<path d="M395.718 337.876C395.718 338.724 395.04 339.572 394.022 339.572C393.174 339.572 392.326 338.894 392.326 337.876C392.326 336.858 393.004 336.18 394.022 336.18C394.87 336.349 395.718 337.028 395.718 337.876Z" fill="#E9E9E9" stroke="#212629" stroke-width="0.5" stroke-miterlimit="10"/>
<path d="M456.445 312.94C456.445 313.789 455.767 314.637 454.749 314.637C453.901 314.637 453.053 313.958 453.053 312.94C453.053 312.092 453.731 311.244 454.749 311.244C455.767 311.244 456.445 311.923 456.445 312.94Z" fill="#E9E9E9" stroke="#212629" stroke-width="0.5" stroke-miterlimit="10"/>
<path d="M458.138 312.94C458.138 313.789 457.46 314.637 456.442 314.637C455.594 314.637 454.746 313.958 454.746 312.94C454.746 312.092 455.424 311.244 456.442 311.244C457.46 311.244 458.138 311.923 458.138 312.94Z" fill="#E9E9E9" stroke="#212629" stroke-width="0.5" stroke-miterlimit="10"/>
<path d="M350.938 372.14C350.938 372.988 350.26 373.836 349.242 373.836C348.224 373.836 347.546 373.157 347.546 372.14C347.546 371.291 348.224 370.443 349.242 370.443C350.26 370.443 350.938 371.122 350.938 372.14Z" fill="#E9E9E9" stroke="#212629" stroke-width="0.5" stroke-miterlimit="10"/>
<path d="M359.589 314.468C359.589 315.316 358.911 316.164 357.893 316.164C357.045 316.164 356.197 315.485 356.197 314.468C356.197 313.62 356.875 312.771 357.893 312.771C358.911 312.941 359.589 313.62 359.589 314.468Z" fill="#E9E9E9" stroke="#212629" stroke-width="0.5" stroke-miterlimit="10"/>
<path d="M379.434 277.149C379.434 277.998 378.755 278.846 377.737 278.846C376.889 278.846 376.041 278.167 376.041 277.149C376.041 276.301 376.72 275.453 377.737 275.453C378.755 275.453 379.434 276.301 379.434 277.149Z" fill="#E9E9E9" stroke="#212629" stroke-width="0.5" stroke-miterlimit="10"/>
<path d="M417.6 337.706C417.6 338.554 416.921 339.402 415.903 339.402C415.055 339.402 414.207 338.724 414.207 337.706C414.207 336.858 414.886 336.01 415.903 336.01C416.921 336.179 417.6 336.858 417.6 337.706Z" fill="#E9E9E9" stroke="#212629" stroke-width="0.5" stroke-miterlimit="10"/>
<path d="M446.945 276.811C446.945 277.659 446.266 278.507 445.248 278.507C444.4 278.507 443.552 277.828 443.552 276.811C443.552 275.962 444.231 275.114 445.248 275.114C446.266 275.114 446.945 275.962 446.945 276.811Z" fill="#E9E9E9" stroke="#212629" stroke-width="0.5" stroke-miterlimit="10"/>
<path d="M405.897 124.148C405.727 124.996 404.879 125.675 404.031 125.505C403.183 125.335 402.504 124.487 402.674 123.639C402.843 122.791 403.691 122.112 404.54 122.282C405.388 122.452 405.897 123.3 405.897 124.148Z" fill="#E9E9E9" stroke="#212629" stroke-width="0.5" stroke-miterlimit="10"/>
<path d="M401.485 155.698C401.315 156.546 400.467 157.224 399.619 157.055C398.771 156.885 398.092 156.037 398.262 155.189C398.432 154.341 399.28 153.662 400.128 153.832C400.976 153.832 401.654 154.68 401.485 155.698Z" fill="#E9E9E9" stroke="#212629" stroke-width="0.5" stroke-miterlimit="10"/>
<path d="M398.768 156.546C398.598 157.394 397.75 158.073 396.902 157.903C396.054 157.734 395.376 156.886 395.545 156.037C395.715 155.189 396.563 154.511 397.411 154.68C398.259 154.85 398.938 155.698 398.768 156.546Z" fill="#E9E9E9" stroke="#212629" stroke-width="0.5" stroke-miterlimit="10"/>
<path d="M386.05 161.465C385.88 162.313 385.032 162.992 384.184 162.822C383.336 162.653 382.657 161.805 382.827 160.956C382.997 160.108 383.845 159.43 384.693 159.599C385.711 159.769 386.219 160.617 386.05 161.465Z" fill="#E9E9E9" stroke="#212629" stroke-width="0.5" stroke-miterlimit="10"/>
<path d="M384.013 162.144C383.843 162.992 382.995 163.671 382.147 163.501C381.299 163.331 380.62 162.483 380.79 161.635C380.959 160.787 381.808 160.108 382.656 160.278C383.673 160.448 384.182 161.296 384.013 162.144Z" fill="#E9E9E9" stroke="#212629" stroke-width="0.5" stroke-miterlimit="10"/>
<path d="M417.428 125.335C417.258 126.184 416.41 126.862 415.562 126.692C414.714 126.523 414.035 125.675 414.205 124.827C414.375 123.978 415.223 123.3 416.071 123.47C416.919 123.639 417.428 124.487 417.428 125.335Z" fill="#E9E9E9" stroke="#212629" stroke-width="0.5" stroke-miterlimit="10"/>
<path d="M442.025 141.958C441.856 142.807 441.008 143.485 440.16 143.315C439.311 143.146 438.633 142.298 438.803 141.45C438.972 140.601 439.82 139.923 440.668 140.093C441.516 140.093 442.195 140.941 442.025 141.958Z" fill="#E9E9E9" stroke="#212629" stroke-width="0.5" stroke-miterlimit="10"/>
<path d="M443.722 206.755C443.553 207.603 442.704 208.282 441.856 208.112C441.008 207.943 440.33 207.095 440.499 206.246C440.669 205.398 441.517 204.72 442.365 204.889C443.213 205.059 443.892 205.907 443.722 206.755Z" fill="#E9E9E9" stroke="#212629" stroke-width="0.5" stroke-miterlimit="10"/>
<path d="M353.48 97.0083C353.311 97.8564 352.463 98.5349 351.615 98.3653C350.766 98.1956 350.088 97.3475 350.258 96.4994C350.427 95.6513 351.275 94.9728 352.123 95.1424C352.972 95.312 353.48 96.1601 353.48 97.0083Z" fill="#E9E9E9" stroke="#212629" stroke-width="0.5" stroke-miterlimit="10"/>
<mask id="mask4_203_14263" style="mask-type:alpha" maskUnits="userSpaceOnUse" x="379" y="230" width="50" height="7">
<path d="M427.268 233.895L381.3 236.44C380.282 236.44 379.434 235.761 379.434 234.743C379.434 233.726 380.113 232.877 381.13 232.877L427.099 230.333C428.117 230.333 428.965 231.012 428.965 232.029C428.965 233.047 428.286 233.895 427.268 233.895Z" fill="url(#paint4_linear_203_14263)"/>
</mask>
<g mask="url(#mask4_203_14263)">
<path opacity="0.85" d="M427.269 233.895L381.301 236.44C380.283 236.44 379.435 235.761 379.435 234.743C379.435 233.726 380.114 232.877 381.131 232.877L427.1 230.333C428.117 230.333 428.966 231.012 428.966 232.029C428.966 233.047 428.287 233.895 427.269 233.895Z" fill="#E9E9E9" stroke="#212629" stroke-width="0.5" stroke-miterlimit="10"/>
</g>
<mask id="mask5_203_14263" style="mask-type:alpha" maskUnits="userSpaceOnUse" x="400" y="146" width="51" height="10">
<path d="M448.135 155.02L402.336 150.44C401.319 150.27 400.64 149.422 400.81 148.404C400.979 147.386 401.827 146.708 402.845 146.878L448.644 151.457C449.662 151.627 450.34 152.475 450.171 153.493C450.001 154.341 449.153 155.02 448.135 155.02Z" fill="url(#paint5_linear_203_14263)"/>
</mask>
<g mask="url(#mask5_203_14263)">
<path opacity="0.85" d="M448.134 155.02L402.335 150.44C401.317 150.27 400.639 149.422 400.808 148.404C400.978 147.386 401.826 146.708 402.844 146.878L448.642 151.457C449.66 151.627 450.339 152.475 450.169 153.493C449.999 154.341 449.151 155.02 448.134 155.02Z" fill="#E9E9E9" stroke="#212629" stroke-width="0.5" stroke-miterlimit="10"/>
<path d="M340.932 162.144L396.569 129.915L460.517 137.379L397.078 132.459L340.932 162.144Z" fill="#E9E9E9" stroke="#212629" stroke-width="0.5" stroke-miterlimit="10"/>
<path d="M485.788 407.591C484.092 386.727 480.869 366.033 476.967 345.509C474.932 335.161 472.727 324.984 470.182 314.806C467.638 304.629 464.924 294.621 461.871 284.613C455.764 264.597 448.301 245.09 438.971 226.432C436.597 221.852 434.222 217.272 431.678 212.522C429.133 207.943 426.758 203.193 424.384 198.613C419.634 189.284 414.885 179.954 410.474 170.455C401.654 151.457 393.682 131.95 387.236 112.104C384.013 102.096 381.299 91.9189 379.094 81.7414C376.889 71.3943 375.192 61.0471 374.175 50.5304C373.157 40.0136 372.987 29.4969 373.496 18.9801C373.666 16.4357 373.835 13.7217 374.005 11.1774L374.344 7.27597L374.853 3.37459L375.023 1.33909V0.830218C375.023 0.490967 375.192 0.151717 375.362 -0.017908C375.701 -0.696409 376.38 -1.03566 376.719 -1.20528C377.737 -1.54453 378.415 -1.54453 379.094 -1.37491C379.772 -1.37491 380.451 -1.20528 381.129 -1.03566C383.843 -0.526783 386.388 0.321342 388.762 1.33909C398.601 5.07085 408.1 9.65072 417.429 14.2306C426.758 18.8105 436.088 23.7296 445.248 28.8184L445.587 28.988L445.756 29.4969C448.979 44.4239 451.693 59.5205 453.898 74.7868C456.104 89.8834 457.8 105.15 458.987 120.416C459.496 128.049 460.005 135.682 460.175 143.315C460.344 150.948 460.514 158.582 460.344 166.215C460.175 173.848 459.835 181.481 459.157 189.114C458.478 196.747 457.461 204.38 456.273 211.844C457.461 204.211 458.309 196.747 458.818 189.114C459.326 181.481 459.666 173.848 459.666 166.215C459.666 158.582 459.496 150.948 459.157 143.315C458.818 135.682 458.309 128.049 457.63 120.416C456.273 105.15 454.407 90.053 452.202 74.9564C449.827 59.8598 447.113 44.7631 443.721 30.0057L444.23 30.6842C435.07 25.7651 425.741 21.0156 416.411 16.4357C407.082 11.8559 397.583 7.27597 387.914 3.71384C385.54 2.86572 382.995 2.01759 380.62 1.50872C379.942 1.33909 379.433 1.33909 378.755 1.33909C378.246 1.33909 377.567 1.33909 377.398 1.50872C377.228 1.50872 377.228 1.67834 377.228 1.50872V2.01759L377.058 3.88347L376.549 7.78485V11.347C376.21 13.8914 376.21 16.6054 376.041 19.1497C375.532 29.4969 375.871 40.0136 376.889 50.3608C378.924 71.055 383.504 91.5797 389.78 111.426C396.056 131.272 404.029 150.609 412.68 169.607C417.09 179.106 421.67 188.436 426.419 197.765C431.169 207.094 436.257 216.254 440.837 225.584C450.167 244.412 457.291 264.258 463.397 284.274C466.451 294.282 469.165 304.459 471.539 314.637C473.914 324.814 475.95 335.161 477.816 345.339C481.547 366.033 484.261 386.727 485.788 407.591Z" fill="#E9E9E9" stroke="#212629" stroke-width="0.5" stroke-miterlimit="10"/>
<path d="M347.037 80.8936C345.849 84.4557 345.001 88.1874 344.323 91.9192C343.474 95.6509 342.966 99.3827 342.457 103.114C341.439 110.578 340.76 118.041 340.591 125.675C340.421 133.138 340.591 140.771 341.1 148.235C341.439 151.966 341.778 155.698 342.287 159.43C342.966 163.162 343.474 166.893 344.153 170.456C344.831 174.187 345.849 177.749 346.697 181.481C347.715 185.043 348.733 188.775 349.92 192.337C352.125 199.462 355.009 206.416 358.232 213.201C364.678 226.771 372.65 239.493 381.979 251.367C384.354 254.25 386.729 257.134 389.104 260.018L396.397 268.669C401.317 274.436 405.896 280.542 410.476 286.479C419.297 298.692 427.948 311.244 435.411 324.306C442.875 337.367 449.829 350.937 455.597 364.846C458.48 371.801 461.194 378.925 463.569 386.049C465.944 393.173 468.149 400.467 469.676 407.931C467.81 400.637 465.605 393.513 463.06 386.388C460.516 379.264 457.632 372.31 454.579 365.525C448.472 351.785 441.518 338.384 433.715 325.493C426.082 312.601 417.601 300.049 408.61 288.006C404.031 282.069 399.451 275.962 394.532 270.365L387.238 261.714C384.863 258.83 382.319 255.947 379.944 252.893C370.614 241.02 362.642 227.959 356.196 214.219C353.143 207.264 350.259 200.31 347.885 193.016C346.697 189.454 345.68 185.722 344.662 182.16C343.814 178.428 342.966 174.696 342.287 170.964C341.609 167.233 341.1 163.501 340.591 159.769C340.252 156.037 339.743 152.306 339.573 148.404C339.064 140.771 339.064 133.308 339.403 125.675C339.743 118.041 340.591 110.578 341.948 103.114C342.796 95.3117 344.492 88.0178 347.037 80.8936Z" fill="#E9E9E9" stroke="#212629" stroke-width="0.5" stroke-miterlimit="10"/>
</g>
<mask id="mask6_203_14263" style="mask-type:alpha" maskUnits="userSpaceOnUse" x="532" y="158" width="63" height="251">
<path d="M540.746 408.609L532.604 158.242L578.403 167.402L594.517 408.609H540.746Z" fill="url(#paint6_linear_203_14263)"/>
</mask>
<g mask="url(#mask6_203_14263)">
<path d="M540.747 408.609L532.605 158.242L578.404 167.402L594.518 408.609H540.747Z" fill="#E9E9E9" stroke="#212629" stroke-width="0.5" stroke-miterlimit="10"/>
<path d="M537.696 370.275V364.677L552.114 363.659L556.525 371.123L537.696 370.275Z" fill="#E9E9E9" stroke="#212629" stroke-width="0.5" stroke-miterlimit="10"/>
<path d="M583.153 369.595L577.556 362.641L552.112 363.658L556.522 371.122L583.153 369.595Z" fill="#E9E9E9" stroke="#212629" stroke-width="0.5" stroke-miterlimit="10"/>
<path d="M553.979 370.274L584.512 368.578L620.642 426.59L578.235 426.251L553.979 370.274Z" fill="#E9E9E9" stroke="#212629" stroke-width="0.5" stroke-miterlimit="10"/>
<path d="M553.98 370.273H533.625L533.794 426.589L578.236 426.25L553.98 370.273Z" fill="#E9E9E9" stroke="#212629" stroke-width="0.5" stroke-miterlimit="10"/>
<path d="M562.799 426.589L513.269 298.522H480.361L527.008 426.589H562.799Z" fill="#E9E9E9" stroke="#212629" stroke-width="0.5" stroke-miterlimit="10"/>
<path d="M571.997 380.282C572.308 379.398 571.843 378.43 570.959 378.12C570.075 377.809 569.107 378.274 568.797 379.158C568.486 380.042 568.951 381.01 569.835 381.321C570.719 381.631 571.687 381.166 571.997 380.282Z" fill="#E9E9E9" stroke="#212629" stroke-width="0.5" stroke-miterlimit="10"/>
<path d="M573.826 379.943C573.656 380.791 572.808 381.469 571.96 381.3C571.112 381.13 570.433 380.282 570.603 379.434C570.772 378.586 571.621 377.907 572.469 378.077C573.317 378.247 573.826 379.095 573.826 379.943Z" fill="#E9E9E9" stroke="#212629" stroke-width="0.5" stroke-miterlimit="10"/>
<path d="M553.676 380.18C553.968 379.29 553.483 378.331 552.593 378.039C551.703 377.747 550.744 378.232 550.452 379.123C550.16 380.013 550.645 380.971 551.536 381.263C552.426 381.555 553.384 381.07 553.676 380.18Z" fill="#E9E9E9" stroke="#212629" stroke-width="0.5" stroke-miterlimit="10"/>
<path d="M587.228 379.943C587.058 380.791 586.21 381.469 585.362 381.3C584.514 381.13 583.836 380.282 584.005 379.434C584.175 378.586 585.023 377.907 585.871 378.077C586.889 378.247 587.398 379.095 587.228 379.943Z" fill="#E9E9E9" stroke="#212629" stroke-width="0.5" stroke-miterlimit="10"/>
</g>
<defs>
<linearGradient id="paint0_linear_203_14263" x1="235.629" y1="147.462" x2="267.698" y2="139.084" gradientUnits="userSpaceOnUse">
<stop/>
<stop offset="1" stop-color="white"/>
</linearGradient>
<linearGradient id="paint1_linear_203_14263" x1="532.84" y1="174.767" x2="565.262" y2="181.648" gradientUnits="userSpaceOnUse">
<stop/>
<stop offset="1" stop-color="white"/>
</linearGradient>
<linearGradient id="paint2_linear_203_14263" x1="495.61" y1="316.629" x2="528.743" y2="315.734" gradientUnits="userSpaceOnUse">
<stop/>
<stop offset="1" stop-color="white"/>
</linearGradient>
<linearGradient id="paint3_linear_203_14263" x1="539.636" y1="242.26" x2="572.534" y2="246.291" gradientUnits="userSpaceOnUse">
<stop/>
<stop offset="1" stop-color="white"/>
</linearGradient>
<linearGradient id="paint4_linear_203_14263" x1="379.428" y1="233.84" x2="428.868" y2="235.282" gradientUnits="userSpaceOnUse">
<stop/>
<stop offset="1" stop-color="white"/>
</linearGradient>
<linearGradient id="paint5_linear_203_14263" x1="400.843" y1="147.527" x2="449.464" y2="156.609" gradientUnits="userSpaceOnUse">
<stop/>
<stop offset="1" stop-color="white"/>
</linearGradient>
<linearGradient id="paint6_linear_203_14263" x1="563.535" y1="408.673" x2="563.535" y2="158.21" gradientUnits="userSpaceOnUse">
<stop stop-color="white"/>
<stop offset="1"/>
</linearGradient>
</defs>
</svg>
