<svg width="18" height="19" fill="none" xmlns="http://www.w3.org/2000/svg"><path d="M13.803 12c-2.4 2.6-6.4 5.2-10.1 5.9-2.7.6-3.7 0-3.7-.8-.1-1.2 2.4-1.7 5.4-4.9 3.2-3.4 3.3-7.4 5.6-9.2 1.7-1.3 3.5-.6 4.2 0 3.5 2.8.6 6.9-1.4 9z" fill="url(#paint0_radial_203_5684)"/><path d="M15.803 3.1c.4-.7 1-2.2 1.1-2.9l-.8-.2c-.2.8-.7 2.1-1.1 2.5-2.2-1.3-3.7.3-4.9.1 1.5 1.4 3 .6 3 .6-.6 1 .1 2.5.1 2.5s1.5-.1 2.3-1.1c-.1 2.3 1.9 2.4 1.9 2.4-.6-1-.2-2.7-1.6-3.9z" fill="url(#paint1_radial_203_5684)"/><path d="M7.103 11.5c-2.6 3.2-4.4 3.8-4.3 4.4 0 .3 1.1 0 2.5-.8s3-2 4.1-3.6c1.1-1.6 2-3.1 2.3-4.2.3-1.1.3-1.9-.4-2-.8-.3-1.1.4-1.6 1.5-.5 1.2-1.1 2.8-2.6 4.7z" fill="#E51818"/><path d="M11.303 5.1c.7.1.8.9.4 2l-.3.9c-.4 1-1.1 2.2-2 3.4-.7 1-1.6 1.8-2.5 2.5-.5.4-1.1.8-1.6 1.1-1.3.8-2.4 1.1-2.5.8 0-.3.4-.6 1.1-1.2.8-.6 1.9-1.6 3.2-3.2.2-.2.4-.5.5-.7 1-1.4 1.5-2.6 1.9-3.6.1 0 .2-.1.2-.3.5-1.1.8-1.7 1.6-1.7z" fill="#E51919"/><path d="M11.302 5.2c.7.1.8.9.4 2l-.3.9c-.4 1-1.1 2.2-2 3.4-.7 1-1.6 1.8-2.5 2.5-.5.4-1.1.8-1.6 1.1-1.3.8-2.4 1.1-2.4.8 0-.3.4-.6 1.1-1.2.8-.6 1.8-1.6 3.1-3.2.2-.2.4-.5.5-.7 1-1.4 1.5-2.6 1.9-3.6.1-.1.2-.2.2-.4.5-1.1.8-1.7 1.6-1.6 0-.1 0 0 0 0z" fill="#E51919"/><path d="M11.302 5.2c.7.1.8.9.4 2l-.3.9c-.4 1-1.1 2.2-2 3.4-.7 1-1.6 1.8-2.5 2.5-.5.4-1.1.8-1.6 1.1-1.3.8-2.4 1.1-2.4.8 0-.3.4-.6 1.1-1.2.8-.6 1.8-1.6 3.1-3.2.2-.2.4-.5.5-.7 1-1.4 1.5-2.6 1.9-3.5.1-.2.2-.3.2-.5.5-1.1.8-1.7 1.6-1.6z" fill="#E51A1A"/><path d="M11.302 5.2c.7.1.8.9.4 2l-.3.9c-.4 1-1.1 2.1-2 3.3-.7 1-1.6 1.8-2.5 2.5-.5.4-1.1.8-1.6 1.1-1.3.8-2.4 1.1-2.4.8 0-.3.4-.6 1.1-1.2.8-.6 1.9-1.6 3.2-3.2.2-.2.4-.5.5-.7 1-1.4 1.5-2.6 1.9-3.5 0-.1.1-.2.1-.4.5-1.1.8-1.7 1.6-1.6z" fill="#E51B1B"/><path d="M11.302 5.2c.7.1.8.9.4 2l-.3.9c-.4 1-1.1 2.1-2 3.3-.7.9-1.6 1.8-2.5 2.5-.5.4-1.1.8-1.6 1.1-1.3.7-2.3 1-2.4.8 0-.3.4-.6 1.1-1.2.8-.6 1.9-1.6 3.2-3.2.2-.2.4-.5.5-.7 1-1.4 1.5-2.6 1.9-3.5 0-.1.1-.2.1-.4.5-1.1.8-1.7 1.6-1.6z" fill="#E51C1C"/><path d="M11.302 5.2c.7.1.8.9.4 2l-.3.9c-.4 1-1.1 2.1-2 3.3-.7.9-1.6 1.8-2.4 2.5-.5.4-1.1.8-1.6 1.1-1.4.7-2.4 1-2.5.7 0-.3.4-.6 1.1-1.2.8-.5 1.9-1.5 3.2-3.1.2-.2.4-.5.5-.7 1-1.3 1.5-2.6 1.9-3.5 0-.1.1-.2.1-.3.5-1.2.8-1.8 1.6-1.7z" fill="#E51C1C"/><path d="M11.303 5.2c.7.1.7.9.4 2l-.3.9c-.4 1-1.1 2.1-2 3.3-.7.9-1.6 1.8-2.4 2.5-.5.4-1.1.8-1.6 1.1-1.3.7-2.4 1-2.4.7 0-.3.4-.6 1.1-1.2.7-.5 1.8-1.5 3.1-3.1.2-.2.4-.5.5-.7.9-1.3 1.5-2.6 1.9-3.5 0-.1.1-.2.1-.3.5-1.2.8-1.8 1.6-1.7z" fill="#E61D1D"/><path d="M11.303 5.2c.7.1.7.9.4 2-.1.3-.2.5-.3.9-.4 1-1.1 2.1-2 3.3-.7.9-1.5 1.8-2.4 2.5-.5.4-1.1.8-1.6 1.1-1.3.7-2.4 1-2.4.7 0-.3.4-.6 1.1-1.2.8-.6 1.8-1.6 3.1-3.1.2-.2.4-.5.5-.7.9-1.3 1.5-2.6 1.9-3.5 0-.1.1-.2.1-.3.5-1.2.8-1.8 1.6-1.7z" fill="#E61E1E"/><path d="M11.303 5.2c.7.1.7.9.4 2-.1.3-.2.5-.3.8-.4 1-1.1 2.1-2 3.3-.7.9-1.5 1.8-2.4 2.5-.5.4-1.1.8-1.6 1.1-1.3.7-2.4 1.1-2.4.8 0-.3.4-.6 1.1-1.2.8-.6 1.8-1.6 3.1-3.1.2-.2.4-.5.5-.7.9-1.3 1.5-2.6 1.9-3.5 0-.1.1-.2.1-.3.5-1.2.8-1.8 1.6-1.7z" fill="#E61E1E"/><path d="M11.303 5.2c.7.1.7.9.4 2-.1.3-.2.5-.3.8-.4 1-1.1 2.1-2 3.3-.7.9-1.5 1.8-2.4 2.5-.5.4-1.1.8-1.6 1.1-1.3.7-2.3 1.1-2.4.8 0-.3.4-.6 1.1-1.2.8-.6 1.9-1.5 3.1-3.1.2-.2.4-.5.5-.7.9-1.3 1.5-2.5 1.9-3.5 0-.1.1-.2.1-.3.5-1.1.8-1.8 1.6-1.7z" fill="#E61F1F"/><path d="M11.303 5.2c.6.1.7.9.4 2-.1.3-.2.5-.3.8-.4 1-1.1 2.1-2 3.3-.7.9-1.5 1.8-2.4 2.4-.5.4-1.1.8-1.6 1.1-1.3.8-2.3 1.1-2.4.8 0-.3.4-.6 1.1-1.2.8-.5 1.9-1.4 3.1-3 .2-.2.4-.5.5-.7.9-1.3 1.5-2.5 1.9-3.5 0-.1.1-.2.1-.3.5-1.1.8-1.8 1.6-1.7z" fill="#E62020"/><path d="M11.303 5.2c.6.1.7.9.4 2-.1.3-.2.5-.3.8-.4 1-1.1 2.1-1.9 3.3-.7.9-1.5 1.8-2.4 2.4-.5.4-1.1.8-1.6 1.1-1.3.8-2.3 1.1-2.4.8 0-.3.4-.6 1.1-1.2.8-.6 1.8-1.6 3.1-3.1.2-.2.4-.5.5-.7.9-1.3 1.5-2.5 1.9-3.5-.1 0 0-.1 0-.2.5-1.1.8-1.8 1.6-1.7z" fill="#E62121"/><path d="M11.303 5.2c.6.1.7.9.4 2-.1.3-.2.5-.3.8-.4 1-1.1 2.1-1.9 3.3-.7.9-1.5 1.8-2.4 2.4-.5.4-1.1.8-1.6 1.1-1.3.8-2.3 1.1-2.4.8 0-.3.4-.6 1.1-1.2.8-.6 1.8-1.6 3-3.1.2-.2.4-.5.5-.7.9-1.3 1.5-2.5 1.8-3.5.2 0 .2-.1.2-.2.5-1.1.8-1.8 1.6-1.7z" fill="#E62121"/><path d="M11.303 5.2c.6.1.7.9.4 2-.1.3-.2.5-.3.8-.4 1-1.1 2.1-1.9 3.3-.8.9-1.6 1.7-2.5 2.4-.5.4-1.1.8-1.6 1.1-1.3.8-2.3 1.1-2.4.8 0-.3.4-.6 1.1-1.2.8-.6 1.8-1.6 3-3.1.2-.2.3-.5.5-.7.9-1.3 1.5-2.5 1.8-3.5.3 0 .3-.1.4-.2.4-1.1.7-1.8 1.5-1.7z" fill="#E62222"/><path d="M11.303 5.2c.6.1.7.9.4 2-.1.3-.2.5-.3.8-.4 1-1.1 2.1-1.9 3.3-.8.9-1.6 1.7-2.5 2.4-.5.4-1.1.8-1.5 1.1-1.3.8-2.3 1.1-2.4.8 0-.3.4-.6 1.1-1.1.8-.6 1.8-1.6 3-3.1.2-.2.3-.5.5-.7.9-1.3 1.4-2.5 1.8-3.5.2-.1.2-.2.3-.3.4-1.1.7-1.8 1.5-1.7z" fill="#E62323"/><path d="M11.303 5.2c.6.1.7.9.4 2-.1.3-.2.5-.3.8-.4 1-1.1 2.1-1.9 3.3-.8.9-1.6 1.7-2.5 2.4-.5.4-1 .8-1.5 1.1-1.3.8-2.3 1.1-2.3.8 0-.3.4-.6 1.1-1.1.7-.6 1.8-1.6 3-3.1.2-.2.3-.5.5-.7.9-1.3 1.4-2.5 1.8-3.4.1-.2.1-.3.2-.4.4-1.1.7-1.8 1.5-1.7z" fill="#E62323"/><path d="M11.303 5.2c.6.1.7.9.4 2-.1.3-.2.5-.3.8-.4 1-1.1 2.1-1.9 3.2-.7.9-1.5 1.7-2.4 2.4-.5.4-1 .8-1.5 1.1-1.3.8-2.3 1.1-2.3.8 0-.3.4-.6 1.1-1.1.7-.6 1.8-1.5 3-3.1.2-.2.3-.5.5-.7.9-1.3 1.4-2.5 1.8-3.4 0-.1 0-.2.1-.3.4-1.1.7-1.8 1.5-1.7z" fill="#E62424"/><path d="M11.303 5.2c.6.1.7.9.3 2-.1.3-.2.5-.3.8-.4 1-1.1 2.1-1.9 3.2-.7.9-1.5 1.7-2.4 2.4-.5.4-1 .8-1.5 1.1-1.3.8-2.3 1.1-2.3.8 0-.3.4-.6 1.1-1.1.7-.6 1.8-1.5 3-3.1.2-.2.3-.5.5-.7.9-1.3 1.4-2.5 1.8-3.4.1-.1.1-.2.2-.3.4-1.1.7-1.8 1.5-1.7z" fill="#E62525"/><path d="M11.303 5.2c.6.1.7.9.3 2-.1.3-.2.5-.3.8-.4 1-1.1 2.1-1.9 3.2-.7.9-1.5 1.7-2.4 2.4-.5.4-1 .8-1.5 1.1-1.3.8-2.3 1.1-2.3.8 0-.3.4-.6 1.1-1.1.7-.6 1.8-1.5 3-3.1.2-.2.3-.5.5-.7.9-1.3 1.4-2.5 1.8-3.4.1-.1.1-.2.2-.3.4-1.1.7-1.8 1.5-1.7z" fill="#E72626"/><path d="M11.303 5.2c.6.1.7.9.3 2-.1.3-.2.5-.3.8-.4.9-1.1 2.1-1.9 3.2-.7.9-1.5 1.7-2.3 2.4-.5.4-1 .8-1.5 1.1-1.2.8-2.3 1.1-2.3.8 0-.3.4-.6 1.1-1.1.7-.6 1.8-1.5 3-3.1.2-.2.3-.5.5-.7.9-1.3 1.4-2.5 1.8-3.4 0-.1 0-.2.1-.3.4-1.1.7-1.8 1.5-1.7z" fill="#E72626"/><path d="M11.303 5.2c.6.1.7.9.3 1.9-.1.3-.2.5-.3.8-.4.9-1.1 2.1-1.9 3.2-.7.9-1.5 1.7-2.3 2.4-.5.4-1 .8-1.5 1.1-1.2.8-2.3 1.1-2.3.8 0-.3.4-.6 1.1-1.1.7-.6 1.8-1.5 3-3.1.2-.2.3-.4.5-.7.9-1.3 1.4-2.5 1.8-3.4 0 0 0-.1.1-.2.4-1.1.7-1.8 1.5-1.7z" fill="#E72727"/><path d="M11.303 5.2c.6.1.7.9.3 1.9-.1.3-.2.5-.3.8-.4.9-1.1 2.1-1.9 3.2-.7.9-1.5 1.7-2.3 2.4-.5.4-1 .8-1.5 1.1-1.2.7-2.2 1.1-2.3.8 0-.3.4-.6 1.1-1.1.7-.6 1.8-1.5 3-3.1.2-.2.3-.4.5-.7.9-1.3 1.4-2.5 1.8-3.4 0 0 0-.1.1-.2.4-1.1.7-1.8 1.5-1.7z" fill="#E72828"/><path d="M11.303 5.2c.6.1.7.9.3 1.9-.1.3-.2.5-.3.8-.4.9-1.1 2-1.9 3.2-.6.9-1.5 1.7-2.3 2.4-.5.4-1 .8-1.5 1.1-1.2.7-2.2 1.1-2.3.8 0-.3.4-.6 1.1-1.1.7-.6 1.8-1.5 3-3.1.2-.2.3-.4.5-.7.9-1.3 1.4-2.5 1.8-3.4 0-.1.1-.2.1-.3.4-1 .7-1.6 1.5-1.6z" fill="#E72828"/><path d="M11.303 5.2c.6.1.7.9.3 1.9-.1.3-.2.5-.3.8-.4.9-1.1 2-1.9 3.2-.6.9-1.5 1.7-2.3 2.4-.5.4-1 .8-1.5 1.1-1.2.7-2.2 1.1-2.3.8 0-.3.4-.6 1.1-1.1.7-.6 1.8-1.5 3-3.1.2-.2.3-.4.5-.7.9-1.3 1.4-2.5 1.8-3.4 0-.1.1-.2.1-.3.4-1 .7-1.6 1.5-1.6z" fill="#E72929"/><path d="M11.303 5.2c.6.1.7.9.3 1.9-.1.3-.2.5-.3.8-.4.9-1.1 2-1.9 3.2-.6.9-1.5 1.7-2.3 2.4-.5.4-1 .8-1.5 1.1-1.2.7-2.2 1.1-2.3.8 0-.3.4-.6 1.1-1.1.7-.6 1.8-1.5 2.9-3.1.2-.2.3-.4.5-.7.9-1.3 1.4-2.5 1.8-3.4 0-.1.1-.2.1-.3.5-1 .9-1.6 1.6-1.6z" fill="#E72A2A"/><path d="M11.303 5.2c.6.1.7.9.3 1.9-.1.3-.2.5-.3.8-.4.9-1.1 2-1.9 3.2-.6.9-1.5 1.7-2.3 2.4-.5.4-1 .8-1.5 1.1-1.2.7-2.2 1.1-2.3.8 0-.3.4-.6 1.1-1.1.7-.6 1.8-1.5 2.9-3.1.2-.2.3-.4.5-.7.9-1.3 1.4-2.5 1.8-3.4 0-.1.1-.2.1-.3.5-1 .9-1.6 1.6-1.6z" fill="#E72B2B"/><path d="M11.303 5.3c.6.1.7.9.3 1.9-.1.3-.2.5-.3.8-.4.9-1 2-1.9 3.2-.6.9-1.5 1.7-2.3 2.4-.5.4-1 .8-1.5 1.1-1.2.7-2.2 1.1-2.3.8 0-.3.4-.6 1.1-1.1.7-.6 1.8-1.5 2.9-3 .2-.2.3-.4.5-.7.9-1.3 1.4-2.5 1.8-3.4 0-.1.1-.2.1-.3.5-1.2.9-1.8 1.6-1.7 0-.1 0-.1 0 0z" fill="#E72B2B"/><path d="M11.302 5.3c.6.1.7.9.3 1.9-.1.3-.2.5-.3.8-.4.9-1 2-1.9 3.2-.6.8-1.4 1.6-2.2 2.3-.5.4-1 .8-1.5 1.1-1.2.7-2.2 1.1-2.3.8 0-.3.4-.6 1.1-1.1.7-.6 1.7-1.5 2.9-3 .2-.2.3-.4.5-.7.9-1.3 1.4-2.4 1.8-3.4 0-.1.1-.2.1-.3.4-1.1.8-1.7 1.5-1.6z" fill="#E72C2C"/><path d="M11.302 5.3c.6.1.7.8.3 1.9-.1.3-.2.5-.3.8-.4.9-1 2-1.9 3.2-.6.8-1.4 1.6-2.2 2.3-.5.4-1 .8-1.5 1.1-1.2.7-2.2 1.1-2.3.8 0-.3.4-.6 1.1-1.1.7-.6 1.7-1.5 2.9-3 .2-.2.3-.4.5-.7.9-1.3 1.4-2.4 1.8-3.4 0-.1.1-.2.1-.3.5-1.1.8-1.7 1.5-1.6z" fill="#E72D2D"/><path d="M11.303 5.3c.6.1.7.8.3 1.9-.1.3-.2.5-.3.8-.4.9-1 2-1.9 3.1-.6.9-1.4 1.7-2.2 2.4-.5.4-1 .8-1.5 1-1.2.7-2.2 1.1-2.2.8 0-.3.4-.6 1.1-1.1.7-.6 1.7-1.5 2.9-3 .2-.2.3-.4.5-.7.9-1.3 1.4-2.4 1.8-3.3 0-.1.1-.2.1-.3.4-1.1.7-1.7 1.4-1.6z" fill="#E72D2D"/><path d="M11.303 5.3c.6.1.7.8.3 1.9-.1.3-.2.5-.3.8-.4.9-1 2-1.8 3.1-.7.9-1.5 1.7-2.3 2.4-.5.4-1 .8-1.5 1-1.2.7-2.2 1.1-2.2.8 0-.3.4-.6 1.1-1.1.7-.6 1.7-1.5 2.9-3 .2-.2.3-.4.5-.7.9-1.3 1.4-2.4 1.8-3.3 0-.1.1-.2.1-.3.4-1.1.7-1.7 1.4-1.6z" fill="#E72E2E"/><path d="M11.303 5.3c.6.1.6.8.3 1.9-.1.2-.2.5-.3.8-.4.9-1 2-1.8 3.1-.7.9-1.5 1.7-2.3 2.4-.5.4-1 .8-1.5 1-1.2.7-2.2 1.1-2.2.8 0-.3.4-.6 1.1-1.1.7-.6 1.7-1.5 2.9-3 .2-.2.3-.4.5-.7.9-1.3 1.4-2.4 1.8-3.3 0-.1.1-.2.1-.3.4-1.1.7-1.7 1.4-1.6z" fill="#E82F2F"/><path d="M11.303 5.3c.6.1.6.8.3 1.9-.1.2-.2.5-.3.8-.4.9-1 2-1.8 3.1-.7.9-1.5 1.7-2.3 2.3-.5.4-1 .8-1.5 1-1.2.7-2.1 1-2.2.8 0-.3.4-.6 1.1-1.1.7-.6 1.7-1.5 2.9-3 .2-.2.3-.4.5-.7.9-1.3 1.4-2.4 1.8-3.3 0-.1.1-.2.1-.3.4-1 .7-1.6 1.4-1.5z" fill="#E83030"/><path d="M11.303 5.3c.6.1.6.8.3 1.9-.1.2-.2.5-.3.8-.4.9-1 2-1.8 3.1-.7.9-1.5 1.7-2.3 2.3-.5.4-1 .8-1.5 1-1.2.7-2.1 1-2.2.8 0-.3.4-.6 1.1-1.1.7-.6 1.7-1.5 2.9-3 .2-.2.3-.4.5-.7.9-1.3 1.4-2.4 1.7-3.3 0-.1.1-.2.1-.3.5-1 .8-1.6 1.5-1.5-.1 0 0 0 0 0z" fill="#E83030"/><path d="M11.303 5.3c.6.1.6.8.3 1.9-.1.2-.2.5-.3.8-.4.9-1 2-1.8 3.1-.7.9-1.5 1.6-2.3 2.3-.5.4-1 .8-1.5 1-1.2.7-2.1 1-2.2.8 0-.3.4-.6 1.1-1.1.7-.6 1.7-1.5 2.9-3 .2-.2.3-.4.5-.7.9-1.3 1.4-2.4 1.7-3.3 0-.1.1-.2.1-.3.5-1 .8-1.6 1.5-1.5-.1 0 0 0 0 0z" fill="#E83131"/><path d="M11.303 5.3c.6.1.6.8.3 1.9-.1.2-.2.5-.3.8-.4.9-1 2-1.8 3.1-.6.9-1.4 1.7-2.2 2.3-.5.4-1 .8-1.4 1-1.2.7-2.1 1-2.2.8 0-.3.4-.6 1-1.1.7-.6 1.7-1.5 2.9-3 0-.1.2-.4.4-.6.9-1.3 1.4-2.4 1.7-3.3 0-.1.1-.2.1-.3.5-1.1.8-1.7 1.5-1.6-.1 0 0 0 0 0z" fill="#E83232"/><path d="M11.303 5.3c.6.1.6.8.3 1.9-.1.2-.2.5-.3.8-.4.9-1 2-1.8 3.1-.6.9-1.4 1.7-2.2 2.3-.5.4-1 .8-1.4 1-1.2.7-2.1 1-2.2.9 0-.3.4-.6 1-1.1.7-.6 1.7-1.5 2.8-3 .2-.2.3-.5.5-.7.9-1.3 1.4-2.4 1.7-3.3 0-.1.1-.2.1-.3.5-1 .8-1.7 1.5-1.6-.1 0 0 0 0 0z" fill="#E83333"/><path d="M11.303 5.3c.6.1.6.8.3 1.9-.1.2-.2.5-.3.8-.4.9-1 2-1.8 3.1-.6.9-1.4 1.7-2.2 2.3-.5.4-1 .7-1.4 1-1.2.7-2.1 1-2.2.9 0-.3.4-.6 1-1.1.7-.6 1.7-1.5 2.8-3 .2-.2.3-.4.5-.6.9-1.3 1.4-2.4 1.7-3.3 0-.1.1-.2.1-.3.5-1.1.8-1.8 1.5-1.7-.1 0 0 0 0 0z" fill="#E83333"/><path d="M11.303 5.3c.6.1.6.8.3 1.9-.1.2-.2.5-.3.8-.4.9-1 2-1.8 3.1-.6.9-1.4 1.6-2.2 2.3-.5.4-1 .7-1.4 1-1.1.7-2.1 1-2.2.9 0-.3.4-.6 1-1.1.7-.6 1.7-1.5 2.8-3 .2-.2.3-.4.5-.6.9-1.3 1.4-2.4 1.7-3.3 0-.1.1-.2.1-.3.5-1.1.8-1.8 1.5-1.7-.1 0 0 0 0 0z" fill="#E83434"/><path d="M11.303 5.3c.6.1.6.8.3 1.9-.1.2-.2.5-.3.8-.4.9-1 2-1.8 3.1-.6.9-1.4 1.6-2.2 2.3-.5.4-1 .7-1.4 1-1.1.7-2.1 1-2.2.9 0-.3.4-.6 1-1.1.7-.6 1.7-1.5 2.8-3 .2-.2.3-.4.5-.6.9-1.2 1.3-2.4 1.7-3.3 0-.1.1-.2.1-.3.5-1.1.8-1.8 1.5-1.7-.1 0 0 0 0 0z" fill="#E83535"/><path d="M11.303 5.3c.6.1.6.8.3 1.9-.1.2-.2.5-.3.8-.4.9-1 2-1.8 3.1-.6.9-1.4 1.6-2.2 2.3-.5.4-1 .7-1.4 1-1.1.7-2.1 1-2.2.9 0-.3.4-.6 1-1.1.7-.6 1.7-1.5 2.8-3 .2-.2.3-.4.5-.6.9-1.2 1.3-2.4 1.7-3.3 0-.1.1-.2.1-.3.5-1.1.8-1.8 1.5-1.7-.1 0 0 0 0 0z" fill="#E83535"/><path d="M11.303 5.3c.5.1.6.8.3 1.9-.1.2-.2.5-.3.8-.4.9-1 1.9-1.8 3.1-.6.9-1.4 1.6-2.2 2.3-.5.4-1 .7-1.4 1-1.1.7-2.1 1-2.2.9 0-.3.4-.6 1-1.1.7-.6 1.7-1.5 2.8-3 .2-.2.3-.4.5-.6.9-1.2 1.3-2.4 1.7-3.3 0-.1.1-.2.1-.3.5-1.1.8-1.8 1.5-1.7-.1 0 0 0 0 0z" fill="#E83636"/><path d="M11.303 5.3c.5.1.6.8.3 1.9-.1.2-.2.5-.3.8-.4.9-1 1.9-1.8 3-.6.9-1.4 1.6-2.2 2.3-.5.4-1 .7-1.4 1-1.1.7-2.1 1-2.2.9 0-.3.4-.6 1-1.1.7-.6 1.7-1.5 2.8-3 .2-.2.3-.4.5-.6.9-1.2 1.3-2.4 1.7-3.3 0-.1.1-.2.1-.3.5-1 .8-1.7 1.5-1.6-.1 0 0 0 0 0z" fill="#E83737"/><path d="M11.303 5.3c.5.1.6.8.3 1.9-.1.2-.2.5-.3.8-.4.9-1 1.9-1.8 3-.6.9-1.4 1.6-2.2 2.3-.5.4-1 .7-1.4 1-1.1.7-2 1-2.1.9 0-.3.4-.6 1-1.1.7-.6 1.7-1.5 2.8-3 .2-.2.3-.4.5-.6.8-1.2 1.3-2.4 1.7-3.2 0-.1.1-.2.1-.3.4-1.1.7-1.8 1.4-1.7-.1 0 0 0 0 0z" fill="#E93838"/><path d="M11.303 5.3c.5.1.6.8.3 1.8-.1.2-.2.5-.3.8-.4.9-1 1.9-1.8 3-.6.9-1.4 1.6-2.2 2.3-.5.4-.9.7-1.4 1-1.1.7-2 1-2.1.9 0-.3.4-.6 1-1.1.7-.6 1.7-1.5 2.8-3 .2-.2.3-.4.5-.6.8-1.2 1.3-2.4 1.7-3.2 0-.1.1-.2.1-.3.4-1 .7-1.7 1.4-1.6-.1 0 0 0 0 0z" fill="#E93838"/><path d="M11.303 5.3c.5.1.6.8.3 1.8-.1.2-.2.5-.3.8-.4.9-1 1.9-1.8 3-.6.8-1.4 1.6-2.2 2.3-.5.4-.9.7-1.4 1-1.1.7-2 1-2.1.9 0-.3.4-.5 1-1.1.7-.6 1.7-1.5 2.8-2.9.2-.2.3-.4.5-.6.8-1.2 1.3-2.3 1.7-3.2 0-.1.1-.2.1-.3.4-1.1.7-1.7 1.4-1.7-.1 0 0 0 0 0z" fill="#E93939"/><path d="M11.302 5.3c.5.1.6.8.3 1.8-.1.2-.2.5-.3.8-.4.9-1 1.9-1.8 3-.6.8-1.4 1.6-2.1 2.3-.5.4-.9.7-1.4 1-1.1.7-2 1-2.1.9 0-.3.4-.5 1-1.1.7-.6 1.7-1.5 2.8-2.9.2-.2.3-.4.5-.6.8-1.2 1.3-2.3 1.7-3.2 0-.1.1-.2.1-.3.3-1.1.6-1.7 1.3-1.7-.1 0 0 0 0 0z" fill="#E93A3A"/><path d="M11.302 5.3c.5.1.6.8.3 1.8-.1.2-.2.5-.3.8-.4.9-1 1.9-1.8 3-.6.8-1.4 1.6-2.1 2.3-.5.4-.9.7-1.4 1-1.1.7-2 1-2.1.9 0-.3.4-.5 1-1.1.7-.6 1.7-1.5 2.7-2.9.2-.2.3-.4.5-.6.8-1.2 1.3-2.3 1.7-3.2 0-.1.1-.2.1-.3.4-1.1.7-1.7 1.4-1.7-.1 0 0 0 0 0z" fill="#E93A3A"/><path d="M11.302 5.3c.5.1.6.8.3 1.8-.1.2-.2.5-.3.8-.4.9-1 1.9-1.8 3-.6.8-1.4 1.6-2.1 2.3-.5.4-.9.7-1.4 1-1.1.7-2 1-2.1.9 0-.3.4-.5 1-1.1.7-.6 1.7-1.5 2.7-2.9.2-.2.3-.4.5-.6.8-1.2 1.3-2.3 1.7-3.2 0-.1.1-.2.1-.3.4-1.1.7-1.7 1.4-1.7-.1 0 0 0 0 0z" fill="#E93B3B"/><path d="M11.302 5.3c.5.1.6.8.2 1.8-.1.2-.2.5-.3.8-.4.9-1 1.9-1.7 3-.6.8-1.3 1.6-2.1 2.3-.5.4-.9.7-1.4 1-1.1.7-2 1-2.1.9 0-.3.4-.5 1-1.1.7-.6 1.7-1.5 2.7-2.9.2-.2.3-.4.5-.6.8-1.2 1.3-2.3 1.7-3.2 0-.1.1-.2.1-.3.4-1.1.7-1.7 1.4-1.7-.1 0 0 0 0 0z" fill="#E93C3C"/><path d="M11.302 5.3c.5.1.6.8.2 1.8-.1.2-.2.5-.3.8-.4.9-1 1.9-1.7 3-.6.8-1.3 1.6-2.1 2.3-.5.4-.9.7-1.4 1-1.1.7-2 1-2.1.9 0-.3.4-.5 1-1.1.7-.6 1.7-1.5 2.7-2.9.2-.2.3-.4.5-.6.8-1.2 1.3-2.3 1.7-3.2 0-.1.1-.2.1-.3.4-1.1.7-1.7 1.4-1.7-.1 0 0 0 0 0z" fill="#E93D3D"/><path d="M11.302 5.4c.5.1.6.8.2 1.8-.1.2-.2.5-.3.8-.4.9-1 1.9-1.7 3-.6.8-1.3 1.6-2.1 2.3-.5.4-.9.7-1.4 1-1.1.7-2 1-2.1.9 0-.3.4-.5 1-1.1.7-.6 1.7-1.5 2.7-2.9.2-.2.3-.4.5-.6.8-1.2 1.3-2.3 1.7-3.2 0-.1.1-.2.1-.3.4-1.2.7-1.8 1.4-1.7-.1-.1 0-.1 0 0z" fill="#E93D3D"/><path d="M11.302 5.4c.5.1.6.8.2 1.8-.1.2-.2.5-.3.8-.4.9-1 1.9-1.7 3-.6.8-1.3 1.6-2.1 2.2-.5.4-.9.7-1.4 1-1.1.7-2 1-2.1.9 0-.3.4-.5 1-1.1.7-.6 1.7-1.5 2.7-2.9.2-.2.3-.4.4-.6.8-1.2 1.3-2.3 1.7-3.2 0-.1.1-.2.1-.3.5-1.1.8-1.7 1.5-1.6-.1-.1 0 0 0 0z" fill="#E93E3E"/><path d="M11.302 5.4c.5.1.6.8.2 1.8-.1.2-.2.5-.3.8-.4.9-1 1.9-1.7 3-.6.8-1.3 1.6-2.1 2.2-.5.4-.9.7-1.4 1-1.1.7-2 1-2.1.9 0-.3.4-.5 1-1.1.7-.6 1.6-1.5 2.7-2.9.2-.2.3-.4.4-.6.8-1.2 1.3-2.3 1.7-3.2 0-.1.1-.2.1-.3.5-1.1.8-1.7 1.5-1.6-.1 0 0 0 0 0z" fill="#E93F3F"/><path d="M11.302 5.4c.5.1.6.8.2 1.8-.1.2-.2.5-.3.8-.4.9-1 1.9-1.7 3-.6.8-1.3 1.6-2.1 2.2-.5.4-.9.7-1.4 1-1.1.7-2 1-2.1.9 0-.3.4-.5 1-1.1.7-.6 1.6-1.5 2.7-2.9.2-.2.3-.4.4-.6.8-1.2 1.3-2.3 1.6-3.2 0-.1.1-.2.1-.3.6-1.1.9-1.7 1.6-1.6-.1 0 0 0 0 0z" fill="#E93F3F"/><path d="M11.303 5.4c.5.1.6.8.2 1.8-.1.2-.2.5-.3.8-.4.9-1 1.9-1.7 2.9-.6.8-1.3 1.6-2.1 2.2-.5.4-.9.7-1.4 1-1 .7-1.9 1-2 .9 0-.3.4-.5 1-1.1.7-.6 1.6-1.5 2.7-2.9.2-.2.3-.4.4-.6.8-1.2 1.3-2.3 1.6-3.2 0-.1.1-.2.1-.3.5-1 .8-1.6 1.5-1.5-.1 0 0 0 0 0z" fill="#E94040"/><path d="M11.303 5.4c.5.1.5.8.2 1.8-.1.2-.2.5-.3.8-.4.9-1 1.9-1.7 2.9-.6.8-1.3 1.6-2.1 2.2-.5.4-.9.7-1.3 1-1.1.7-1.9 1-2 .9 0-.3.4-.5 1-1.1.7-.6 1.6-1.5 2.7-2.9.2-.2.3-.4.4-.6.8-1.2 1.3-2.3 1.6-3.1 0-.1.1-.2.1-.3.4-1.1.7-1.7 1.4-1.6-.1 0 0 0 0 0z" fill="#EA4141"/><path d="M11.303 5.4c.5.1.5.8.2 1.8-.1.2-.2.5-.3.7-.4.9-1 1.9-1.7 2.9-.6.8-1.3 1.6-2.1 2.2-.4.4-.9.7-1.3 1-1 .7-1.9 1-2 .9 0-.3.4-.5 1-1.1.7-.6 1.6-1.5 2.7-2.9.2-.2.3-.4.4-.6.8-1.1 1.2-2.2 1.6-3.1 0-.1.1-.2.1-.3.4-1 .7-1.6 1.4-1.5-.1 0 0 0 0 0z" fill="#EA4242"/><path d="M11.303 5.4c.5.1.5.8.2 1.8-.1.2-.2.5-.3.7-.4.9-1 1.9-1.7 2.9-.6.8-1.3 1.6-2.1 2.2-.4.4-.9.7-1.3 1-1 .7-1.9 1-2 .9 0-.3.4-.5 1-1.1.7-.6 1.6-1.5 2.7-2.9.2-.2.3-.4.4-.6.8-1.1 1.2-2.2 1.6-3.1 0-.1.1-.2.1-.3.4-1 .7-1.6 1.4-1.5-.1 0 0 0 0 0z" fill="#EA4242"/><path d="M11.303 5.4c.5.1.5.8.2 1.8-.1.2-.2.5-.3.7-.4.9-.9 1.9-1.7 2.9-.6.8-1.3 1.6-2.1 2.2-.4.4-.9.7-1.3 1-1 .7-1.9 1-2 .9 0-.3.4-.5 1-1.1.7-.6 1.6-1.5 2.6-2.9.2-.2.3-.4.4-.6.9-1.1 1.3-2.2 1.7-3.1 0-.1.1-.2.1-.3.4-1 .7-1.6 1.4-1.5-.1 0 0 0 0 0z" fill="#EA4343"/><path d="M11.303 5.4c.5.1.5.8.2 1.8-.1.2-.2.5-.3.7-.4.8-.9 1.8-1.7 2.9-.6.8-1.3 1.6-2 2.2-.4.4-.9.7-1.3 1-1 .7-1.9 1-2 .9 0-.3.4-.5 1-1 .7-.6 1.6-1.5 2.6-2.9.2-.2.3-.4.4-.6.8-1.2 1.2-2.3 1.6-3.1 0-.1.1-.2.1-.3.4-1.1.7-1.7 1.4-1.6-.1 0-.1 0 0 0z" fill="#EA4444"/><path d="M11.303 5.4c.5.1.5.8.2 1.8-.1.2-.2.5-.3.7-.4.8-.9 1.8-1.7 2.9-.6.8-1.3 1.6-2 2.2-.4.4-.9.7-1.3 1-1 .7-1.9 1-2 .9 0-.3.4-.5 1-1 .7-.6 1.6-1.5 2.6-2.9.2-.2.3-.4.4-.6.8-1.2 1.2-2.3 1.6-3.2 0-.1.1-.2.1-.3.4-1 .7-1.6 1.4-1.5-.1 0-.1 0 0 0z" fill="#EA4444"/><path d="M11.303 5.4c.5.1.5.8.2 1.8-.1.2-.2.5-.3.7-.4.8-.9 1.8-1.7 2.9-.6.8-1.3 1.6-2 2.2-.4.4-.9.7-1.3 1-1 .7-1.9 1-2 .9 0-.3.4-.5 1-1 .7-.6 1.6-1.5 2.6-2.9.2-.2.3-.4.4-.6.8-1.2 1.2-2.3 1.6-3.1 0-.1.1-.2.1-.3.4-1 .7-1.7 1.4-1.6-.1 0-.1 0 0 0z" fill="#EA4545"/><path d="M11.303 5.4c.5.1.5.8.2 1.8-.1.2-.2.5-.3.7-.4.8-.9 1.8-1.7 2.9-.6.8-1.3 1.5-2 2.2-.4.4-.9.7-1.3 1-1 .7-1.9 1-2 .9 0-.3.4-.5 1-1 .7-.6 1.6-1.5 2.6-2.8.2-.2.3-.4.4-.6.8-1.3 1.2-2.4 1.6-3.2 0-.1.1-.2.1-.3.4-1 .7-1.7 1.4-1.6-.1 0-.1 0 0 0z" fill="#EA4646"/><path d="M11.303 5.4c.5.1.5.8.2 1.8-.1.2-.2.5-.3.7-.4.8-.9 1.8-1.7 2.9-.6.8-1.3 1.5-2 2.2-.4.4-.9.7-1.3 1-1 .7-1.9 1-2 .9 0-.3.4-.5 1-1 .7-.6 1.6-1.5 2.6-2.8.2-.2.3-.4.4-.6.8-1.3 1.2-2.4 1.6-3.2 0-.1.1-.2.1-.3.4-1 .7-1.7 1.4-1.6-.1 0-.1 0 0 0z" fill="#EA4747"/><path d="M11.303 5.4c.5.1.5.8.2 1.8-.1.2-.2.5-.3.7-.4.8-.9 1.8-1.7 2.9-.6.8-1.3 1.5-2 2.2-.4.4-.9.7-1.3 1-1 .7-1.9 1-2 .9.1-.3.4-.5 1-1 .7-.6 1.6-1.5 2.6-2.8.2-.2.3-.4.4-.6.8-1.3 1.3-2.4 1.6-3.2 0-.1.1-.2.1-.3.4-1 .7-1.7 1.4-1.6-.1 0-.1 0 0 0z" fill="#EA4747"/><path d="M11.303 5.4c.5.1.5.8.2 1.8-.1.2-.2.5-.3.7-.4.8-.9 1.8-1.7 2.9-.6.8-1.3 1.5-2 2.2-.4.4-.9.7-1.3 1-1 .7-1.8 1-2 .9.1-.3.4-.5 1-1 .7-.6 1.6-1.5 2.6-2.8.2-.2.3-.4.4-.6.8-1.3 1.3-2.4 1.6-3.2 0-.1.1-.2.1-.3.5-1 .7-1.7 1.4-1.6-.1 0-.1 0 0 0z" fill="#EA4848"/><path d="M11.303 5.4c.5.1.5.8.2 1.8-.1.2-.2.5-.3.7-.4.8-.9 1.8-1.7 2.9-.6.8-1.3 1.5-2 2.2-.4.4-.9.7-1.3 1-1 .7-1.8 1-2 .9.1-.3.4-.5 1-1 .7-.6 1.6-1.5 2.6-2.8.2-.2.3-.4.4-.6.8-1.3 1.3-2.4 1.6-3.2 0-.1.1-.2.1-.3.5-1 .7-1.7 1.4-1.6-.1 0-.1 0 0 0z" fill="#EA4949"/><path d="M11.303 5.4c.5.1.5.8.2 1.7-.1.2-.2.5-.3.7-.4.8-.9 1.8-1.6 2.8-.6.8-1.3 1.5-2 2.2-.4.4-.9.7-1.3 1-1 .7-1.8 1-2 .9.1-.3.4-.5 1-1 .7-.6 1.6-1.5 2.6-2.8.2-.2.3-.4.4-.6.7-1.2 1.2-2.2 1.5-3 0-.1.1-.2.1-.3.5-1 .8-1.6 1.4-1.6-.1 0-.1 0 0 0z" fill="#EA4949"/><path d="M11.303 5.4c.5.1.5.8.2 1.7-.1.2-.2.5-.3.7-.4.8-.9 1.8-1.6 2.8-.6.8-1.3 1.5-2 2.2-.4.4-.9.7-1.3 1-1 .7-1.8 1-2 .9.1-.3.4-.5 1-1 .7-.6 1.6-1.5 2.6-2.8.2-.2.3-.4.4-.6.7-1.2 1.2-2.2 1.5-3 .1-.1.1-.3.2-.4.4-.9.7-1.5 1.3-1.5-.1 0-.1 0 0 0z" fill="#EB4A4A"/><path d="M11.302 5.4c.5.1.5.8.2 1.7-.1.2-.2.5-.3.7-.4.8-.9 1.8-1.6 2.8-.6.8-1.2 1.5-2 2.2-.4.4-.9.7-1.3 1-1 .7-1.8 1-1.9.9.1-.3.4-.5 1-1 .7-.6 1.6-1.5 2.5-2.8.2-.2.3-.4.4-.6.8-1.2 1.2-2.2 1.6-3 0-.1 0-.3.1-.3.4-1 .7-1.6 1.3-1.6-.1 0-.1 0 0 0z" fill="#EB4B4B"/><path d="M11.302 5.4c.5.1.5.8.2 1.7-.1.2-.2.5-.3.7-.4.8-.9 1.8-1.6 2.8-.5.8-1.2 1.5-2 2.2-.4.4-.9.7-1.3 1-1 .7-1.8 1-1.9.9.1-.3.4-.5 1-1 .7-.6 1.6-1.5 2.5-2.8.2-.2.3-.4.4-.6.8-1.2 1.2-2.2 1.6-3 0-.1 0-.2.1-.3.4-1 .7-1.6 1.3-1.6-.1 0-.1 0 0 0z" fill="#EB4C4C"/><path d="M11.302 5.4c.4.1.5.8.2 1.7-.1.2-.2.5-.3.7-.4.8-.9 1.8-1.6 2.8-.5.8-1.2 1.5-2 2.2-.4.4-.9.7-1.3 1-1 .6-1.8 1-1.9.9.1-.3.4-.5 1-1 .6-.7 1.5-1.5 2.5-2.8.2-.2.3-.4.4-.6.8-1.2 1.2-2.2 1.6-3 0-.1 0-.2.1-.3.4-1 .7-1.6 1.3-1.6-.1 0-.1 0 0 0z" fill="#EB4C4C"/><path d="M11.302 5.4c.4.1.5.8.2 1.7-.1.2-.2.5-.3.7-.4.8-.9 1.8-1.6 2.8-.5.8-1.2 1.5-2 2.1-.4.4-.9.7-1.3 1-1 .6-1.8 1-1.9.9.1-.3.4-.5.9-1 .7-.6 1.6-1.5 2.5-2.8.2-.2.3-.4.4-.6.8-1.2 1.2-2.2 1.6-3 .1 0 .1-.1.2-.2.4-1 .7-1.6 1.3-1.6-.1 0-.1 0 0 0z" fill="#EB4D4D"/><path d="M11.303 5.4c.4.1.5.8.2 1.7-.1.2-.2.5-.3.7-.4.8-.9 1.8-1.6 2.8-.5.8-1.2 1.5-1.9 2.1-.4.4-.8.7-1.3 1-1 .6-1.8 1-1.9.9.1-.3.4-.5.9-1 .7-.6 1.6-1.5 2.5-2.8.2-.2.3-.4.4-.6.8-1.1 1.2-2.2 1.6-3 0 0 0-.1.1-.2.4-1 .7-1.6 1.3-1.6-.1 0-.1 0 0 0z" fill="#EB4E4E"/><path d="M11.303 5.4c.4.1.5.8.2 1.7-.1.2-.2.5-.3.7-.4.8-.9 1.8-1.6 2.8-.5.8-1.2 1.5-1.9 2.1-.4.4-.8.7-1.3 1-1 .6-1.8 1-1.9.9.1-.3.4-.5.9-1 .7-.6 1.6-1.5 2.5-2.8.1-.2.3-.4.4-.6.8-1.1 1.2-2.2 1.5-3 .1 0 .1-.1.2-.2.4-1 .7-1.6 1.3-1.6-.1 0-.1 0 0 0z" fill="#EB4E4E"/><path d="M11.303 5.4c.4.1.5.8.2 1.7-.1.2-.2.5-.3.7-.4.8-.9 1.8-1.6 2.8-.5.8-1.2 1.5-1.9 2.1-.4.4-.8.7-1.3 1-.9.6-1.8 1-1.9.9.1-.3.4-.5.9-1 .7-.6 1.6-1.5 2.5-2.7.1-.2.3-.4.4-.6.8-1.1 1.2-2.2 1.5-3 .1-.1.1-.2.2-.3.4-1 .7-1.6 1.3-1.6-.1 0-.1 0 0 0z" fill="#EB4F4F"/><path d="M11.303 5.5c.4.1.5.8.2 1.7-.1.2-.2.5-.3.7-.4.8-.9 1.8-1.6 2.8-.5.8-1.2 1.5-1.9 2.1-.4.4-.8.7-1.2 1-.9.6-1.7 1-1.9.9.1-.3.4-.5.9-1 .6-.7 1.5-1.6 2.4-2.9.1-.2.3-.4.4-.6.8-1.1 1.2-2.2 1.5-3 .1 0 .1-.1.2-.2.4-1 .7-1.6 1.3-1.5-.1-.1-.1 0 0 0z" fill="#EB5050"/><path d="M11.303 5.5c.4.1.5.8.2 1.7-.1.2-.2.5-.3.7-.4.8-.9 1.8-1.6 2.8-.5.8-1.2 1.5-1.9 2.1-.4.4-.8.7-1.2 1-.9.6-1.7.9-1.9.9.1-.3.4-.5.9-1 .6-.7 1.5-1.6 2.4-2.9.1-.2.3-.4.4-.6.8-1.1 1.2-2.2 1.5-3 .1 0 .1-.1.2-.2.4-1 .7-1.6 1.3-1.5-.1 0-.1 0 0 0z" fill="#EB5151"/><path d="M11.303 5.5c.4.1.5.8.2 1.7-.1.2-.2.5-.3.7-.4.8-.9 1.7-1.6 2.8-.5.8-1.2 1.5-1.9 2.1-.4.4-.8.7-1.2 1-.9.6-1.7.9-1.9.9.1-.3.4-.5.9-1 .7-.6 1.5-1.5 2.5-2.8.1-.2.3-.4.4-.6.7-1.1 1.2-2.2 1.5-3 0-.1 0-.2.1-.3.4-1 .7-1.6 1.3-1.5-.1 0-.1 0 0 0z" fill="#EB5151"/><path d="M11.303 5.5c.4.1.5.8.1 1.7-.1.2-.2.5-.3.7-.3.8-.9 1.7-1.6 2.8-.5.8-1.2 1.5-1.9 2.1-.4.4-.8.7-1.2 1-.9.6-1.7.9-1.9.9.1-.3.4-.5.9-1 .7-.6 1.5-1.5 2.5-2.8.1-.2.3-.4.4-.6.7-1.1 1.2-2.2 1.5-3 .1-.1.2-.2.2-.3.4-1 .7-1.6 1.3-1.5-.1 0-.1 0 0 0z" fill="#EB5252"/><path d="M11.303 5.5c.4.1.4.8.1 1.7-.1.2-.2.5-.3.7-.3.8-.9 1.7-1.6 2.7-.5.8-1.2 1.5-1.9 2.1-.4.4-.8.7-1.2 1-.9.6-1.7.9-1.9.9.1-.3.4-.5.9-1 .7-.7 1.5-1.5 2.5-2.8.1-.2.3-.4.4-.6.7-1.1 1.2-2.1 1.5-3 .1 0 .2-.1.2-.2.4-1 .7-1.6 1.3-1.5-.1 0-.1 0 0 0z" fill="#EC5353"/><path d="M11.202 5.5c.4.1.4.8.1 1.7-.1.2-.2.5-.3.7-.3.8-.9 1.7-1.6 2.7-.5.8-1.2 1.5-1.9 2.1-.4.4-.8.7-1.2 1-.9.6-1.7.9-1.9.9.1-.3.4-.5.9-1 .9-.7 1.7-1.6 2.7-2.8.1-.2.3-.4.4-.6.7-1.1 1.2-2.1 1.5-3 0 0 .1-.1.1-.2.4-1 .7-1.6 1.2-1.5z" fill="#EC5353"/><path d="M11.204 5.5c.4.1.4.8.1 1.7-.1.2-.2.4-.3.7-.3.8-.9 1.7-1.6 2.7-.4.7-1 1.4-1.7 2.1-.4.4-.8.7-1.2 1-.9.6-1.7.9-1.9.9.1-.3.4-.5.9-1 .7-.7 1.6-1.6 2.5-2.8.1-.2.3-.4.4-.6.7-1.1 1.2-2.1 1.5-2.9 0-.1.1-.2.1-.3.4-1 .7-1.6 1.2-1.5z" fill="#EC5454"/><path d="M11.203 5.5c.4.1.4.8.1 1.7-.1.2-.2.4-.3.7-.3.8-.9 1.7-1.6 2.7-.4.7-1 1.4-1.7 2.1-.4.4-.8.7-1.2 1-.9.6-1.7.9-1.8.9.1-.3.4-.5.9-1 .6-.7 1.5-1.6 2.4-2.8.1-.2.3-.4.4-.6.7-1.1 1.2-2.1 1.5-2.9 0-.1.1-.2.1-.3.4-1 .7-1.6 1.2-1.5z" fill="#EC5555"/><path d="M11.203 5.5c.4.1.4.8.1 1.7-.1.2-.2.4-.3.7-.3.8-.9 1.7-1.6 2.7-.4.7-1 1.4-1.7 2.1-.4.4-.8.7-1.2 1-.9.6-1.7.9-1.8.9.1-.3.4-.5.9-1 .7-.7 1.5-1.6 2.4-2.8.1-.2.3-.4.4-.6.7-1.1 1.2-2.1 1.5-2.9 0-.1.1-.2.1-.3.4-1 .7-1.6 1.2-1.5z" fill="#EC5656"/><path d="M11.203 5.5c.4.1.4.8.1 1.7-.1.2-.2.4-.3.7-.3.8-.9 1.7-1.6 2.7-.4.7-1 1.4-1.7 2-.4.4-.8.7-1.2 1-.9.6-1.7.9-1.8.9.1-.3.4-.5.9-1 .7-.7 1.5-1.5 2.4-2.7.1-.2.3-.4.4-.6.7-1.1 1.2-2.1 1.5-2.9 0-.1.1-.2.1-.3.4-1 .7-1.6 1.2-1.5z" fill="#EC5656"/><path d="M11.203 5.5c.4.1.4.8.1 1.7-.1.2-.2.4-.3.7-.3.8-.9 1.7-1.5 2.7-.5.7-1.1 1.4-1.8 2-.4.4-.8.7-1.2 1-.9.6-1.7.9-1.8.9.1-.3.4-.5.9-1 .7-.7 1.5-1.5 2.4-2.7.1-.2.3-.4.4-.6.7-1.1 1.2-2.1 1.5-2.9 0-.1.1-.2.1-.3.4-1 .7-1.6 1.2-1.5z" fill="#EC5757"/><path d="M11.203 5.5c.4.1.4.8.1 1.7-.1.2-.2.4-.3.7-.3.8-.9 1.7-1.5 2.7-.5.7-1.1 1.4-1.8 2-.4.4-.8.7-1.2 1-.9.6-1.7.9-1.8.9.1-.3.4-.5.9-1 .7-.7 1.5-1.5 2.4-2.7.1-.2.3-.4.4-.6.7-1.1 1.2-2.1 1.5-2.9 0-.1.1-.2.1-.3.4-1 .7-1.6 1.2-1.5z" fill="#EC5858"/><path d="M11.203 5.5c.4.1.4.8.1 1.7-.1.2-.2.4-.3.7-.3.8-.9 1.7-1.5 2.7-.5.7-1.2 1.4-1.8 2.1-.4.4-.8.7-1.2 1-.9.6-1.6.9-1.8.9.1-.3.4-.5.9-1 .7-.8 1.5-1.6 2.4-2.8.1-.2.3-.4.4-.6.7-1.1 1.1-2.1 1.5-2.9 0-.1.1-.2.1-.3.4-.9.7-1.6 1.2-1.5z" fill="#EC5858"/><path d="M11.203 5.5c.4.2.4.8.1 1.7-.1.2-.2.4-.3.7-.3.8-.9 1.7-1.5 2.7-.5.7-1.1 1.4-1.8 2.1-.4.4-.8.7-1.2 1-.9.6-1.6.9-1.8.9.1-.3.4-.5.9-1 .7-.7 1.5-1.5 2.4-2.7.1-.2.3-.4.4-.6.7-1.1 1.1-2.1 1.5-2.9 0-.2.1-.3.1-.4.4-.9.7-1.6 1.2-1.5z" fill="#EC5959"/><path d="M11.203 5.5c.4.2.4.8.1 1.6-.1.2-.2.4-.3.7-.3.8-.9 1.7-1.5 2.7-.5.7-1.1 1.4-1.8 2.1-.4.4-.8.7-1.2 1-.9.6-1.6.9-1.8.9.1-.3.4-.5.9-1 .7-.7 1.5-1.5 2.4-2.7.1-.2.3-.4.4-.6.7-1.1 1.1-2.1 1.5-2.9.1-.1.1-.2.1-.3.4-.9.7-1.5 1.2-1.5z" fill="#EC5A5A"/><path d="M11.203 5.5c.4.2.4.8.1 1.6-.1.2-.2.4-.3.7-.3.8-.8 1.7-1.5 2.7-.5.7-1.1 1.4-1.8 2.1-.4.4-.8.7-1.2 1-.9.6-1.6.9-1.8.9.1-.3.4-.5.9-1 .7-.7 1.5-1.5 2.4-2.7.1-.2.3-.4.4-.6.7-1.1 1.1-2.1 1.5-2.9.1-.1.1-.2.1-.3.4-.9.7-1.5 1.2-1.5z" fill="#EC5B5B"/><path d="M11.203 5.5c.4.2.4.8.1 1.6-.1.2-.2.4-.3.7-.3.8-.8 1.7-1.5 2.7-.5.7-1.1 1.4-1.8 2.1-.4.4-.8.7-1.2 1-.9.6-1.6.9-1.8.9.1-.3.4-.5.9-1 .7-.7 1.5-1.5 2.4-2.7.1-.2.3-.4.4-.6.7-1.1 1.1-2.1 1.5-2.9.1-.1.1-.2.1-.3.4-.9.7-1.5 1.2-1.5z" fill="#EC5B5B"/><path d="M11.203 5.5c.4.2.4.8.1 1.6-.1.2-.2.4-.3.7-.3.8-.8 1.7-1.5 2.6-.5.7-1.1 1.4-1.8 2-.4.4-.8.7-1.2 1-.9.6-1.6.9-1.8.9.1-.3.4-.5.9-1 .7-.7 1.5-1.5 2.3-2.7.1-.2.3-.4.4-.6.7-1.1 1.1-2.1 1.5-2.9.2.1.2 0 .2-.1.4-.9.7-1.5 1.2-1.5z" fill="#ED5C5C"/><path d="M11.203 5.5c.4.2.4.8.1 1.6-.1.2-.2.4-.3.7-.3.8-.8 1.7-1.5 2.6-.5.7-1.1 1.4-1.8 2-.4.4-.8.7-1.2 1-.9.6-1.6.9-1.8.9.1-.3.4-.5.9-1 .7-.7 1.5-1.5 2.3-2.7.1-.2.3-.4.4-.6.9-1 1.3-1.9 1.6-2.7.1-.1.1-.2.1-.3.4-.9.7-1.5 1.2-1.5z" fill="#ED5D5D"/><path d="M11.203 5.5c.4.2.4.7.1 1.6-.1.2-.2.4-.3.7-.3.8-.8 1.7-1.5 2.6-.5.7-1.1 1.4-1.8 2-.4.4-.8.7-1.2 1-.8.6-1.6.9-1.8.9.1-.3.4-.5.9-1 .7-.7 1.5-1.5 2.3-2.7.1-.2.3-.4.4-.6.9-1 1.3-1.9 1.6-2.7.1-.1.1-.2.1-.3.4-.9.7-1.5 1.2-1.5z" fill="#ED5D5D"/><path d="M11.203 5.5c.4.2.4.7.1 1.6-.1.2-.2.4-.3.7-.3.8-.8 1.7-1.5 2.6-.5.7-1.1 1.4-1.8 2-.4.4-.8.7-1.2 1-.8.6-1.6.9-1.8.9.1-.3.4-.5.9-1 .7-.7 1.5-1.5 2.3-2.7.1-.2.3-.4.4-.6.9-1 1.3-1.9 1.6-2.7.1-.1.1-.2.2-.3.3-.9.6-1.5 1.1-1.5z" fill="#ED5E5E"/><path d="M11.202 5.5c.4.2.4.7.1 1.6-.1.2-.2.4-.3.7-.3.8-.8 1.6-1.5 2.6-.5.7-1.1 1.4-1.8 2-.4.4-.8.7-1.1 1-.8.6-1.6.9-1.7.9.1-.3.4-.5.9-1 .7-.7 1.5-1.5 2.3-2.7.1-.2.3-.4.4-.6.7-1 1.1-1.9 1.4-2.7.1-.1.1-.2.2-.3.3-.9.6-1.5 1.1-1.5z" fill="#ED5F5F"/><path d="M11.202 5.5c.4.2.4.7.1 1.6-.1.2-.2.4-.3.7-.3.8-.8 1.6-1.5 2.6-.5.7-1.1 1.4-1.8 2-.4.4-.8.7-1.1 1-.8.6-1.6.9-1.7.9.1-.3.4-.5.9-1 .7-.7 1.5-1.5 2.3-2.7.1-.2.3-.4.4-.6.7-1.1 1.1-2 1.4-2.8.1 0 .1-.1.2-.2.3-.9.6-1.5 1.1-1.5z" fill="#ED6060"/><path d="M11.203 5.5c.4.2.4.7.1 1.6-.1.2-.2.4-.3.7-.3.8-.8 1.6-1.5 2.6-.5.7-1.1 1.4-1.8 2-.4.4-.8.7-1.1 1-.7.6-1.5.9-1.6.9.1-.3.4-.5.9-1 .7-.7 1.5-1.5 2.3-2.7.1-.2.3-.4.4-.6.7-1.1 1.1-2 1.4-2.8 0 0 0-.1.1-.2.3-.9.6-1.5 1.1-1.5z" fill="#ED6060"/><path d="M11.203 5.5c.4.2.4.7.1 1.6-.1.2-.2.4-.3.7-.3.7-.8 1.6-1.5 2.6-.5.7-1.1 1.4-1.7 2-.4.4-.8.7-1.1.9-.8.6-1.5.9-1.7.9.1-.3.4-.5.9-1 .7-.7 1.5-1.5 2.3-2.6.1-.2.3-.4.4-.6.7-1.1 1.1-2 1.4-2.8 0 0 0-.1.1-.2.3-.9.6-1.5 1.1-1.5z" fill="#ED6161"/><path d="M11.203 5.6c.4.2.4.7.1 1.6-.1.2-.2.4-.3.7-.3.7-.8 1.6-1.5 2.6-.5.7-1.1 1.4-1.7 2-.4.4-.8.7-1.1.9-.8.6-1.5.9-1.7.9.1-.3.4-.5.9-1 .7-.7 1.5-1.5 2.3-2.6.1-.2.3-.4.4-.6.6-1.1 1-2 1.4-2.8 0-.1 0-.2.1-.3.3-.9.6-1.5 1.1-1.4 0-.1 0-.1 0 0z" fill="#ED6262"/><path d="M11.203 5.6c.3.2.4.7.1 1.6-.1.2-.2.4-.3.7-.3.7-.8 1.6-1.5 2.6-.5.7-1.1 1.4-1.7 2-.4.4-.7.7-1.1.9-.8.6-1.5.9-1.7.9.1-.3.4-.5.9-1 .7-.7 1.5-1.5 2.3-2.6.1-.2.3-.4.4-.6.6-1.1 1-2 1.4-2.8 0-.1 0-.2.1-.3.3-.9.6-1.5 1.1-1.4z" fill="#ED6363"/><path d="M11.203 5.6c.3.2.4.7.1 1.6-.1.2-.2.4-.3.7-.3.7-.8 1.6-1.5 2.6-.5.7-1.1 1.4-1.7 2-.4.4-.7.7-1.1.9-.8.6-1.5.9-1.7.9.1-.3.4-.5.9-1 .7-.7 1.4-1.5 2.3-2.6.1-.2.3-.4.4-.6.6-1.1 1-2 1.4-2.8 0-.1 0-.2.1-.3.4-.9.6-1.5 1.1-1.4z" fill="#ED6363"/><path d="M11.203 5.6c.3.2.4.7.1 1.6-.1.2-.2.4-.3.7-.3.7-.8 1.6-1.5 2.6-.5.7-1.1 1.4-1.7 2-.4.4-.7.7-1.1.9-.8.6-1.5.9-1.7.9.1-.3.4-.5.9-1 .7-.7 1.4-1.5 2.2-2.6.1-.2.3-.4.4-.6.7-1.1 1.1-2 1.5-2.8 0-.1 0-.2.1-.3.4-.9.6-1.5 1.1-1.4z" fill="#ED6464"/><path d="M11.204 5.6c.3.2.4.7.1 1.6l-.3.6c-.3.7-.8 1.6-1.4 2.6-.5.7-1.1 1.4-1.7 2-.4.4-.7.7-1.1.9-.8.6-1.5.9-1.7.9.1-.3.4-.5.9-.9.7-.7 1.4-1.5 2.2-2.6.1-.2.3-.4.4-.6.6-1.1 1-2 1.4-2.8 0-.1 0-.2.1-.3.4-.9.6-1.5 1.1-1.4z" fill="#EE6565"/><path d="M11.204 5.6c.3.2.3.7.1 1.6l-.3.6c-.3.7-.8 1.6-1.4 2.5-.5.7-1.1 1.4-1.7 2-.4.4-.7.7-1.1.9-.8.6-1.5.9-1.7.9.1-.3.4-.5.9-.9.7-.7 1.4-1.5 2.2-2.6.1-.2.3-.4.4-.6.6-1 1.1-1.9 1.4-2.7 0-.1.1-.2.1-.3.4-.9.6-1.5 1.1-1.4z" fill="#EE6565"/><path d="M11.204 5.6c.3.2.3.7.1 1.6l-.3.6c-.3.7-.8 1.6-1.4 2.5-.5.7-1.1 1.4-1.7 2-.4.4-.7.7-1.1.9-.8.6-1.5.9-1.7.9.1-.3.4-.5.9-.9.7-.7 1.4-1.5 2.2-2.6.1-.2.3-.4.4-.6.7-1 1.1-2 1.4-2.8 0-.1.1-.2.1-.3.4-.8.6-1.4 1.1-1.3z" fill="#E66"/><path d="M11.203 5.6c.3.2.3.7.1 1.6-.1.2-.2.4-.2.6-.3.7-.8 1.6-1.4 2.5-.5.7-1.1 1.4-1.7 2-.4.4-.7.7-1.1.9-.8.6-1.5.9-1.7.9.1-.3.4-.5.9-.9.7-.7 1.4-1.5 2.2-2.6.1-.2.3-.4.4-.6.6-1 1-2 1.3-2.7 0-.1.1-.2.1-.3.4-.9.6-1.5 1.1-1.4z" fill="#EE6767"/><path d="M11.203 5.6c.3.2.3.7.1 1.6-.1.2-.1.4-.2.6-.3.7-.8 1.6-1.4 2.5-.5.7-1.1 1.4-1.7 2-.4.3-.7.7-1.1.9-.8.6-1.5.9-1.7.9.1-.3.4-.5.9-.9.7-.7 1.4-1.5 2.2-2.6.1-.2.3-.4.4-.5.6-1.1 1-2.1 1.3-2.8 0-.1.1-.2.1-.3.4-.9.6-1.5 1.1-1.4z" fill="#EE6868"/><path d="M11.203 5.6c.3.2.3.7.1 1.6-.1.2-.1.4-.2.6-.3.7-.8 1.6-1.4 2.5-.5.7-1 1.4-1.7 2-.4.3-.7.7-1.1.9-.8.6-1.4.9-1.7.9.1-.3.4-.5.9-.9.7-.7 1.4-1.5 2.2-2.6.1-.2.3-.4.4-.5.6-1.1 1-2.1 1.3-2.8 0-.1.1-.2.1-.3.4-.9.7-1.5 1.1-1.4z" fill="#EE6868"/><path d="M11.203 5.6c.3.2.3.7 0 1.6-.1.2-.1.4-.2.6-.3.7-.8 1.6-1.4 2.5-.5.7-1 1.3-1.7 2-.4.3-.7.7-1.1.9-.8.6-1.4.9-1.6.9.1-.3.4-.5.8-.9.7-.7 1.4-1.5 2.2-2.6.1-.2.2-.4.4-.5.7-1.1 1.1-2.1 1.4-2.8 0-.1.1-.2.1-.3.4-.9.7-1.5 1.1-1.4z" fill="#EE6969"/><path d="M11.203 5.6c.3.2.3.7 0 1.6-.1.2-.1.4-.2.6-.3.7-.8 1.6-1.4 2.5-.5.7-1 1.3-1.7 2-.4.3-.7.7-1.1.9-.8.6-1.4.9-1.6.9.1-.3.4-.5.8-.9.7-.7 1.4-1.5 2.2-2.6.1-.2.2-.4.4-.5.7-1.1 1.1-2.1 1.4-2.8 0-.1.1-.2.1-.3.4-.9.7-1.5 1.1-1.4z" fill="#EE6A6A"/><path d="M11.203 5.6c.3.2.3.7 0 1.6-.1.2-.1.4-.2.6-.3.7-.8 1.6-1.4 2.5-.5.7-1 1.3-1.7 2-.4.3-.7.7-1.1.9-.8.6-1.4.9-1.6.9.1-.3.4-.5.8-.9.7-.7 1.4-1.5 2.2-2.6.1-.2.2-.4.4-.5.7-1 1-2 1.4-2.7 0-.1.1-.2.1-.3.4-1 .7-1.5 1.1-1.5z" fill="#EE6A6A"/><path d="M11.203 5.6c.3.2.3.7 0 1.5-.1.2-.1.4-.2.6-.3.7-.8 1.6-1.4 2.5-.5.7-1 1.3-1.6 1.9-.3.3-.7.7-1.1.9-.7.7-1.4 1-1.6 1 .1-.3.4-.5.8-.9.7-.7 1.4-1.5 2.2-2.6.1-.2.2-.4.4-.5.6-1 1-2 1.4-2.7 0-.1.1-.2.1-.3.3-.8.6-1.4 1-1.4z" fill="#EE6B6B"/><path d="M11.203 5.6c.3.2.3.7 0 1.5-.1.2-.1.4-.2.6-.3.7-.8 1.6-1.4 2.5-.5.7-1 1.3-1.6 1.9-.3.3-.7.7-1.1.9-.7.7-1.4 1-1.6 1 .1-.3.4-.5.8-.9.7-.7 1.4-1.5 2.2-2.6.1-.2.2-.4.4-.5.6-1 1-2 1.4-2.7 0-.1.1-.2.1-.3.3-.8.6-1.4 1-1.4z" fill="#EE6C6C"/><path d="M11.203 5.6c.3.2.3.7 0 1.5-.1.2-.1.4-.2.6-.3.7-.8 1.6-1.4 2.5-.5.7-1 1.3-1.6 1.9-.3.3-.7.7-1.1.9-.7.7-1.4 1-1.6 1 .1-.3.4-.5.8-.9.7-.7 1.4-1.5 2.1-2.6.1-.2.2-.4.4-.5.7-1 1.1-2 1.4-2.7 0-.1.1-.2.1-.3.4-.8.7-1.4 1.1-1.4z" fill="#EE6D6D"/><path d="M11.203 5.6c.3.2.3.7 0 1.5-.1.2-.1.4-.2.6-.3.7-.8 1.5-1.4 2.5-.5.7-1 1.3-1.6 1.9-.3.3-.7.7-1.1.9-.7.6-1.4.9-1.6.9.1-.3.4-.5.8-.9.7-.7 1.4-1.5 2.1-2.6.1-.2.2-.4.4-.5.7-.9 1.1-1.9 1.4-2.6 0-.1.1-.2.1-.3.4-.8.7-1.4 1.1-1.4z" fill="#EE6D6D"/><path d="M11.202 5.6c.3.2.3.7 0 1.5-.1.2-.1.4-.2.6-.3.7-.8 1.5-1.4 2.4-.5.7-1 1.3-1.6 1.9-.3.3-.7.7-1 .9-.7.5-1.4.9-1.6.9.1-.3.4-.5.8-.9.7-.7 1.4-1.5 2.1-2.6.1-.2.2-.4.4-.5.6-.8 1-1.8 1.3-2.5 0-.1.1-.2.1-.3.4-.8.7-1.4 1.1-1.4z" fill="#EF6E6E"/><path d="M11.202 5.6c.3.2.3.7 0 1.5-.1.2-.1.4-.2.6-.3.7-.8 1.5-1.4 2.4-.4.7-1 1.3-1.6 1.9-.3.3-.7.7-1 .9-.7.5-1.4.9-1.6.9.1-.3.4-.5.8-.9.7-.7 1.4-1.5 2.1-2.5.1-.2.2-.4.4-.5.6-.9 1-1.9 1.3-2.6 0-.1.1-.2.1-.3.4-.8.7-1.4 1.1-1.4z" fill="#EF6F6F"/><path d="M11.202 5.6c.3.2.3.7 0 1.5-.1.2-.1.4-.2.6-.3.7-.8 1.5-1.4 2.4-.4.7-1 1.3-1.6 1.9-.3.3-.7.7-1 .9-.7.5-1.4.9-1.6.9.1-.3.4-.5.8-.9.7-.7 1.4-1.5 2.1-2.5.1-.2.2-.4.3-.5.7-.9 1.1-1.9 1.4-2.6 0-.1.1-.2.1-.3.4-.8.7-1.4 1.1-1.4z" fill="#EF6F6F"/><path d="M11.202 5.6c.3.2.3.7 0 1.5-.1.2-.1.4-.2.6-.3.7-.8 1.5-1.4 2.4-.4.7-1 1.3-1.6 1.9-.3.3-.7.7-1 .9-.7.5-1.4.9-1.6.9.1-.3.4-.5.8-.9.7-.7 1.4-1.5 2.1-2.5.1-.2.2-.4.3-.5.6-1 1-1.9 1.3-2.7 0-.1.1-.2.1-.3.5-.7.8-1.3 1.2-1.3z" fill="#EF7070"/><path d="M11.202 5.6c.3.2.3.7 0 1.5-.1.2-.1.4-.2.6-.3.7-.8 1.5-1.4 2.4-.4.7-1 1.3-1.6 1.9-.3.3-.7.7-1 .9-.7.5-1.3.9-1.6.9.1-.3.4-.5.8-.9.7-.7 1.4-1.5 2.1-2.5.1-.2.2-.4.3-.5.6-1 1-1.9 1.3-2.7 0-.1.1-.2.1-.3.5-.7.8-1.3 1.2-1.3z" fill="#EF7171"/><path d="M11.202 5.6c.3.2.3.7 0 1.5-.1.2-.1.4-.2.6-.3.7-.8 1.5-1.4 2.4-.4.7-1 1.3-1.6 1.9-.3.3-.7.7-1 .9-.7.5-1.3.8-1.6.9.1-.3.4-.5.8-.9.7-.7 1.4-1.5 2.1-2.5.1-.2.2-.4.3-.5.6-1 1-1.9 1.3-2.6 0-.1.1-.2.1-.3.5-.8.8-1.4 1.2-1.4z" fill="#EF7272"/><path d="M11.204 5.6c.3.2.3.7 0 1.5-.1.2-.1.4-.2.6-.3.7-.8 1.5-1.3 2.4-.4.7-1 1.3-1.6 1.9-.3.3-.7.7-1 .9-.7.5-1.3.8-1.5.9.1-.3.4-.5.8-.9.7-.7 1.4-1.5 2.1-2.5.1-.2.2-.4.3-.5.6-1 1-1.9 1.3-2.6 0-.1.1-.2.1-.3.3-.8.6-1.4 1-1.4z" fill="#EF7272"/><path d="M11.204 5.6c.3.2.3.7 0 1.5-.1.2-.1.4-.2.6-.3.7-.7 1.5-1.3 2.4-.4.7-1 1.3-1.6 1.9-.3.3-.7.7-1 .9-.7.5-1.3.8-1.5.9.1-.3.4-.5.8-.9.7-.7 1.4-1.5 2.1-2.5.1-.2.2-.4.3-.5.6-1 1-1.9 1.3-2.6 0-.1.1-.2.1-.3.3-.8.6-1.4 1-1.4z" fill="#EF7373"/><path d="M11.204 5.6c.3.2.3.7 0 1.5-.1.2-.1.4-.2.6-.3.7-.7 1.5-1.3 2.4-.4.6-1 1.3-1.6 1.9-.3.3-.7.6-1 .9-.7.5-1.3.8-1.5.9.1-.2.4-.5.7-.8.7-.7 1.4-1.5 2.1-2.5.1-.2.2-.4.3-.5.6-1 1-1.9 1.3-2.6 0-.1.1-.2.1-.3.4-.9.7-1.5 1.1-1.5z" fill="#EF7474"/><path d="M11.204 5.7c.3.2.3.7 0 1.5-.1.2-.1.4-.2.6-.3.7-.7 1.5-1.3 2.4-.4.6-1 1.3-1.6 1.9-.3.3-.7.6-1 .9-.7.5-1.3.8-1.5.9.1-.3.4-.5.8-.9.7-.7 1.4-1.5 2.1-2.5.1-.2.2-.4.3-.5.6-1 1-1.9 1.3-2.6 0-.1.1-.2.1-.3.3-.9.6-1.5 1-1.4z" fill="#EF7474"/><path d="M11.203 5.7c.3.2.3.7 0 1.5-.1.2-.1.4-.2.6-.3.7-.7 1.5-1.3 2.4-.4.6-1 1.3-1.5 1.9-.3.3-.7.6-1 .9-.7.5-1.3.8-1.5.9.1-.3.4-.5.8-.9.7-.7 1.3-1.5 2-2.5.1-.2.2-.4.3-.5.6-1 1-1.9 1.3-2.6 0-.1.1-.2.1-.3.3-.9.6-1.5 1-1.4z" fill="#EF7575"/><path d="M11.203 5.7c.3.2.3.7 0 1.5-.1.2-.1.4-.2.6-.3.7-.7 1.5-1.3 2.4-.4.6-1 1.3-1.5 1.9-.3.3-.7.6-1 .9-.7.5-1.3.8-1.5.9.1-.3.4-.5.8-.9.7-.7 1.3-1.5 2-2.5.1-.2.2-.4.3-.5.6-1 1-1.9 1.3-2.6 0-.1.1-.2.1-.3.3-.9.6-1.5 1-1.4z" fill="#EF7676"/><path d="M11.203 5.7c.3.2.3.7 0 1.5-.1.2-.1.4-.2.6-.3.7-.7 1.5-1.3 2.4-.4.6-1 1.3-1.5 1.9-.3.3-.7.6-1 .9-.7.5-1.3.8-1.5.9.1-.3.4-.5.8-.9.7-.7 1.3-1.5 2-2.5.1-.2.2-.4.3-.5.6-1 1-1.9 1.3-2.6 0-.1.1-.2.1-.3.3-.9.6-1.5 1-1.4z" fill="#F07777"/><path d="M11.203 5.7c.3.2.2.7 0 1.5-.1.2-.1.4-.2.6-.3.7-.7 1.5-1.3 2.3-.4.6-.9 1.3-1.5 1.9-.3.3-.7.6-1 .9-.7.5-1.3.8-1.5.9.1-.3.4-.5.8-.9.7-.7 1.3-1.5 2-2.5.1-.2.2-.3.3-.5.6-1 1-1.9 1.3-2.6 0-.1.1-.2.1-.3.3-.8.6-1.4 1-1.3z" fill="#F07777"/><path d="M11.203 5.7c.3.2.2.7 0 1.5-.1.1-.2.3-.2.5-.3.7-.7 1.5-1.3 2.3-.4.6-.9 1.3-1.5 1.9-.3.3-.6.6-1 .9-.7.5-1.3.8-1.5.9.1-.3.4-.5.8-.9.7-.7 1.3-1.5 2-2.5.1-.2.2-.3.3-.5.6-1 1-1.9 1.3-2.6 0-.1.1-.2.1-.3.3-.7.6-1.3 1-1.2z" fill="#F07878"/><path d="M11.203 5.7c.2.2.2.7 0 1.5-.1.1-.2.3-.2.5-.3.7-.7 1.5-1.3 2.3-.4.6-.9 1.3-1.5 1.9-.3.3-.6.6-1 .9-.7.5-1.2.8-1.5.9.1-.3.4-.5.8-.9.7-.7 1.3-1.5 2-2.5.1-.2.2-.3.3-.5.6-1 1-1.9 1.3-2.6 0-.1.1-.2.1-.3.3-.7.6-1.3 1-1.2z" fill="#F07979"/><path d="M11.203 5.7c.2.2.2.7 0 1.5-.1.1-.2.3-.2.5-.3.7-.7 1.5-1.3 2.3-.4.6-.9 1.3-1.5 1.9-.3.3-.6.6-1 .9-.6.5-1.2.8-1.5.9.1-.3.4-.5.8-.9.7-.7 1.3-1.5 2-2.5.1-.2.2-.3.3-.5.6-1 1-1.8 1.3-2.6 0-.1.1-.2.1-.3.3-.7.6-1.3 1-1.2z" fill="#F07979"/><path d="M11.203 5.7c.2.2.2.7 0 1.5-.1.2-.1.4-.2.6-.3.7-.7 1.5-1.3 2.3-.4.6-.9 1.3-1.5 1.8-.3.3-.6.6-1 .9-.6.5-1.2.8-1.5.9.1-.3.4-.5.8-.9.7-.7 1.3-1.5 2-2.5.1-.2.2-.3.3-.5.6-1 1-1.8 1.3-2.6 0-.1.1-.2.1-.3.3-.7.6-1.2 1-1.2z" fill="#F07A7A"/><path d="M11.203 5.7c.2.2.2.7 0 1.5-.1.2-.1.4-.2.6-.3.7-.7 1.4-1.3 2.3-.4.6-.9 1.2-1.5 1.8-.3.3-.6.6-1 .9-.6.5-1.2.8-1.5.9.1-.3.4-.5.8-.9.7-.7 1.3-1.5 2-2.5.1-.2.2-.3.3-.5.6-1 1-1.8 1.3-2.5 0-.1.1-.2.1-.3.3-.8.6-1.3 1-1.3z" fill="#F07B7B"/><path d="M11.203 5.7c.2.2.2.7 0 1.5-.1.2-.1.4-.2.6-.3.7-.7 1.4-1.3 2.3-.4.6-.9 1.2-1.5 1.8-.3.3-.6.6-1 .9-.6.5-1.2.8-1.5.9.1-.3.4-.5.8-.9.7-.7 1.3-1.5 2-2.4.1-.2.2-.3.3-.5.6-1 1-1.8 1.2-2.5 0-.1.1-.2.1-.3.4-.9.7-1.4 1.1-1.4z" fill="#F07C7C"/><path d="M11.203 5.7c.2.2.2.7 0 1.4-.1.2-.1.4-.2.6-.3.7-.7 1.4-1.3 2.3-.4.6-.9 1.2-1.5 1.8-.3.3-.6.6-1 .9-.6.5-1.2.8-1.4.9.1-.3.4-.5.8-.9.7-.7 1.3-1.5 2-2.4.1-.2.2-.3.3-.5.6-1 .9-1.8 1.2-2.5 0-.1.1-.2.1-.3.3-.8.6-1.3 1-1.3z" fill="#F07C7C"/><path d="M11.202 5.7c.2.2.2.7 0 1.4-.1.2-.1.4-.2.6-.3.7-.7 1.4-1.3 2.3-.4.6-.9 1.2-1.5 1.8l-.9.9c-.6.5-1.2.8-1.4.9.1-.3.4-.5.8-.9.7-.7 1.3-1.5 1.9-2.4.1-.2.2-.3.3-.5.6-1 .9-1.8 1.2-2.5 0-.1.1-.2.1-.3.3-.8.6-1.3 1-1.3z" fill="#F07D7D"/><path d="M11.202 5.7c.2.2.2.7 0 1.4-.1.2-.1.4-.2.6-.3.7-.7 1.4-1.3 2.3-.4.6-.9 1.2-1.5 1.8l-.9.9c-.6.5-1.2.8-1.4.9.1-.3.4-.5.8-.9.7-.7 1.3-1.5 1.9-2.4.1-.2.2-.3.3-.5.6-1 .9-1.8 1.2-2.5 0-.1.1-.2.1-.3.4-.8.6-1.3 1-1.3z" fill="#F07E7E"/><path d="M11.202 5.7c.2.2.2.7 0 1.4-.1.2-.1.4-.2.6-.3.6-.7 1.4-1.3 2.3-.4.6-.9 1.2-1.5 1.8l-.9.9c-.6.5-1.2.8-1.4.9.1-.3.4-.5.8-.9.7-.7 1.3-1.5 1.9-2.4.1-.2.2-.3.3-.5.6-1 .9-1.8 1.2-2.5 0-.1.1-.2.1-.3.4-.7.6-1.3 1-1.3z" fill="#F07E7E"/><path d="M11.202 5.7c.2.2.2.7-.1 1.4-.1.2-.1.4-.2.6-.3.6-.7 1.4-1.3 2.3-.4.6-.9 1.2-1.4 1.8l-.9.9c-.6.5-1.2.8-1.4.9.1-.3.4-.5.8-.9.7-.7 1.3-1.5 1.9-2.4.1-.2.2-.3.3-.5.6-.9.9-1.8 1.2-2.5 0-.1.1-.2.1-.3.4-.7.6-1.3 1-1.3z" fill="#F07F7F"/><path d="M11.203 5.7c.2.2.2.7-.1 1.4-.1.2-.1.4-.2.6-.3.6-.7 1.4-1.2 2.3-.4.6-.9 1.2-1.4 1.8l-.9.9c-.6.5-1.2.8-1.4.9.1-.3.4-.5.8-.9.5-.7 1.2-1.4 1.8-2.4.1-.2.2-.3.3-.5.6-.9.9-1.8 1.2-2.5 0-.1.1-.2.1-.3.4-.7.6-1.3 1-1.3z" fill="#F18080"/><path d="M11.203 5.7c.2.2.2.7-.1 1.4-.1.2-.1.4-.2.6-.3.6-.7 1.4-1.2 2.2-.4.6-.9 1.2-1.4 1.8l-.9.9c-.6.5-1.1.8-1.4.9.1-.3.4-.5.8-.9.5-.6 1.2-1.4 1.8-2.3.1-.2.2-.3.3-.5.6-.9.9-1.8 1.2-2.5 0-.1.1-.2.1-.3.4-.7.6-1.3 1-1.3z" fill="#F18181"/><path d="M11.203 5.7c.2.2.2.7-.1 1.4-.1.2-.1.4-.2.6-.3.6-.7 1.4-1.2 2.2-.4.6-.9 1.2-1.4 1.8l-.9.9c-.6.5-1.1.8-1.4.9.1-.3.4-.5.8-.9.6-.6 1.2-1.4 1.8-2.3.1-.2.2-.3.3-.5.6-.9.9-1.8 1.2-2.5 0-.1.1-.2.1-.2.4-.8.6-1.4 1-1.4z" fill="#F18181"/><path d="M11.203 5.7c.2.2.2.7-.1 1.4-.1.2-.1.4-.2.6-.3.6-.7 1.4-1.2 2.2-.4.6-.9 1.2-1.4 1.8l-.9.9c-.6.5-1.1.8-1.4.9.1-.3.4-.5.8-.9.6-.6 1.2-1.4 1.8-2.3.1-.2.2-.3.3-.5.6-.9.9-1.8 1.2-2.5 0-.1.1-.2.1-.2.4-.8.6-1.4 1-1.4z" fill="#F18282"/><path d="M11.203 5.7c.2.2.2.7-.1 1.4-.1.2-.1.4-.2.6-.3.6-.7 1.4-1.2 2.2-.4.6-.9 1.2-1.4 1.8l-.9.9c-.6.5-1.1.8-1.4.9.1-.3.4-.5.8-.9.6-.6 1.2-1.4 1.8-2.3.1-.2.2-.3.3-.5.6-1 .9-1.8 1.2-2.5 0-.1.1-.2.1-.2.4-.8.6-1.4 1-1.4z" fill="#F18383"/><path d="M11.203 5.7c.2.2.2.7-.1 1.4-.1.2-.1.4-.2.6-.3.6-.7 1.4-1.2 2.2-.4.6-.9 1.2-1.4 1.8l-.9.9c-.6.5-1.1.8-1.4.9.1-.3.4-.5.8-.9.6-.6 1.2-1.4 1.8-2.3.1-.2.2-.3.3-.5.6-1 .9-1.8 1.2-2.5 0-.1.1-.2.1-.2.4-.8.6-1.4 1-1.4z" fill="#F18383"/><path d="M11.203 5.7c.2.2.2.7-.1 1.4-.1.2-.1.4-.2.6-.3.6-.7 1.4-1.2 2.2-.4.6-.9 1.2-1.4 1.8l-.9.9c-.6.4-1.1.8-1.4.9.1-.3.4-.5.8-.9.6-.6 1.2-1.4 1.8-2.3.1-.2.2-.3.3-.5.6-1 1-1.8 1.2-2.5 0-.1.1-.2.1-.2.4-.8.6-1.4 1-1.4z" fill="#F18484"/><path d="M11.203 5.7c.2.2.2.7-.1 1.4-.1.2-.1.4-.2.6-.3.6-.7 1.4-1.2 2.2-.4.6-.9 1.2-1.4 1.8-.3.3-.6.6-.9.8-.6.5-1.1.8-1.4 1 .2-.3.4-.5.7-.9.7-.7 1.3-1.5 1.9-2.4.2-.1.3-.3.4-.4.5-1 .9-1.8 1.1-2.5 0-.1.1-.2.1-.2.4-.8.6-1.4 1-1.4z" fill="#F18585"/><path d="M11.203 5.7c.2.2.2.7-.1 1.4-.1.2-.1.4-.2.6-.3.6-.7 1.4-1.2 2.2-.4.6-.9 1.2-1.4 1.8-.3.3-.6.6-.9.8-.6.5-1.1.8-1.4.9.2-.3.4-.5.7-.9.7-.7 1.3-1.5 1.8-2.4.3 0 .4-.2.5-.3.5-1 .9-1.8 1.1-2.5 0-.1.1-.2.1-.2.4-.8.6-1.4 1-1.4z" fill="#F18686"/><path d="M11.204 5.8c.2.2.2.7-.1 1.4-.1.1-.1.3-.2.5-.3.6-.7 1.4-1.2 2.2-.4.6-.8 1.2-1.4 1.8-.3.3-.6.6-.9.8-.6.5-1.1.8-1.3.9.2-.3.4-.5.7-.8.7-.7 1.3-1.5 1.8-2.4.2-.1.3-.3.4-.5.5-.9.9-1.7 1.2-2.4 0-.1.1-.2.1-.2.3-.8.5-1.4.9-1.3 0-.1 0 0 0 0z" fill="#F18686"/><path d="M11.204 5.8c.2.2.2.7-.1 1.4-.1.1-.1.3-.2.5-.3.6-.7 1.3-1.2 2.2-.4.6-.8 1.2-1.4 1.8l-.9.9c-.5.5-1.1.8-1.3.9.2-.3.4-.5.7-.8.6-.7 1.2-1.5 1.8-2.4.2-.2.3-.4.4-.6.5-.9.9-1.7 1.2-2.4 0-.1.1-.2.1-.2.3-.8.5-1.4.9-1.3z" fill="#F18787"/><path d="M11.204 5.8c.2.2.2.7-.1 1.4-.1.1-.1.3-.2.5-.3.6-.7 1.3-1.2 2.2-.4.6-.8 1.2-1.4 1.8l-.9.9c-.5.5-1.1.8-1.3.9.2-.3.4-.5.7-.8.6-.7 1.2-1.5 1.8-2.4.2-.2.3-.4.4-.6.5-.9.9-1.7 1.2-2.4 0-.1.1-.2.1-.2.3-.8.6-1.4.9-1.3z" fill="#F18888"/><path d="M11.203 5.8c.2.2.2.7-.1 1.4-.1.1-.1.3-.2.5-.3.6-.7 1.3-1.2 2.1-.4.6-.8 1.2-1.3 1.8l-.9.9c-.5.5-1.1.8-1.3.9.2-.3.4-.5.7-.8.6-.7 1.2-1.5 1.8-2.4.1-.1.2-.3.3-.5.5-.9.9-1.7 1.2-2.4 0-.1.1-.2.1-.2.3-.8.6-1.4.9-1.3z" fill="#F18888"/><path d="M11.203 5.8c.2.2.1.7-.1 1.4-.1.1-.1.3-.2.5-.3.6-.7 1.3-1.2 2.1-.4.6-.8 1.2-1.3 1.7l-.9.9c-.5.5-1 .8-1.3.9.2-.3.4-.5.7-.8.6-.7 1.2-1.5 1.8-2.3.1-.2.2-.3.3-.5.5-.9.9-1.7 1.2-2.4 0-.1.1-.2.1-.2.3-.8.6-1.4.9-1.3z" fill="#F28989"/><path d="M11.203 5.8c.2.2.1.7-.1 1.4-.1.1-.1.3-.2.5-.3.6-.7 1.3-1.2 2.1-.4.6-.8 1.2-1.3 1.7l-.9.9c-.5.5-1 .8-1.3.9.2-.3.4-.5.7-.8.6-.7 1.2-1.5 1.8-2.3.1-.2.2-.3.3-.5.5-.9.9-1.7 1.2-2.4 0-.1.1-.2.1-.2.3-.8.6-1.4.9-1.3z" fill="#F28A8A"/><path d="M11.203 5.8c.2.2.1.7-.1 1.4-.1.1-.1.3-.2.5-.3.6-.7 1.3-1.2 2.1-.4.6-.8 1.2-1.3 1.7l-.9.9c-.5.5-1 .8-1.3.9.2-.3.4-.5.7-.8.6-.7 1.2-1.5 1.8-2.3.1-.2.2-.3.3-.5.6-.9.9-1.7 1.2-2.4 0-.1.1-.2.1-.2.3-.8.6-1.3.9-1.3-.1 0 0 0 0 0z" fill="#F28B8B"/><path d="M11.203 5.8c.2.2.1.7-.1 1.4-.1.1-.1.3-.2.5-.3.6-.7 1.3-1.2 2.1-.4.6-.8 1.2-1.3 1.7l-.9.9c-.5.5-1 .8-1.3.9.2-.3.4-.5.7-.8.6-.7 1.2-1.5 1.8-2.3.1-.2.2-.3.3-.5.6-.9.9-1.7 1.2-2.4 0-.1.1-.2.1-.2.3-.8.6-1.3.9-1.3-.1 0 0 0 0 0z" fill="#F28B8B"/><path d="M11.203 5.8c.2.2.1.7-.1 1.4-.1.2-.1.3-.2.5-.3.6-.7 1.3-1.2 2.1-.4.6-.8 1.1-1.3 1.7-.3.3-.6.6-.8.9-.5.5-1 .8-1.3.9.2-.3.4-.5.7-.8.6-.7 1.2-1.5 1.8-2.3.1-.2.2-.3.2-.5.6-.9.9-1.7 1.2-2.4 0-.1.1-.2.1-.2.3-.8.6-1.3.9-1.3-.1 0 0 0 0 0z" fill="#F28C8C"/><path d="M11.203 5.8c.2.2.1.7-.1 1.3-.1.2-.1.3-.2.5-.3.7-.7 1.4-1.2 2.2-.4.6-.8 1.1-1.3 1.7-.3.3-.6.6-.8.9-.5.4-1 .8-1.3.9.2-.3.4-.5.7-.8.6-.7 1.2-1.5 1.8-2.3.1-.2.2-.4.3-.5.5-.9.8-1.7 1.1-2.4 0-.1.1-.2.1-.2.3-.8.6-1.3.9-1.3-.1 0 0 0 0 0z" fill="#F28D8D"/><path d="M11.203 5.8c.2.2.1.7-.1 1.3-.1.2-.1.3-.2.5-.3.7-.7 1.4-1.2 2.2-.4.6-.8 1.1-1.3 1.7-.3.3-.5.6-.8.9-.5.4-1 .8-1.3.9.2-.3.4-.5.7-.8.6-.7 1.2-1.5 1.8-2.3.1-.2.2-.4.3-.5.5-.9.8-1.7 1.1-2.4 0-.1.1-.2.1-.2.3-.8.6-1.3.9-1.3-.1 0 0 0 0 0z" fill="#F28D8D"/><path d="M11.203 5.8c.2.2.1.6-.1 1.3-.1.2-.1.3-.2.5-.3.7-.7 1.4-1.2 2.2-.4.6-.8 1.1-1.3 1.7-.3.3-.5.6-.8.9-.5.4-1 .8-1.3.9.2-.3.4-.5.7-.8.6-.7 1.2-1.5 1.7-2.3.2-.2.3-.4.4-.5.5-.9.8-1.7 1.1-2.4 0-.1.1-.2.1-.2.3-.8.6-1.3.9-1.3-.1 0 0 0 0 0z" fill="#F28E8E"/><path d="M11.203 5.8c.1.2.1.6-.1 1.3-.1.2-.1.3-.2.5-.3.7-.7 1.4-1.2 2.2-.4.6-.8 1.1-1.3 1.7-.3.3-.5.6-.8.9-.5.4-1 .8-1.3.9.2-.3.4-.5.7-.8.6-.7 1.2-1.5 1.7-2.3.2-.2.3-.4.4-.5.5-.9.8-1.7 1.1-2.4 0-.1.1-.2.1-.2.3-.8.6-1.3.9-1.3-.1 0 0 0 0 0z" fill="#F28F8F"/><path d="M11.203 5.8c.1.2.1.6-.1 1.3-.1.2-.1.3-.2.5-.3.6-.7 1.4-1.2 2.1-.4.6-.8 1.1-1.3 1.7-.3.3-.5.6-.8.9-.5.4-1 .8-1.3 1 .2-.3.4-.5.7-.8.6-.7 1.2-1.5 1.7-2.3.2-.2.3-.4.4-.5.5-.9.8-1.7 1.1-2.4 0-.1.1-.2.1-.2.3-.8.6-1.3.9-1.3-.1 0 0 0 0 0z" fill="#F29090"/><path d="M11.203 5.8c.1.2.1.6-.1 1.3-.1.2-.1.3-.2.5-.3.6-.6 1.3-1.1 2.1-.4.6-.8 1.1-1.3 1.7-.3.3-.5.6-.8.9-.5.4-1 .8-1.2 1 .2-.2.4-.5.7-.8.6-.7 1.2-1.5 1.7-2.3 0-.2.1-.4.2-.5.5-.9.8-1.7 1.1-2.4 0-.1.1-.2.1-.2.3-.8.6-1.3.9-1.3-.1 0 0 0 0 0z" fill="#F29090"/><path d="M11.202 5.8c.1.2.1.7-.2 1.3-.1.2-.1.3-.2.5-.3.6-.6 1.3-1.1 2.1-.4.5-.8 1.1-1.3 1.7-.3.3-.5.6-.8.9-.5.4-.9.8-1.2 1 .2-.2.4-.5.7-.8.6-.7 1.2-1.5 1.7-2.3l.3-.6c.5-.8.8-1.6 1.1-2.3 0-.1.1-.2.1-.2.3-.7.6-1.3.9-1.3-.1 0 0 0 0 0z" fill="#F29191"/><path d="M11.202 5.8c.1.2.1.7-.2 1.3-.1.2-.1.3-.2.5-.2.6-.6 1.3-1.1 2.1-.4.5-.8 1.1-1.3 1.7-.3.3-.5.6-.8.9-.5.4-.9.7-1.2 1 .2-.2.4-.5.7-.8.6-.7 1.2-1.5 1.7-2.3l.3-.6c.5-.8.8-1.6 1.1-2.3 0-.1.1-.2.1-.2.3-.7.6-1.3.9-1.3-.1 0 0 0 0 0z" fill="#F39292"/><path d="M11.203 5.8c.1.2.1.7-.2 1.3-.1.2-.1.3-.2.5-.2.6-.6 1.3-1.1 2.1-.3.5-.8 1.1-1.2 1.7-.3.3-.5.6-.8.8-.5.4-.9.7-1.2 1 .2-.2.4-.5.7-.8.6-.7 1.2-1.5 1.7-2.3 0-.2.1-.3.2-.5.5-.8.8-1.6 1.1-2.3 0-.1.1-.2.1-.2.3-.7.6-1.3.9-1.3-.1 0 0 0 0 0z" fill="#F39393"/><path d="M11.203 5.8c.1.2.1.7-.2 1.3-.1.2-.1.3-.2.5-.2.6-.6 1.3-1.1 2-.3.5-.8 1.1-1.2 1.7-.3.4-.5.7-.8.9-.5.4-.9.7-1.2 1 .2-.2.4-.5.7-.8.6-.7 1.2-1.5 1.7-2.3.1-.2.1-.3.2-.5.5-.8.9-1.6 1.1-2.3 0-.1.1-.2.1-.2.3-.7.6-1.3.9-1.3-.1 0 0 0 0 0z" fill="#F39393"/><path d="M11.203 5.8c.1.2.1.7-.2 1.3-.1.2-.1.3-.2.5-.2.6-.6 1.3-1.1 2-.3.5-.8 1.1-1.2 1.7-.3.4-.5.7-.8.9-.5.4-.9.7-1.2 1 .2-.2.4-.5.7-.8.6-.7 1.2-1.5 1.7-2.3.1-.2.2-.3.2-.5.5-.8.9-1.6 1.1-2.3 0-.1.1-.2.1-.2.3-.7.6-1.3.9-1.3-.1 0 0 0 0 0z" fill="#F39494"/><path d="M11.203 5.8c.1.2.1.7-.2 1.3-.1.2-.1.3-.2.5-.2.6-.6 1.3-1.1 2-.3.5-.8 1.1-1.2 1.7-.3.3-.5.6-.8.8-.5.4-.9.7-1.2 1 .2-.2.4-.5.7-.8.6-.7 1.2-1.5 1.7-2.3.1-.1.2-.2.2-.4.5-.8.9-1.6 1.1-2.3 0-.1.1-.2.1-.2.3-.7.6-1.3.9-1.3-.1 0 0 0 0 0z" fill="#F39595"/><path d="M11.203 5.8c.1.2.1.7-.2 1.3-.1.2-.1.3-.2.5-.2.6-.6 1.3-1.1 2-.3.5-.7 1.1-1.2 1.7-.3.3-.5.6-.8.8-.4.4-.9.7-1.2 1 .2-.2.4-.5.7-.8.6-.7 1.2-1.5 1.7-2.3.1-.1.2-.2.3-.4.4-.8.8-1.6 1-2.3 0-.1.1-.2.1-.2.3-.7.6-1.3.9-1.3-.1 0 0 0 0 0z" fill="#F39595"/><path d="M11.203 5.8c.1.2.1.7-.2 1.3-.1.2-.1.3-.2.5-.2.6-.6 1.2-1.1 2-.3.5-.7 1.1-1.2 1.7-.2.3-.5.6-.8.8-.4.4-.9.7-1.2 1 .2-.2.4-.5.7-.8.6-.7 1.2-1.5 1.6-2.3.2-.1.3-.2.4-.4.4-.9.8-1.6 1-2.3 0-.1.1-.2.1-.2.3-.7.6-1.3.9-1.3-.1 0 0 0 0 0z" fill="#F39696"/><path d="M11.203 5.8c.1.2 0 .7-.2 1.3-.1.2-.1.3-.2.5-.2.6-.6 1.2-1.1 2-.3.5-.7 1.1-1.2 1.7-.2.3-.5.6-.8.8-.4.4-.9.7-1.2 1 .2-.2.4-.5.7-.8.6-.7 1.2-1.5 1.6-2.2.2-.2.3-.4.4-.5.5-.9.8-1.6 1-2.3 0-.1.1-.2.1-.2.3-.7.6-1.3.9-1.3-.1 0 0 0 0 0z" fill="#F39797"/><path d="M11.203 5.8c.1.2 0 .7-.2 1.3-.1.2-.1.3-.2.5-.2.6-.6 1.2-1.1 2-.3.5-.7 1.1-1.2 1.6-.2.3-.5.6-.8.8-.4.4-.9.7-1.2 1 .2-.2.4-.5.7-.8.6-.7 1.2-1.5 1.6-2.2.2-.1.3-.3.4-.4.5-.9.8-1.6 1-2.3 0-.1.1-.2.1-.2.3-.7.6-1.3.9-1.3-.1 0 0 0 0 0z" fill="#F39898"/><path d="M11.203 5.9c.1.1 0 .6-.2 1.2-.1.2-.1.3-.2.5-.2.6-.6 1.2-1.1 2-.3.5-.7 1.1-1.2 1.6-.2.3-.5.6-.8.8-.4.4-.9.7-1.2 1 .2-.2.4-.5.7-.8.6-.7 1.1-1.5 1.6-2.2.2-.1.3-.3.4-.4.5-.9.8-1.6 1-2.3 0-.1.1-.2.1-.2.3-.7.6-1.3.9-1.2-.1-.1 0-.1 0 0z" fill="#F39898"/><path d="M11.203 5.9c.1.1 0 .6-.2 1.2-.1.2-.1.3-.2.5-.2.6-.6 1.2-1.1 2-.3.5-.7 1.1-1.2 1.6-.2.3-.5.6-.8.8-.4.4-.9.7-1.2 1 .2-.2.4-.5.7-.8.6-.7 1.1-1.5 1.6-2.2.2-.1.3-.3.4-.4.5-.9.8-1.6 1.1-2.3 0-.1.1-.2.1-.2.3-.7.5-1.3.8-1.2-.1 0 0 0 0 0z" fill="#F39999"/><path d="M11.204 5.9c.1.1 0 .6-.2 1.2-.1.2-.1.3-.2.5-.2.6-.6 1.2-1.1 2-.3.5-.7 1.1-1.2 1.6-.2.3-.5.6-.8.8-.4.4-.8.7-1.1 1 .2-.2.4-.5.7-.8.7-.7 1.2-1.4 1.6-2.2.1-.1.2-.3.3-.4.5-.8.8-1.6 1-2.2 0-.1.1-.2.1-.2.4-.8.6-1.4.9-1.3-.1 0 0 0 0 0z" fill="#F39A9A"/><path d="M11.204 5.9c.1.1 0 .6-.2 1.2-.1.2-.1.3-.2.5-.2.6-.6 1.2-1.1 2-.3.5-.7 1.1-1.2 1.6-.2.3-.5.6-.8.8-.4.4-.8.7-1.1 1 .2-.2.4-.5.7-.8.7-.7 1.2-1.4 1.7-2.2 0-.1.1-.3.2-.4.5-.8.8-1.6 1-2.2 0-.1.1-.2.1-.2.4-.8.6-1.4.9-1.3-.1 0 0 0 0 0z" fill="#F39A9A"/><path d="M11.203 5.9c.1.2 0 .6-.2 1.3-.1.2-.1.3-.2.5-.2.6-.6 1.2-1 2-.3.5-.7 1.1-1.2 1.6-.2.3-.5.6-.7.8-.4.4-.8.7-1.1 1 .2-.2.4-.5.7-.8.5-.8 1-1.5 1.5-2.3.1-.2.2-.3.3-.5.5-.8.8-1.6 1-2.2 0-.1.1-.1.1-.2.3-.7.5-1.2.8-1.2-.1 0 0 0 0 0z" fill="#F49B9B"/><path d="M11.203 5.9c.1.2 0 .6-.2 1.3-.1.2-.1.3-.2.5-.2.5-.6 1.2-1 2-.3.5-.7 1.1-1.2 1.6-.2.3-.5.6-.7.8-.4.4-.8.7-1.1 1 .2-.2.4-.5.7-.8.5-.8 1-1.6 1.5-2.3.1-.2.2-.3.3-.5.5-.8.8-1.6 1-2.2 0-.1.1-.1.1-.2.3-.7.5-1.2.8-1.2-.1 0 0 0 0 0z" fill="#F49C9C"/><path d="M11.202 5.9c.1.2 0 .6-.2 1.3-.1.2-.1.3-.2.5-.2.5-.6 1.2-1 1.9-.3.5-.7 1.1-1.1 1.6-.2.3-.5.6-.7.8-.4.4-.8.7-1.1 1 .2-.2.4-.5.7-.8.4-.7.9-1.5 1.4-2.2.1-.2.2-.3.3-.5.5-.8.8-1.6 1-2.2 0-.1.1-.1.1-.2.3-.7.5-1.2.8-1.2-.1 0 0 0 0 0z" fill="#F49D9D"/><path d="M11.202 5.9c.1.2 0 .6-.2 1.3-.1.2-.1.3-.2.5-.2.5-.6 1.2-1 1.9-.3.5-.7 1-1.1 1.6-.2.3-.5.6-.7.8-.4.4-.8.7-1.1 1 .2-.2.4-.5.7-.8.4-.7 1-1.5 1.4-2.2.1-.2.2-.3.3-.5.5-.8.8-1.6 1-2.2 0-.1.1-.1.1-.2.3-.7.5-1.2.8-1.2-.1 0 0 0 0 0z" fill="#F49D9D"/><path d="M11.202 5.9c.1.2 0 .6-.2 1.2-.1.2-.1.3-.2.5-.2.5-.6 1.2-1 1.9-.3.5-.7 1-1.1 1.6-.2.3-.5.6-.7.8-.4.4-.8.7-1.1 1 .2-.2.4-.5.7-.8.5-.7 1-1.4 1.4-2.1.1-.2.2-.3.3-.4.5-.8.8-1.6 1-2.2 0-.1.1-.1.1-.2.3-.8.5-1.3.8-1.3-.1 0 0 0 0 0z" fill="#F49E9E"/><path d="M11.202 5.9c.1.2 0 .6-.2 1.2-.1.1-.1.3-.2.5-.2.5-.6 1.2-1 1.9-.3.5-.7 1-1.1 1.6-.2.3-.5.6-.7.8-.4.4-.8.7-1.1 1 .2-.2.4-.5.7-.8.5-.7 1-1.4 1.4-2.1.1-.2.2-.3.3-.4.4-.8.8-1.6 1-2.2 0-.1.1-.1.1-.2.3-.8.5-1.3.8-1.3-.1 0 0 0 0 0z" fill="#F49F9F"/><path d="M11.202 5.9c.1.2 0 .6-.2 1.2-.1.1-.1.3-.2.5-.2.5-.6 1.2-1 1.9-.3.5-.7 1-1.1 1.6-.2.3-.5.6-.7.8-.4.4-.8.7-1.1 1 .2-.2.4-.5.7-.8.5-.7 1-1.4 1.4-2.1.1-.2.2-.3.3-.4.4-.8.8-1.6 1-2.2 0-.1.1-.1.1-.2.3-.8.5-1.3.8-1.3-.1 0 0 0 0 0z" fill="#F49F9F"/><path d="M11.202 5.9c.1.2 0 .6-.2 1.2-.1.1-.1.3-.2.5-.2.5-.6 1.2-1 1.9-.3.5-.7 1-1.1 1.6-.2.3-.5.6-.7.8-.4.4-.8.7-1.1 1 .2-.2.4-.5.6-.8.6-.7 1.1-1.4 1.5-2.1.1-.2.2-.3.3-.4.4-.8.8-1.5 1-2.2 0-.1.1-.1.1-.2.3-.8.5-1.3.8-1.3-.1 0 0 0 0 0z" fill="#F4A0A0"/><path d="M11.202 5.9c.1.2 0 .6-.2 1.2-.1.1-.1.3-.2.5-.2.5-.6 1.2-1 1.9-.3.5-.7 1-1.1 1.6-.2.3-.5.6-.7.8-.4.4-.8.7-1.1 1 .2-.2.4-.5.6-.8.6-.7 1.1-1.5 1.5-2.2.1-.2.2-.3.2-.4.4-.8.7-1.5 1-2.2 0-.1.1-.1.1-.2.4-.7.6-1.2.9-1.2-.1 0 0 0 0 0z" fill="#F4A1A1"/><path d="M11.202 5.9c.1.2 0 .6-.2 1.2-.1.1-.1.3-.2.5-.2.5-.6 1.2-1 1.9-.3.5-.7 1-1.1 1.6-.2.3-.5.6-.7.8-.4.4-.7.7-1.1 1 .2-.2.4-.5.6-.8.6-.7 1.1-1.5 1.5-2.2.1-.1.2-.3.2-.4.4-.8.7-1.5 1-2.1 0-.1.1-.1.1-.2.4-.8.6-1.3.9-1.3-.1 0-.1 0 0 0z" fill="#F4A2A2"/><path d="M11.202 5.9c.1.2 0 .6-.2 1.2-.1.1-.1.3-.2.5-.2.5-.5 1.2-1 1.9-.3.5-.7 1-1.1 1.6-.2.3-.5.6-.7.8-.4.4-.7.7-1.1 1 .2-.2.4-.5.6-.8.6-.7 1.1-1.5 1.5-2.2.1-.1.2-.3.2-.4.4-.8.7-1.5 1-2.1 0-.1.1-.1.1-.2.4-.8.6-1.3.9-1.3-.1 0-.1 0 0 0z" fill="#F4A2A2"/><path d="M11.202 5.9c.1.2 0 .6-.2 1.2-.1.1-.1.3-.2.5-.2.5-.5 1.2-1 1.9-.3.5-.7 1-1.1 1.6-.2.3-.5.6-.7.8-.4.4-.7.7-1.1 1 .2-.2.4-.5.6-.8.6-.7 1.1-1.5 1.5-2.2.1-.1.2-.3.2-.4.4-.8.7-1.5 1-2.1 0-.1.1-.1.1-.2.4-.8.6-1.3.9-1.3-.1 0-.1 0 0 0z" fill="#F4A3A3"/><path d="M11.203 5.9c.1.2 0 .6-.2 1.2-.1.1-.1.3-.2.5-.2.5-.5 1.1-1 1.9-.3.5-.7 1-1.1 1.6-.2.3-.4.6-.7.8l-1 1c.2-.2.4-.5.6-.8.6-.7 1.1-1.5 1.5-2.2.1-.1.2-.3.2-.4.4-.8.7-1.5 1-2.1 0-.1.1-.1.1-.2.3-.8.5-1.3.8-1.3-.1 0-.1 0 0 0z" fill="#F5A4A4"/><path d="M11.203 5.9c0 .2 0 .6-.2 1.2-.1.1-.1.3-.2.5-.2.5-.5 1.1-1 1.9-.3.5-.7 1-1.1 1.6-.2.3-.4.6-.7.8-.3.4-.7.7-1 1 .2-.2.4-.5.6-.8.6-.7 1.1-1.5 1.5-2.1.1-.1.2-.3.2-.4.4-.8.7-1.5 1-2.1 0-.1.1-.1.1-.2.3-.8.5-1.4.8-1.4-.1 0-.1 0 0 0z" fill="#F5A4A4"/><path d="M11.203 5.9c0 .2 0 .6-.2 1.2-.1.1-.1.3-.2.5-.2.5-.5 1.1-1 1.9-.3.5-.6 1-1.1 1.6-.2.3-.4.6-.7.8-.3.4-.7.7-1 1 .2-.2.4-.5.6-.8.6-.7 1.1-1.5 1.5-2.1.1-.1.2-.3.2-.4.4-.8.7-1.5 1-2.1 0-.1.1-.1.1-.2.3-.8.5-1.4.8-1.4-.1 0-.1 0 0 0z" fill="#F5A5A5"/><path d="M11.203 5.9c0 .2 0 .6-.2 1.2-.1.1-.1.3-.2.5-.2.5-.5 1.1-1 1.8-.3.5-.6 1-1.1 1.6-.2.3-.4.6-.7.8-.3.4-.7.7-1 1 .2-.2.4-.5.6-.8.6-.7 1.1-1.5 1.5-2.1.1-.1.2-.3.2-.4.4-.8.7-1.5 1-2.1 0-.1.1-.1.1-.2.3-.7.5-1.3.8-1.3-.1 0-.1 0 0 0z" fill="#F5A6A6"/><path d="M11.204 5.9c0 .2 0 .6-.2 1.2-.1.1-.1.3-.2.5-.2.5-.5 1.1-1 1.8-.3.5-.6 1-1 1.5-.2.3-.4.6-.7.8-.3.4-.7.7-1 1 .2-.2.4-.5.6-.8.6-.7 1.1-1.5 1.5-2.1.1-.1.2-.3.2-.4.4-.8.7-1.5 1-2.1 0-.1.1-.1.1-.2.2-.6.4-1.2.7-1.2-.1 0-.1 0 0 0z" fill="#F5A7A7"/><path d="M11.204 5.9c0 .2 0 .6-.2 1.2-.1.1-.1.3-.2.5-.2.5-.5 1.1-1 1.8-.3.5-.6 1-1 1.5-.2.3-.4.6-.7.8-.3.4-.7.7-1 1 .2-.2.4-.5.6-.7.6-.7 1.1-1.5 1.4-2.1.1-.1.2-.3.2-.4.4-.8.7-1.5 1-2.1 0-.1.1-.1.1-.2.3-.7.6-1.3.8-1.3-.1 0-.1 0 0 0z" fill="#F5A7A7"/><path d="M7.104 12.7c.2-.2.4-.5.6-.7.7-.9 1.3-1.8 1.7-2.5.4-.8.7-1.5 1-2.1.3-.8.6-1.4.8-1.4 0 .2-.1.8-.4 1.6-.3.8-1 2-2 3.4-.5.6-1.1 1.2-1.7 1.7z" fill="#F5A8A8"/><defs><radialGradient id="paint0_radial_203_5684" cx="0" cy="0" r="1" gradientUnits="userSpaceOnUse" gradientTransform="rotate(-47.054 13.655 -1.956) scale(17.1431 11.3232)"><stop offset=".323" stop-color="#E51818"/><stop offset=".438" stop-color="#E11818"/><stop offset=".547" stop-color="#D61717"/><stop offset=".653" stop-color="#C31515"/><stop offset=".757" stop-color="#A81313"/><stop offset=".861" stop-color="#851010"/><stop offset=".962" stop-color="#5C0C0C"/><stop offset="1" stop-color="#4A0B0B"/></radialGradient><radialGradient id="paint1_radial_203_5684" cx="0" cy="0" r="1" gradientUnits="userSpaceOnUse" gradientTransform="rotate(-51.72 7.141 -11.047) scale(7.42162 4.39328)"><stop offset=".729" stop-color="#9BCC00"/><stop offset=".778" stop-color="#94C401"/><stop offset=".852" stop-color="#82AF05"/><stop offset=".943" stop-color="#658D0B"/><stop offset="1" stop-color="#4F730F"/></radialGradient></defs></svg>